<svg xmlns="http://www.w3.org/2000/svg" xmlns:xlink="http://www.w3.org/1999/xlink" width="51.838" height="63" viewBox="0 0 51.838 63"><defs><filter id="a" x="0" y="0" width="51.838" height="63" filterUnits="userSpaceOnUse"><feOffset dy="3" input="SourceAlpha"/><feGaussianBlur stdDeviation="3" result="b"/><feFlood flood-opacity="0.161"/><feComposite operator="in" in2="b"/><feComposite in="SourceGraphic"/></filter></defs><g transform="translate(-61.657 -25.255)"><g transform="translate(70.657 31.255)"><g transform="translate(0 0)"><g transform="matrix(1, 0, 0, 1, -9, -6)" filter="url(#a)"><path d="M100.991,76.255H74.161a3.5,3.5,0,0,1-3.5-3.5V34.759a3.5,3.5,0,0,1,3.5-3.5h26.83a3.5,3.5,0,0,1,3.5,3.5V72.751A3.5,3.5,0,0,1,100.991,76.255Z" transform="translate(-61.66 -25.26)" fill="#fcc87f"/></g></g></g><g transform="translate(70.657 31.255)"><g transform="translate(0 0)"><path d="M75.663,72.751V34.759a3.5,3.5,0,0,1,3.5-3.5H74.161a3.5,3.5,0,0,0-3.5,3.5V72.751a3.5,3.5,0,0,0,3.5,3.5h5.006A3.5,3.5,0,0,1,75.663,72.751Z" transform="translate(-70.657 -31.255)" fill="#ffb74b"/></g></g><g transform="translate(72.911 41.96)"><g transform="translate(0 0)"><path d="M120.5,147.421H94.974a1.8,1.8,0,0,1-1.8-1.8v-5.63a1.8,1.8,0,0,1,1.8-1.8H120.5a1.8,1.8,0,0,1,1.8,1.8v5.63A1.8,1.8,0,0,1,120.5,147.421Z" transform="translate(-93.172 -138.187)" fill="#fff4c1"/></g></g><g transform="translate(72.911 41.96)"><g transform="translate(0 0)"><path d="M101.33,147.421H94.974a1.8,1.8,0,0,1-1.8-1.8v-5.63a1.8,1.8,0,0,1,1.8-1.8h6.356a1.8,1.8,0,0,1,1.8,1.8v5.63A1.8,1.8,0,0,1,101.33,147.421Z" transform="translate(-93.172 -138.187)" fill="#ccc033"/></g></g><g transform="translate(72.911 56.076)"><g transform="translate(0 0)"><path d="M120.5,288.421H94.974a1.8,1.8,0,0,1-1.8-1.8v-5.63a1.8,1.8,0,0,1,1.8-1.8H120.5a1.8,1.8,0,0,1,1.8,1.8v5.63A1.8,1.8,0,0,1,120.5,288.421Z" transform="translate(-93.172 -279.187)" fill="#fff4c1"/></g></g><g transform="translate(72.911 56.076)"><g transform="translate(0 0)"><path d="M101.33,288.421H94.974a1.8,1.8,0,0,1-1.8-1.8v-5.63a1.8,1.8,0,0,1,1.8-1.8h6.356a1.8,1.8,0,0,1,1.8,1.8v5.63A1.8,1.8,0,0,1,101.33,288.421Z" transform="translate(-93.172 -279.187)" fill="#ff9079"/></g></g><g transform="translate(84.164 45.676)"><g transform="translate(0 0)"><path d="M221.131,177.106H206.443a.9.9,0,0,1,0-1.8h14.688a.9.9,0,0,1,0,1.8Z" transform="translate(-205.573 -175.304)" fill="#a56021"/></g></g><g transform="translate(84.164 58.491)"><g transform="translate(0 0)"><path d="M221.131,305.106H206.443a.9.9,0,0,1,0-1.8h14.688a.9.9,0,0,1,0,1.8Z" transform="translate(-205.573 -303.304)" fill="#a56021"/></g></g><g transform="translate(84.164 61.795)"><g transform="translate(0 0)"><path d="M215.989,338.106h-9.834c-.321,0-.582-.4-.582-.9s.261-.9.582-.9h9.834c.321,0,.582.4.582.9S216.311,338.106,215.989,338.106Z" transform="translate(-205.573 -336.304)" fill="#a56021"/></g></g><g transform="translate(97.23 63.411)"><g transform="translate(0 0)"><path d="M338.03,352.45l-1.947,6.819.021.11.572,2.065a.3.3,0,0,0,.514.148l1.661-1.526,1.947-6.819Z" transform="translate(-336.083 -352.45)" fill="#fff4c1"/></g></g><g transform="translate(97.23 63.411)"><g transform="translate(0 0)"><path d="M337.261,359.7l-.021-.11,1.944-6.806-1.153-.332-1.947,6.819.021.11.572,2.065a.3.3,0,0,0,.514.148l.475-.436Z" transform="translate(-336.083 -352.45)" fill="#fce575"/></g></g><g transform="translate(97.581 71.533)"><g transform="translate(0 0)"><path d="M339.587,433.574l.242.873a.3.3,0,0,0,.514.148l.666-.612Z" transform="translate(-339.587 -433.574)" fill="#a56021"/></g></g><g transform="translate(97.733 37.864)"><g transform="translate(0 0)"><path d="M344.414,127.129l-2.945-.848a.543.543,0,0,1-.335-.688l7.627-26.71a2.06,2.06,0,0,1,2.466-1.544l.184.053a2.071,2.071,0,0,1,1.276,2.621l-7.627,26.71A.54.54,0,0,1,344.414,127.129Z" transform="translate(-341.11 -97.271)" fill="#fce575"/></g></g><g transform="translate(97.733 37.864)"><g transform="translate(0 0)"><path d="M343.249,126.773a.543.543,0,0,1-.335-.688l7.627-26.71a2.189,2.189,0,0,1,1.592-1.569,1.778,1.778,0,0,0-.722-.413l-.184-.053a2.06,2.06,0,0,0-2.466,1.544l-7.627,26.71a.543.543,0,0,0,.335.688l2.945.848a.462.462,0,0,0,.136.017Z" transform="translate(-341.11 -97.272)" fill="#ffd551"/></g></g><g transform="translate(99.843 43.718)"><g transform="translate(0 0)"><path d="M363.421,164.746l-.456-.131a1.178,1.178,0,0,1-.726-1.491l1.844-6.458a1.172,1.172,0,0,1,1.4-.878l.457.131a1.178,1.178,0,0,1,.726,1.491l-1.844,6.458A1.172,1.172,0,0,1,363.421,164.746Z" transform="translate(-362.186 -155.747)" fill="#ffc34c"/></g></g><g transform="translate(99.951 42.542)"><g transform="translate(0 0)"><path d="M366.773,159.918l-2.531-.729a1.473,1.473,0,0,1-.908-1.864l3.479-12.185a1.465,1.465,0,0,1,1.754-1.1l2.531.729a1.473,1.473,0,0,1,.908,1.864l-3.479,12.185A1.465,1.465,0,0,1,366.773,159.918Z" transform="translate(-363.268 -143.994)" fill="#ff624b"/></g></g><g transform="translate(99.941 42.539)"><g transform="translate(0 0)"><path d="M366.093,159.7a1.473,1.473,0,0,1-.908-1.864l3.479-12.185a1.5,1.5,0,0,1,1.526-1.14l-1.73-.5a1.465,1.465,0,0,0-1.754,1.1L363.227,157.3a1.473,1.473,0,0,0,.908,1.864l2.531.729a1.25,1.25,0,0,0,.228.042Z" transform="translate(-363.161 -143.965)" fill="#ff4b34"/></g></g><g transform="translate(104.216 41.464)"><path d="M410.014,135.617l-3.744-1.032a.551.551,0,0,1-.385-.677l.076-.275a.551.551,0,0,1,.677-.385l3.744,1.032a.551.551,0,0,1,.385.677l-.076.275A.551.551,0,0,1,410.014,135.617Z" transform="translate(-405.865 -133.228)" fill="#ffd551"/></g><g transform="translate(104.217 41.456)"><g transform="translate(0 0)"><path d="M407.768,134.337l.068-.247a.539.539,0,0,1,.64-.41l-1.869-.515a.539.539,0,0,0-.64.41l-.068.247a.539.539,0,0,0,.339.679l1.869.515A.539.539,0,0,1,407.768,134.337Z" transform="translate(-405.876 -133.148)" fill="#ffc34c"/></g></g><g transform="translate(106 46.314)"><g transform="translate(0 0)"><path d="M424.283,184.012a.6.6,0,0,1-.579-.76l.314-1.139a.6.6,0,1,1,1.158.319l-.314,1.138A.6.6,0,0,1,424.283,184.012Z" transform="translate(-423.682 -181.672)" fill="#ff9079"/></g></g><g transform="translate(103.746 49.036)"><g transform="translate(0)"><path d="M401.775,216.657a.6.6,0,0,1-.579-.76l1.817-6.59a.6.6,0,1,1,1.158.319l-1.817,6.59A.6.6,0,0,1,401.775,216.657Z" transform="translate(-401.174 -208.865)" fill="#ff9079"/></g></g><g transform="translate(72.911 56.076)"><g transform="translate(0 0)"><path d="M94.974,279.187a1.8,1.8,0,0,0-1.8,1.8v5.63a1.8,1.8,0,0,0,1.8,1.8h.95v-9.234Z" transform="translate(-93.172 -279.187)" fill="#ff624b"/></g></g><g transform="translate(72.911 41.96)"><g transform="translate(0 0)"><path d="M94.974,138.187a1.8,1.8,0,0,0-1.8,1.8v5.63a1.8,1.8,0,0,0,1.8,1.8h.95v-9.234Z" transform="translate(-93.172 -138.187)" fill="#99af17"/></g></g><g transform="translate(75.415 57.822)"><g transform="translate(0)"><path d="M121.393,301.056h-1.734a.422.422,0,0,0-.4.281l-.2.574a.421.421,0,0,1-.4.281h-.056a.421.421,0,0,1-.4-.563L119.9,296.9a.422.422,0,0,1,.4-.279h.464a.421.421,0,0,1,.4.279l1.693,4.732a.421.421,0,0,1-.4.563h-.064a.422.422,0,0,1-.4-.281l-.2-.574A.421.421,0,0,0,121.393,301.056Zm-1.262-2.2-.316.894a.421.421,0,0,0,.4.562h.629a.421.421,0,0,0,.4-.561l-.313-.894A.421.421,0,0,0,120.131,298.855Z" transform="translate(-118.183 -296.619)" fill="#8c4c17"/></g></g><g transform="translate(77.265 67.551)"><g transform="translate(0)"><circle cx="1.583" cy="1.583" r="1.583" fill="#ffb74b"/></g></g><g transform="translate(81.685 71.065)"><g transform="translate(0 0)"><circle cx="1.583" cy="1.583" r="1.583" fill="#ffb74b"/></g></g><g transform="translate(98.823 70.317)"><g transform="translate(0 0)"><path d="M352.6,426.694h0a.6.6,0,0,1,0-1.2h0a3.144,3.144,0,0,0,2.051-.87,3.348,3.348,0,0,0,.752-2.561.6.6,0,0,1,1.2-.059,4.48,4.48,0,0,1-1.092,3.459A4.332,4.332,0,0,1,352.6,426.694Z" transform="translate(-352 -421.432)" fill="#ffeacf"/></g></g><path d="M-19.736-55.957v2.217h-1.039v-5.979h2.287A2.313,2.313,0,0,1-16.9-59.2a1.755,1.755,0,0,1,.589,1.381,1.7,1.7,0,0,1-.577,1.369,2.425,2.425,0,0,1-1.616.489Zm0-.838h1.248a1.229,1.229,0,0,0,.846-.261.958.958,0,0,0,.292-.753,1.034,1.034,0,0,0-.3-.774,1.14,1.14,0,0,0-.813-.3h-1.277Z" transform="translate(96.86 103.516)" fill="#393939"/></g></svg>