<svg id="Changepassword" xmlns="http://www.w3.org/2000/svg" width="11.875" height="16" viewBox="0 0 11.875 16">
  <path id="Path_19434" data-name="Path 19434" d="M10.625,6.157V4.688a4.688,4.688,0,0,0-9.375,0V6.157A1.565,1.565,0,0,0,0,7.688V9.462a.313.313,0,0,0,.625,0V7.688a.939.939,0,0,1,.938-.937h8.75a.939.939,0,0,1,.938.938v6.75a.939.939,0,0,1-.625.884V13.438a.313.313,0,0,0-.625,0v1.938H1.563a.939.939,0,0,1-.937-.937V11.969a.313.313,0,0,0-.625,0v2.469A1.564,1.564,0,0,0,1.563,16h8.75a1.564,1.564,0,0,0,1.563-1.562V7.688A1.565,1.565,0,0,0,10.625,6.157ZM3.563,6.125V4.688a2.375,2.375,0,1,1,4.75,0V6.125Zm5.375,0V4.688a3,3,0,0,0-6,0V6.125H1.875V4.688a4.062,4.062,0,1,1,8.125,0V6.125Zm0,0" fill="#2262c6"/>
  <path id="Path_19435" data-name="Path 19435" d="M.313,333.113a.313.313,0,1,0-.221-.092A.314.314,0,0,0,.313,333.113Zm0,0" transform="translate(0 -322.098)" fill="#2262c6"/>
  <path id="Path_19436" data-name="Path 19436" d="M137.812,281.6a.939.939,0,0,0,.938-.937v-1.659a1.687,1.687,0,1,0-1.875-.005v1.665A.939.939,0,0,0,137.812,281.6Zm-1.058-4a1.063,1.063,0,1,1,1.542.948.312.312,0,0,0-.171.279v1.839a.312.312,0,0,1-.625,0v-1.843a.312.312,0,0,0-.169-.278A1.059,1.059,0,0,1,136.754,277.6Zm0,0" transform="translate(-131.875 -267.292)" fill="#2262c6"/>
  <path id="Path_19437" data-name="Path 19437" d="M320.313,379.625a.313.313,0,1,0-.221-.092A.314.314,0,0,0,320.313,379.625Zm0,0" transform="translate(-310 -367.156)" fill="#2262c6"/>
</svg>
