<svg xmlns="http://www.w3.org/2000/svg" xmlns:xlink="http://www.w3.org/1999/xlink" width="59.683" height="52" viewBox="0 0 59.683 52"><defs><filter id="a" x="5.414" y="4.601" width="54.269" height="47.399" filterUnits="userSpaceOnUse"><feOffset dy="3" input="SourceAlpha"/><feGaussianBlur stdDeviation="3" result="b"/><feFlood flood-opacity="0.161"/><feComposite operator="in" in2="b"/><feComposite in="SourceGraphic"/></filter></defs><g transform="matrix(1, 0, 0, 1, 0, 0)" filter="url(#a)"><path d="M41.455,9.67H40.066V24.928c0,2.376-1.383,4.524-4.156,4.524H8.743v.725c0,2.1,2.389,4.22,4.842,4.22H34.356L42.3,39.069,41.15,34.4h.3c2.451,0,3.558-2.115,3.558-4.22V13.292C45.012,11.192,43.906,9.67,41.455,9.67Z" transform="translate(5.67 0.93)" fill="#0ab69f"/></g><path d="M37.525,3.24H5.971C3.195,3.24,0,5.706,0,8.084V27.207c0,2.189,2.707,3.77,5.3,4.014l-1.69,6.415,10.828-6.37H37.525c2.776,0,5.338-1.683,5.338-4.059V8.084C42.864,5.706,40.3,3.24,37.525,3.24ZM10.785,19.383a2.85,2.85,0,1,1,2.85-2.85A2.85,2.85,0,0,1,10.785,19.383Zm10.647,0a2.85,2.85,0,1,1,2.85-2.85A2.85,2.85,0,0,1,21.432,19.383Zm10.648,0a2.85,2.85,0,1,1,2.85-2.85A2.852,2.852,0,0,1,32.08,19.383Z" transform="translate(0 -3.24)" fill="#fab977"/></svg>