<svg xmlns="http://www.w3.org/2000/svg" width="140.003" height="147.029" viewBox="0 0 140.003 147.029">
  <g id="curricular" transform="translate(-9.669 0.04)">
    <path id="Path_19367" data-name="Path 19367" d="M46.28,156.5H62.816a1.789,1.789,0,0,1,1.78,1.78v44.1a1.789,1.789,0,0,1-1.78,1.78H46.28a1.789,1.789,0,0,1-1.78-1.78v-44.1A1.789,1.789,0,0,1,46.28,156.5Z" transform="translate(-14.831 -66.642)" fill="#c7d7e5"/>
    <path id="Path_19368" data-name="Path 19368" d="M64.6,166.031V158.28a1.789,1.789,0,0,0-1.78-1.78H46.28a1.789,1.789,0,0,0-1.78,1.78v7.751Z" transform="translate(-14.831 -66.642)" fill="#70d6f9"/>
    <path id="Path_19369" data-name="Path 19369" d="M140.875,24.6H33.332A3.725,3.725,0,0,0,29.6,28.332V38.667H144.607V28.332a3.725,3.725,0,0,0-3.732-3.732Z" transform="translate(-8.486 -10.475)" fill="#5290db"/>
    <circle id="Ellipse_3396" data-name="Ellipse 3396" cx="2.584" cy="2.584" r="2.584" transform="translate(28.865 18.374)" fill="#fc657e"/>
    <circle id="Ellipse_3397" data-name="Ellipse 3397" cx="2.584" cy="2.584" r="2.584" transform="translate(37.994 18.374)" fill="#f5c84c"/>
    <circle id="Ellipse_3398" data-name="Ellipse 3398" cx="2.584" cy="2.584" r="2.584" transform="translate(47.124 18.374)" fill="#b2e26d"/>
    <path id="Path_19370" data-name="Path 19370" d="M139.81,156.4H32.268a5.146,5.146,0,0,1-5.168-5.168V27.268A5.146,5.146,0,0,1,32.268,22.1H139.81a5.146,5.146,0,0,1,5.168,5.168V151.232A5.183,5.183,0,0,1,139.81,156.4ZM32.268,24.971a2.3,2.3,0,0,0-2.3,2.3V151.232a2.3,2.3,0,0,0,2.3,2.3H139.81a2.3,2.3,0,0,0,2.3-2.3V27.268a2.3,2.3,0,0,0-2.3-2.3Z" transform="translate(-7.422 -9.411)" fill="#f1f1f3"/>
    <path id="Path_19371" data-name="Path 19371" d="M37.408,2.813h1.206v-1.2a1.608,1.608,0,1,1,3.215,0V2.813h1.206a1.643,1.643,0,0,1,1.608,1.608,1.643,1.643,0,0,1-1.608,1.608H41.829V7.235a1.608,1.608,0,0,1-3.215,0V6.029H37.408A1.643,1.643,0,0,1,35.8,4.421a1.643,1.643,0,0,1,1.608-1.608Z" transform="translate(-11.126)" fill="#f5c84c"/>
    <path id="Path_19372" data-name="Path 19372" d="M237.115,191.561a5.634,5.634,0,0,0,4.536-4.421c0-.057.057-.115.115-.057a.056.056,0,0,1,.057.057,5.562,5.562,0,0,0,4.536,4.421.123.123,0,0,1,.115.115c0,.057-.057.057-.115.115a5.634,5.634,0,0,0-4.536,4.421c0,.057-.057.115-.115.057a.056.056,0,0,1-.057-.057,5.562,5.562,0,0,0-4.536-4.421.115.115,0,0,1,0-.23Z" transform="translate(-96.803 -79.655)" fill="#70d6f9"/>
    <path id="Path_19373" data-name="Path 19373" d="M9.688,109.1a4,4,0,0,0,3.158-3.043A.056.056,0,0,1,12.9,106c.057,0,.057,0,.057.057a3.924,3.924,0,0,0,3.158,3.043.056.056,0,0,1,.057.057c0,.057,0,.057-.057.057a4,4,0,0,0-3.158,3.043.056.056,0,0,1-.057.057c-.057,0-.057,0-.057-.057a3.924,3.924,0,0,0-3.158-3.043c-.057.057.057-.057,0-.115Z" transform="translate(0 -45.138)" fill="#fc657e"/>
    <circle id="Ellipse_3399" data-name="Ellipse 3399" cx="1.723" cy="1.723" r="1.723" transform="translate(13.879 8.613)" fill="#87d147"/>
    <circle id="Ellipse_3400" data-name="Ellipse 3400" cx="1.723" cy="1.723" r="1.723" transform="translate(140.197 123.447)" fill="#f5c84c"/>
    <circle id="Ellipse_3401" data-name="Ellipse 3401" cx="1.723" cy="1.723" r="1.723" transform="translate(13.305 76.939)" fill="#70d6f9"/>
    <path id="Path_19374" data-name="Path 19374" d="M191.251,36.871H167.135a1.435,1.435,0,1,1,0-2.871H191.25a1.435,1.435,0,1,1,0,2.871Z" transform="translate(-66.441 -14.478)" fill="#c1c1c1"/>
    <path id="Path_19375" data-name="Path 19375" d="M143.542,39.038H28.535A1.421,1.421,0,0,1,27.1,37.6V27.268A5.146,5.146,0,0,1,32.268,22.1H139.81a5.146,5.146,0,0,1,5.168,5.168V37.6A1.458,1.458,0,0,1,143.542,39.038ZM29.971,36.167H142.107v-8.9a2.3,2.3,0,0,0-2.3-2.3H32.268a2.3,2.3,0,0,0-2.3,2.3Z" transform="translate(-7.422 -9.411)" fill="#f1f1f3"/>
    <path id="Path_19379" data-name="Path 19379" d="M61.752,204.527H45.215A3.21,3.21,0,0,1,42,201.312v-44.1A3.21,3.21,0,0,1,45.215,154H61.752a3.21,3.21,0,0,1,3.215,3.215v44.1a3.21,3.21,0,0,1-3.215,3.212ZM45.215,156.871a.37.37,0,0,0-.345.345v44.1a.37.37,0,0,0,.345.344H61.752a.37.37,0,0,0,.344-.344v-44.1a.37.37,0,0,0-.344-.345Z" transform="translate(-13.766 -65.577)" fill="#5e5e5e"/>
    <path id="Path_19380" data-name="Path 19380" d="M167.128,175.171H114.935a1.436,1.436,0,0,1,0-2.871h52.192a1.435,1.435,0,1,1,0,2.871Z" transform="translate(-44.213 -73.37)" fill="#5e5e5e"/>
    <path id="Path_19381" data-name="Path 19381" d="M167.728,187.071H115.535a1.436,1.436,0,1,1,0-2.871h52.192a1.422,1.422,0,0,1,1.435,1.435A1.458,1.458,0,0,1,167.728,187.071Z" transform="translate(-44.469 -78.437)" fill="#5e5e5e"/>
    <path id="Path_19382" data-name="Path 19382" d="M100.511,175.171H93.735a1.436,1.436,0,0,1,0-2.871h6.775a1.435,1.435,0,1,1,0,2.871Z" transform="translate(-35.186 -73.37)" fill="#5e5e5e"/>
    <path id="Path_19383" data-name="Path 19383" d="M113.085,161.071H93.735a1.436,1.436,0,0,1,0-2.871h19.35a1.436,1.436,0,0,1,0,2.871Z" transform="translate(-35.186 -67.366)" fill="#5e5e5e"/>
    <path id="Path_19384" data-name="Path 19384" d="M100.453,187.071H93.735a1.436,1.436,0,0,1,0-2.871h6.775a1.422,1.422,0,0,1,1.435,1.435,1.471,1.471,0,0,1-1.492,1.436Z" transform="translate(-35.186 -78.437)" fill="#5e5e5e"/>
    <path id="Path_19385" data-name="Path 19385" d="M167.128,221.171H114.935a1.436,1.436,0,1,1,0-2.871h52.192a1.436,1.436,0,0,1,0,2.871Z" transform="translate(-44.213 -92.958)" fill="#5e5e5e"/>
    <path id="Path_19386" data-name="Path 19386" d="M167.728,233.071H115.535a1.436,1.436,0,0,1,0-2.871h52.192a1.422,1.422,0,0,1,1.435,1.435,1.458,1.458,0,0,1-1.434,1.436Z" transform="translate(-44.469 -98.025)" fill="#5e5e5e"/>
    <path id="Path_19387" data-name="Path 19387" d="M100.511,221.171H93.735a1.436,1.436,0,0,1,0-2.871h6.775a1.436,1.436,0,0,1,0,2.871Z" transform="translate(-35.186 -92.958)" fill="#5e5e5e"/>
    <path id="Path_19388" data-name="Path 19388" d="M113.085,207.071H93.735a1.436,1.436,0,0,1,0-2.871h19.35a1.436,1.436,0,0,1,0,2.871Z" transform="translate(-35.186 -86.954)" fill="#5e5e5e"/>
    <path id="Path_19389" data-name="Path 19389" d="M100.453,233.071H93.735a1.436,1.436,0,0,1,0-2.871h6.775a1.421,1.421,0,0,1,1.435,1.435,1.471,1.471,0,0,1-1.492,1.436Z" transform="translate(-35.186 -98.025)" fill="#5e5e5e"/>
    <path id="Path_19390" data-name="Path 19390" d="M63.244,173.471H43.435a1.436,1.436,0,0,1,0-2.871H63.244a1.435,1.435,0,1,1,0,2.871Z" transform="translate(-13.766 -72.646)" fill="#5e5e5e"/>
    <path id="Path_19391" data-name="Path 19391" d="M63.244,206.671H43.435a1.436,1.436,0,1,1,0-2.871H63.244a1.436,1.436,0,0,1,0,2.871Z" transform="translate(-13.766 -86.783)" fill="#5e5e5e"/>
    <path id="Path_19392" data-name="Path 19392" d="M63.244,223.271H43.435a1.436,1.436,0,0,1,0-2.871H63.244a1.435,1.435,0,1,1,0,2.871Z" transform="translate(-13.766 -93.852)" fill="#5e5e5e"/>
    <path id="Path_19393" data-name="Path 19393" d="M63.244,190.071H43.435a1.436,1.436,0,0,1,0-2.871H63.244a1.435,1.435,0,1,1,0,2.871Z" transform="translate(-13.766 -79.715)" fill="#5e5e5e"/>
    <path id="Path_19394" data-name="Path 19394" d="M133.76,81.642a9.076,9.076,0,0,1-7.177-14.7A24.359,24.359,0,1,0,136,81.355,9.976,9.976,0,0,1,133.76,81.642Z" transform="translate(-33.18 -26.464)" fill="#f5c84c"/>
    <path id="Path_19395" data-name="Path 19395" d="M111,111.49a25.9,25.9,0,1,1,15.388-46.738,1.451,1.451,0,0,1,.287,2.01v.057a7.485,7.485,0,0,0-1.665,4.708,7.708,7.708,0,0,0,7.579,7.694,7.56,7.56,0,0,0,1.952-.23,1.445,1.445,0,0,1,1.723,1.034v.057a26,26,0,0,1-19.752,30.891,34.5,34.5,0,0,1-5.512.517Zm0-48.977A23.053,23.053,0,1,0,134.02,85.6a25.594,25.594,0,0,0-.287-3.617,6.592,6.592,0,0,1-1.091.057,10.611,10.611,0,0,1-10.565-10.565,10.154,10.154,0,0,1,1.435-5.282A22.806,22.806,0,0,0,111,62.513Z" transform="translate(-32.12 -25.422)" fill="#5e5e5e"/>
    <path id="Path_19396" data-name="Path 19396" d="M117.851,136.967a24.26,24.26,0,0,0,16.766-6.66l-7.464-1.9-4.651-2.3V122.9a9.352,9.352,0,0,1-9.187,0v3.215l-4.651,2.3-7.464,1.9a24.035,24.035,0,0,0,16.651,6.66Z" transform="translate(-38.975 -52.334)" fill="#70d6f9"/>
    <path id="Path_19397" data-name="Path 19397" d="M124.409,131.915a9.327,9.327,0,0,0,7.809-4.249L129,126.115V122.9a9.352,9.352,0,0,1-9.187,0v3.215l-3.215,1.55A9.327,9.327,0,0,0,124.409,131.915Z" transform="translate(-45.533 -52.334)" fill="#f9d0b4"/>
    <path id="Path_19398" data-name="Path 19398" d="M111.112,86.691a1.954,1.954,0,0,1,.574.057v-.459a.515.515,0,0,1,.517-.517h.115c1.665.344,6.718.976,10.163-3.33a.473.473,0,0,1,.689-.057l.057.057a9.867,9.867,0,0,0,6.718,2.412.469.469,0,0,1,.459.517v1.435a3.981,3.981,0,0,1,3.33,1.034V80.777a5.367,5.367,0,0,0-5.34-5.34,5.439,5.439,0,0,0-2.7.746A5.347,5.347,0,0,0,121.1,73.6h-2.756a9.63,9.63,0,0,0-9.646,9.646v4.306a3.548,3.548,0,0,1,2.412-.861Z" transform="translate(-42.169 -31.341)" fill="#818182"/>
    <g id="Group_14826" data-name="Group 14826" transform="translate(64.987 50.921)">
      <path id="Path_19399" data-name="Path 19399" d="M147.074,96.4a1.953,1.953,0,0,0-.574.057v7.694a3.9,3.9,0,1,0,1.263-7.694A3.034,3.034,0,0,0,147.074,96.4Z" transform="translate(-123.252 -91.971)" fill="#f9d0b4"/>
      <path id="Path_19400" data-name="Path 19400" d="M110.541,103.524V96.462a3.9,3.9,0,0,0-1.263,7.694,5.084,5.084,0,0,0,1.321,0A2.574,2.574,0,0,1,110.541,103.524Z" transform="translate(-106.011 -91.976)" fill="#f9d0b4"/>
      <path id="Path_19401" data-name="Path 19401" d="M124.637,88.866c-3.388,4.306-8.44,3.675-10.163,3.33a.473.473,0,0,0-.574.4v7.636a9.359,9.359,0,1,0,18.718,0v-8.5a.552.552,0,0,0-.459-.517,9.867,9.867,0,0,1-6.718-2.412.615.615,0,0,0-.8.057Z" transform="translate(-109.37 -88.686)" fill="#f9d0b4"/>
    </g>
    <path id="Path_19402" data-name="Path 19402" d="M132.655,88.11a1.5,1.5,0,0,1-.976-.4,2.543,2.543,0,0,0-2.067-.689,1.473,1.473,0,0,1-1.665-1.206v-.746a11.423,11.423,0,0,1-6.029-2.124,11.375,11.375,0,0,1-9.933,3.273,1.467,1.467,0,0,1-1.493.8,2.258,2.258,0,0,0-1.9.517,1.393,1.393,0,0,1-2.01-.23,1.265,1.265,0,0,1-.287-.919v-4.3A11.052,11.052,0,0,1,117.382,71h2.756a6.879,6.879,0,0,1,5.053,2.239,6.246,6.246,0,0,1,2.3-.4,6.788,6.788,0,0,1,6.775,6.775v7a1.709,1.709,0,0,1-1.608,1.493Zm-1.837-3.9a1.351,1.351,0,0,1,.459.115V79.67a3.9,3.9,0,0,0-3.847-3.9,3.562,3.562,0,0,0-2.01.574,1.417,1.417,0,0,1-1.952-.517,3.784,3.784,0,0,0-3.33-1.895h-2.756a8.209,8.209,0,0,0-8.211,8.211V84.21c.172,0,.287-.057.459-.057a1.938,1.938,0,0,1,2.067-.861c1.665.345,5.857.746,8.727-2.813a1.871,1.871,0,0,1,2.7-.287c.057.057.115.115.172.115.574.574,2.3,1.895,5.742,2.01a1.935,1.935,0,0,1,1.78,1.895Z" transform="translate(-41.147 -30.234)" fill="#5e5e5e"/>
    <path id="Path_19403" data-name="Path 19403" d="M116.7,137.362A25.755,25.755,0,0,1,98.959,130.3a1.42,1.42,0,0,1,.632-2.412l7.349-1.837,3.732-1.837v-2.3a1.421,1.421,0,0,1,1.435-1.435,1.364,1.364,0,0,1,.689.172,7.892,7.892,0,0,0,7.809,0,1.417,1.417,0,0,1,1.952.517,1.529,1.529,0,0,1,.172.689v2.3l3.732,1.837,7.349,1.837a1.445,1.445,0,0,1,1.034,1.723,1.378,1.378,0,0,1-.4.689,25.552,25.552,0,0,1-17.742,7.12Zm-13.665-7.407a23,23,0,0,0,27.388,0l-4.766-1.206c-.115,0-.172-.057-.287-.115l-4.651-2.3a1.377,1.377,0,0,1-.8-1.263v-1.034a10.955,10.955,0,0,1-6.373,0v1.034a1.32,1.32,0,0,1-.8,1.263l-4.651,2.3c-.115.057-.172.057-.287.115Z" transform="translate(-37.825 -51.293)" fill="#5e5e5e"/>
    <path id="Path_19404" data-name="Path 19404" d="M145.964,104.574a4.347,4.347,0,0,1-.861-.057,1.392,1.392,0,0,1-1.206-1.493V95.387a1.474,1.474,0,0,1,1.206-1.435,5.319,5.319,0,1,1,1.665,10.507,3.389,3.389,0,0,1-.8.115Zm.861-7.694v4.651a2.5,2.5,0,0,0,1.493-3.158A2.72,2.72,0,0,0,146.825,96.88Z" transform="translate(-57.155 -39.979)" fill="#5e5e5e"/>
    <path id="Path_19405" data-name="Path 19405" d="M108.94,104.58a5.34,5.34,0,0,1,0-10.68,4.347,4.347,0,0,1,.861.057,1.429,1.429,0,0,1,1.206,1.435v7.579a1.392,1.392,0,0,1-1.206,1.493,4.432,4.432,0,0,1-.861.115Zm-.861-7.694a2.5,2.5,0,0,0-1.493,3.158,2.553,2.553,0,0,0,1.493,1.493Z" transform="translate(-39.997 -39.985)" fill="#5e5e5e"/>
    <path id="Path_19406" data-name="Path 19406" d="M122.194,109.922A10.782,10.782,0,0,1,111.4,99.128V91.663a1.936,1.936,0,0,1,1.952-1.952.977.977,0,0,1,.4.057c1.665.344,5.857.746,8.727-2.813a1.871,1.871,0,0,1,2.7-.287c.057.057.115.115.172.115.574.574,2.3,1.895,5.742,2.01a1.993,1.993,0,0,1,1.9,1.895v8.5a10.77,10.77,0,0,1-10.794,10.734ZM114.27,92.754v6.431a7.924,7.924,0,1,0,15.848,0V91.606a11.423,11.423,0,0,1-6.029-2.124,11.423,11.423,0,0,1-9.817,3.272Z" transform="translate(-43.319 -36.715)" fill="#5e5e5e"/>
    <path id="Path_19407" data-name="Path 19407" d="M123.335,132.224a10.823,10.823,0,0,1-9.015-4.88,1.465,1.465,0,0,1,.4-2.01c.057-.057.115-.057.172-.115l2.412-1.206v-2.3a1.421,1.421,0,0,1,1.435-1.435,1.364,1.364,0,0,1,.689.172,7.892,7.892,0,0,0,7.809,0,1.417,1.417,0,0,1,1.952.517,1.529,1.529,0,0,1,.172.689v2.3l2.412,1.206a1.425,1.425,0,0,1,.632,1.895c0,.057-.057.115-.115.172a10.492,10.492,0,0,1-8.955,5Zm-5.569-5.168a7.937,7.937,0,0,0,11.139,0l-1.608-.8a1.377,1.377,0,0,1-.8-1.263v-1.034a10.956,10.956,0,0,1-6.373,0v1.034a1.32,1.32,0,0,1-.8,1.263Z" transform="translate(-44.46 -51.208)" fill="#5e5e5e"/>
    <circle id="Ellipse_3402" data-name="Ellipse 3402" cx="9.129" cy="9.129" r="9.129" transform="translate(91.45 36.919)" fill="#87d147"/>
    <path id="Path_19408" data-name="Path 19408" d="M163.828,81.763a1.651,1.651,0,0,1-1.034-.4l-2.813-2.813a1.421,1.421,0,1,1,2.01-2.01l1.78,1.78,3.617-3.617a1.388,1.388,0,0,1,2.01.057,1.5,1.5,0,0,1,0,2.01l-4.651,4.651a1.212,1.212,0,0,1-.919.345Z" transform="translate(-63.822 -31.638)" fill="#fff"/>
    <path id="Path_19409" data-name="Path 19409" d="M160.165,82.93A10.565,10.565,0,1,1,170.73,72.365,10.565,10.565,0,0,1,160.165,82.93Zm0-18.2a7.694,7.694,0,1,0,7.694,7.694,7.694,7.694,0,0,0-7.694-7.694Z" transform="translate(-59.585 -26.316)" fill="#f1f1f3"/>
  </g>
</svg>
