<svg xmlns="http://www.w3.org/2000/svg" xmlns:xlink="http://www.w3.org/1999/xlink" width="377" height="323" viewBox="0 0 377 323">
  <defs>
    <clipPath id="clip-path">
      <rect id="Rectangle_21" data-name="Rectangle 21" width="377" height="323" rx="5" fill="#fd6eec"/>
    </clipPath>
  </defs>
  <g id="Mask_Group_4" data-name="Mask Group 4" opacity="0.12" clip-path="url(#clip-path)">
    <g id="Path_19340" data-name="Path 19340" transform="translate(189 -75)" fill="#f5f5f5" opacity="0.3">
      <path d="M 118 228 C 57.34580612182617 228 8 178.6541900634766 8 118 C 8 57.34580612182617 57.34580612182617 8 118 8 C 178.6541900634766 8 228 57.34580612182617 228 118 C 228 178.6541900634766 178.6541900634766 228 118 228 Z" stroke="none"/>
      <path d="M 118 220 C 174.2429962158203 220 220 174.2429962158203 220 118 C 220 61.75699996948242 174.2429962158203 16 118 16 C 61.75699996948242 16 16 61.75699996948242 16 118 C 16 174.2429962158203 61.75699996948242 220 118 220 M 118 236 C 52.83041000366211 236 1.4210854715202e-14 183.1695861816406 1.4210854715202e-14 118 C 1.4210854715202e-14 52.83041000366211 52.83041000366211 1.4210854715202e-14 118 1.4210854715202e-14 C 183.1695861816406 1.4210854715202e-14 236 52.83041000366211 236 118 C 236 183.1695861816406 183.1695861816406 236 118 236 Z" stroke="none" fill="#2262c6"/>
    </g>
  </g>
</svg>
