<svg xmlns="http://www.w3.org/2000/svg" width="43.65" height="45" viewBox="0 0 43.65 45"><g transform="translate(1728.582 1407.564)"><g transform="translate(-1727 -1391.235)"><path d="M6.228,300.793H1.039A1.039,1.039,0,0,0,0,301.832v15.425H7.267V301.832a1.039,1.039,0,0,0-1.039-1.039Zm0,0" transform="translate(0 -288.585)" fill="#49c3e0"/><path d="M3.466,300.793H1.039A1.039,1.039,0,0,0,0,301.832v15.425H2.427V301.832A1.039,1.039,0,0,1,3.466,300.793Zm0,0" transform="translate(0 -288.585)" fill="#00a5c6"/><path d="M146.052,248.98h-5.189a1.039,1.039,0,0,0-1.039,1.039v19.494h7.267V250.019A1.039,1.039,0,0,0,146.052,248.98Zm0,0" transform="translate(-128.843 -240.841)" fill="#3ac7b4"/><path d="M143.291,248.98h-2.427a1.039,1.039,0,0,0-1.039,1.039v19.494h2.427V250.019A1.039,1.039,0,0,1,143.291,248.98Zm0,0" transform="translate(-128.843 -240.841)" fill="#00ad94"/><path d="M285.876,197.168h-5.189a1.039,1.039,0,0,0-1.039,1.039V221.77h7.267V198.207A1.039,1.039,0,0,0,285.876,197.168Zm0,0" transform="translate(-257.685 -193.099)" fill="#ffcd38"/><path d="M283.115,197.168h-2.427a1.039,1.039,0,0,0-1.039,1.039V221.77h2.427V198.207A1.039,1.039,0,0,1,283.115,197.168Zm0,0" transform="translate(-257.685 -193.099)" fill="#e7b835"/><path d="M425.7,145.355h-5.189a1.039,1.039,0,0,0-1.039,1.039v27.632h7.267V146.394A1.039,1.039,0,0,0,425.7,145.355Zm0,0" transform="translate(-386.532 -145.355)" fill="#ff8c57"/><path d="M422.939,145.355h-2.427a1.039,1.039,0,0,0-1.039,1.039v27.633H421.9V146.394A1.039,1.039,0,0,1,422.939,145.355Zm0,0" transform="translate(-386.527 -145.355)" fill="#ec6a34"/></g><g transform="translate(-1725.776 -1407.564)"><path d="M-1724.624-1380.907l14.124-10.958,4.627,3.653,14.367-9.984" transform="translate(1724.624 1405.643)" fill="none" stroke="#da5b65" stroke-linecap="round" stroke-linejoin="round" stroke-width="4"/><path d="M4.042,1.4a1,1,0,0,1,1.707,0L8.86,6.488A1,1,0,0,1,8.007,8.01H1.783A1,1,0,0,1,.93,6.488Z" transform="matrix(0.545, 0.839, -0.839, 0.545, 35.512, 0)" fill="#da5b65"/></g></g></svg>