<svg xmlns="http://www.w3.org/2000/svg" width="12.194" height="16" viewBox="0 0 12.194 16"><path d="M63.182,12.322v3.161a.516.516,0,0,1-.881.365L59.14,12.687a.516.516,0,0,1,.365-.881h3.161A.516.516,0,0,1,63.182,12.322Zm8-10.774v12.9A1.548,1.548,0,0,1,69.634,16h-5.5a.516.516,0,0,1-.516-.518c0-.475,0-1.446,0-3.487a.623.623,0,0,0-.624-.624c-2.041,0-3.012,0-3.487,0a.516.516,0,0,1-.518-.516V1.548A1.548,1.548,0,0,1,60.537,0h9.1A1.548,1.548,0,0,1,71.182,1.548ZM63.2,4.154l1.05,1.05a.516.516,0,0,0,.73,0l2.532-2.532a.516.516,0,1,0-.73-.73L64.61,4.109l-.685-.685a.516.516,0,1,0-.73.73ZM68.5,12.516A.516.516,0,0,0,67.989,12h-3a.516.516,0,1,0,0,1.032h3A.516.516,0,0,0,68.5,12.516Zm0-2.645a.516.516,0,0,0-.516-.516H62.15a.516.516,0,1,0,0,1.032h5.839A.516.516,0,0,0,68.5,9.871Zm0-2.645a.516.516,0,0,0-.516-.516H62.15a.516.516,0,1,0,0,1.032h5.839A.516.516,0,0,0,68.5,7.226Z" transform="translate(-58.988)" fill="#5e5e5e"/></svg>