<svg xmlns="http://www.w3.org/2000/svg" xmlns:xlink="http://www.w3.org/1999/xlink" width="50.449" height="52.561" viewBox="0 0 50.449 52.561"><defs><filter id="a" x="0" y="6.168" width="50.449" height="46.393" filterUnits="userSpaceOnUse"><feOffset dy="3" input="SourceAlpha"/><feGaussianBlur stdDeviation="3" result="b"/><feFlood flood-opacity="0.161"/><feComposite operator="in" in2="b"/><feComposite in="SourceGraphic"/></filter></defs><g transform="translate(1232.512 156.63)"><g transform="translate(-1223.512 -156.63)"><g transform="matrix(1, 0, 0, 1, -9, 0)" filter="url(#a)"><path d="M40.449,16H8V40.337a4.068,4.068,0,0,0,4.056,4.056H36.393a4.068,4.068,0,0,0,4.056-4.056Z" transform="translate(1 -3.83)" fill="#616161"/></g><path d="M36.393,4H12.056A4.068,4.068,0,0,0,8,8.056v9.126H40.449V8.056A4.068,4.068,0,0,0,36.393,4Z" transform="translate(-8 -4)" fill="#424242"/><path d="M36.351,14.1H12.014A.958.958,0,0,1,11,13.084V8.014A.958.958,0,0,1,12.014,7H36.351a.958.958,0,0,1,1.014,1.014v5.07A.958.958,0,0,1,36.351,14.1Z" transform="translate(-7.958 -3.958)" fill="#9ccc65"/><g transform="translate(21.268 6.115)"><rect width="2.052" height="1.944" transform="translate(4.105 0)" fill="#33691e"/><rect width="2.052" height="1.944" transform="translate(0 0)" fill="#33691e"/></g><path d="M36.056,23.056H33.014A.958.958,0,0,1,32,22.042V20.014A.958.958,0,0,1,33.014,19h3.042a.958.958,0,0,1,1.014,1.014v2.028A.958.958,0,0,1,36.056,23.056Z" transform="translate(-7.663 -3.789)" fill="#ff5252"/><g transform="translate(3.042 15.211)"><path d="M15.056,23.056H12.014A.958.958,0,0,1,11,22.042V20.014A.958.958,0,0,1,12.014,19h3.042a.958.958,0,0,1,1.014,1.014v2.028A.958.958,0,0,1,15.056,23.056Z" transform="translate(-11 -19)" fill="#e0e0e0"/><path d="M22.056,23.056H19.014A.958.958,0,0,1,18,22.042V20.014A.958.958,0,0,1,19.014,19h3.042a.958.958,0,0,1,1.014,1.014v2.028A.958.958,0,0,1,22.056,23.056Z" transform="translate(-10.902 -19)" fill="#e0e0e0"/><path d="M29.056,23.056H26.014A.958.958,0,0,1,25,22.042V20.014A.958.958,0,0,1,26.014,19h3.042a.958.958,0,0,1,1.014,1.014v2.028A.958.958,0,0,1,29.056,23.056Z" transform="translate(-10.804 -19)" fill="#e0e0e0"/><path d="M15.056,29.056H12.014A.958.958,0,0,1,11,28.042V26.014A.958.958,0,0,1,12.014,25h3.042a.958.958,0,0,1,1.014,1.014v2.028A.958.958,0,0,1,15.056,29.056Z" transform="translate(-11 -18.916)" fill="#e0e0e0"/><path d="M22.056,29.056H19.014A.958.958,0,0,1,18,28.042V26.014A.958.958,0,0,1,19.014,25h3.042a.958.958,0,0,1,1.014,1.014v2.028A.958.958,0,0,1,22.056,29.056Z" transform="translate(-10.902 -18.916)" fill="#e0e0e0"/><path d="M29.056,29.056H26.014A.958.958,0,0,1,25,28.042V26.014A.958.958,0,0,1,26.014,25h3.042a.958.958,0,0,1,1.014,1.014v2.028A.958.958,0,0,1,29.056,29.056Z" transform="translate(-10.804 -18.916)" fill="#e0e0e0"/><path d="M15.056,35.056H12.014A.958.958,0,0,1,11,34.042V32.014A.958.958,0,0,1,12.014,31h3.042a.958.958,0,0,1,1.014,1.014v2.028A.958.958,0,0,1,15.056,35.056Z" transform="translate(-11 -18.832)" fill="#e0e0e0"/><path d="M22.056,35.056H19.014A.958.958,0,0,1,18,34.042V32.014A.958.958,0,0,1,19.014,31h3.042a.958.958,0,0,1,1.014,1.014v2.028A.958.958,0,0,1,22.056,35.056Z" transform="translate(-10.902 -18.832)" fill="#e0e0e0"/><path d="M29.056,35.056H26.014A.958.958,0,0,1,25,34.042V32.014A.958.958,0,0,1,26.014,31h3.042a.958.958,0,0,1,1.014,1.014v2.028A.958.958,0,0,1,29.056,35.056Z" transform="translate(-10.804 -18.832)" fill="#e0e0e0"/><path d="M15.056,41.056H12.014A.958.958,0,0,1,11,40.042V38.014A.958.958,0,0,1,12.014,37h3.042a.958.958,0,0,1,1.014,1.014v2.028A.958.958,0,0,1,15.056,41.056Z" transform="translate(-11 -18.747)" fill="#e0e0e0"/><path d="M22.056,41.056H19.014A.958.958,0,0,1,18,40.042V38.014A.958.958,0,0,1,19.014,37h3.042a.958.958,0,0,1,1.014,1.014v2.028A.958.958,0,0,1,22.056,41.056Z" transform="translate(-10.902 -18.747)" fill="#e0e0e0"/><path d="M29.056,41.056H26.014A.958.958,0,0,1,25,40.042V38.014A.958.958,0,0,1,26.014,37h3.042a.958.958,0,0,1,1.014,1.014v2.028A.958.958,0,0,1,29.056,41.056Z" transform="translate(-10.804 -18.747)" fill="#e0e0e0"/></g><g transform="translate(24.337 21.295)"><path d="M36.056,29.056H33.014A.958.958,0,0,1,32,28.042V26.014A.958.958,0,0,1,33.014,25h3.042a.958.958,0,0,1,1.014,1.014v2.028A.958.958,0,0,1,36.056,29.056Z" transform="translate(-32 -25)" fill="#bdbdbd"/><path d="M36.056,35.056H33.014A.958.958,0,0,1,32,34.042V32.014A.958.958,0,0,1,33.014,31h3.042a.958.958,0,0,1,1.014,1.014v2.028A.958.958,0,0,1,36.056,35.056Z" transform="translate(-32 -24.916)" fill="#bdbdbd"/><path d="M36.056,41.056H33.014A.958.958,0,0,1,32,40.042V38.014A.958.958,0,0,1,33.014,37h3.042a.958.958,0,0,1,1.014,1.014v2.028A.958.958,0,0,1,36.056,41.056Z" transform="translate(-32 -24.832)" fill="#bdbdbd"/></g></g><g transform="translate(-1206.43 -135.488)" fill="#ff6680" stroke="#fff" stroke-width="1"><circle cx="11.929" cy="11.929" r="11.929" stroke="none"/><circle cx="11.929" cy="11.929" r="11.429" fill="none"/></g><path d="M8.395-1.167A3.761,3.761,0,0,1,8.142.142a6.545,6.545,0,0,1-.689,1.34A8.639,8.639,0,0,1,6.435,2.737,8.082,8.082,0,0,1,5.2,3.778,6.74,6.74,0,0,1,3.87,4.49a3.608,3.608,0,0,1-1.324.268,8.926,8.926,0,0,1-1.133-.077,2.947,2.947,0,0,1-1.095-.36,2.246,2.246,0,0,1-.827-.85A3.118,3.118,0,0,1-.838,1.91v-4.3h-.674l-1.516-1.5h2.19V-5.256q0-.383.038-.85a3.5,3.5,0,0,0-.031-.873,1.373,1.373,0,0,0-.306-.681.991.991,0,0,0-.789-.276,2.663,2.663,0,0,0-.345.023.636.636,0,0,0-.314.13l-.505-1.439a6.315,6.315,0,0,1,.758-.26,2.966,2.966,0,0,1,.789-.107,2.342,2.342,0,0,1,1.164.253,1.9,1.9,0,0,1,.7.666,2.563,2.563,0,0,1,.337.949A7.2,7.2,0,0,1,.739-6.6v2.68h.505l1.47,1.531H.739V1.88A1.121,1.121,0,0,0,1.2,2.9a2.036,2.036,0,0,0,1.133.3,2.792,2.792,0,0,0,1.347-.367,4.913,4.913,0,0,0,1.2-.919,4.657,4.657,0,0,0,.842-1.2,2.331,2.331,0,0,0,.268-1.2L5.975-.6l-.322.015a2.308,2.308,0,0,1-.8-.077,1.9,1.9,0,0,1-.658-.329,1.584,1.584,0,0,1-.452-.574,1.86,1.86,0,0,1-.168-.812,2.324,2.324,0,0,1,.513-1.592,1.944,1.944,0,0,1,1.539-.582,2.987,2.987,0,0,1,1.324.26,2.207,2.207,0,0,1,.85.72,2.992,2.992,0,0,1,.459,1.079A6.1,6.1,0,0,1,8.395-1.167Z" transform="translate(-1196.479 -121.117)" fill="#fff" stroke="#fff" stroke-width="0.4"/></g></svg>