<svg xmlns="http://www.w3.org/2000/svg" xmlns:xlink="http://www.w3.org/1999/xlink" width="138" height="81" viewBox="0 0 138 81"><defs><filter id="a" x="0" y="0" width="138" height="81" filterUnits="userSpaceOnUse"><feOffset dy="3" input="SourceAlpha"/><feGaussianBlur stdDeviation="3" result="b"/><feFlood flood-opacity="0.161"/><feComposite operator="in" in2="b"/><feComposite in="SourceGraphic"/></filter></defs><g transform="translate(9 6)"><g transform="matrix(1, 0, 0, 1, -9, -6)" filter="url(#a)"><rect width="120" height="63" rx="5" transform="translate(9 6)" fill="#fff"/></g><rect width="120" height="63" rx="5" fill="#ffe6e2"/><g transform="translate(-10.063 -13.063)"><path d="M160.093,132.242l-2.6-2.6A5.623,5.623,0,0,0,153.52,128H131.865A3.866,3.866,0,0,0,128,131.865v26.007a3.867,3.867,0,0,0,3.865,3.867h26.007a3.867,3.867,0,0,0,3.867-3.865V136.219a5.623,5.623,0,0,0-1.647-3.977Zm-9.6,4.544a1.054,1.054,0,0,1-1.054,1.054H134.678a1.055,1.055,0,0,1-1.054-1.054v-3.515a1.055,1.055,0,0,1,1.054-1.054h14.761a1.055,1.055,0,0,1,1.054,1.054Zm0,0" transform="translate(-106 -101)" fill="#fc573b"/><path d="M220.652,251.654a6.326,6.326,0,1,1-6.326-6.326A6.327,6.327,0,0,1,220.652,251.654Zm0,0" transform="translate(-175.605 -206.882)" fill="#fd907e"/></g><text transform="translate(80 39)" fill="#fc573b" font-size="18" font-family="Roboto-Medium, Roboto" font-weight="500"><tspan x="-19.459" y="0">Save</tspan></text></g></svg>