<svg xmlns="http://www.w3.org/2000/svg" width="45" height="45" viewBox="0 0 45 45"><g transform="translate(-0.002 0)"><g transform="translate(0.002 3)"><path d="M3,33.133a3,3,0,0,0-3,3v24l.453,1.555L0,63.133H45l-1.268-1.479L45,60.133v-24a3,3,0,0,0-3-3H3Z" transform="translate(-0.002 -33.133)" fill="#5b7fa0"/><path d="M445.947,63.134l-1-1.479,1-1.521v-24a3,3,0,0,0-3-3h-2.082a3,3,0,0,1,3,3v27h2.082Z" transform="translate(-400.948 -33.134)" fill="#4a6f99"/><path d="M190.841,396.233l-.75-6V389.5h-11.25v.733l-.75,6v.842h12.75Z" transform="translate(-161.966 -357.233)" fill="#bec8f7"/><path d="M228.113,394.459h-3a.679.679,0,0,1-.679-.679v-3a.679.679,0,0,1,1.358,0V393.1h1.642V390.78a.679.679,0,0,1,1.358,0v3A.679.679,0,0,1,228.113,394.459Z" transform="translate(-204.113 -357.78)" fill="#a2b6f4"/><path d="M33.133,90.268V67.018a.75.75,0,0,1,.75-.75h37.5a.75.75,0,0,1,.75.75v23.25Z" transform="translate(-30.133 -63.268)" fill="#77dfff"/><path d="M434.665,66.268h-2.083a.75.75,0,0,1,.75.75v23.25h2.083V67.018A.75.75,0,0,0,434.665,66.268Z" transform="translate(-393.415 -63.268)" fill="#69cdff"/><path d="M152.81,463.868H133.258a.724.724,0,0,0-.724.724v1.551a.724.724,0,0,0,.724.724H152.81a.724.724,0,0,0,.724-.724v-1.551A.724.724,0,0,0,152.81,463.868Z" transform="translate(-120.534 -424.868)" fill="#e9efff"/><path d="M335.549,463.868h-2.082a.724.724,0,0,1,.724.724v1.551a.724.724,0,0,1-.724.724h2.082a.724.724,0,0,0,.724-.724v-1.551A.724.724,0,0,0,335.549,463.868Z" transform="translate(-303.274 -424.868)" fill="#d3dcfb"/><path d="M45,334.335l-.634-1.582L45,331.335H0v3a3,3,0,0,0,3,3H42a3,3,0,0,0,3-3Z" transform="translate(-0.002 -304.335)" fill="#e9efff"/><path d="M443.865,334.335a3,3,0,0,1-3,3h2.082a3,3,0,0,0,3-3v-3h-2.082Z" transform="translate(-400.948 -304.335)" fill="#d3dcfb"/></g><g transform="translate(6.846 12.844)"><path d="M77,176.3H80.84a.656.656,0,0,0,0-1.312H77a1.407,1.407,0,0,0-1.406,1.406v4.5A1.407,1.407,0,0,0,77,182.3H80.84a.656.656,0,0,0,0-1.312H77a.094.094,0,0,1-.094-.094V179.3h2.344a.656.656,0,1,0,0-1.312H76.9v-1.594A.094.094,0,0,1,77,176.3Z" transform="translate(-75.59 -171.989)" fill="#e9efff"/><path d="M161.614,191.555h-1.5a.656.656,0,0,0,0,1.312h1.5a.656.656,0,1,0,0-1.312Z" transform="translate(-151.864 -187.055)" fill="#e9efff"/><path d="M161.614,224.689h-1.5a.656.656,0,0,0,0,1.312h1.5a.656.656,0,0,0,0-1.312Z" transform="translate(-151.864 -217.189)" fill="#e9efff"/><path d="M213.28,191.555a2.148,2.148,0,0,0-1.5.61,2.15,2.15,0,0,0-2.491-.367.656.656,0,0,0-1.165.414v4.5a.656.656,0,0,0,1.312,0v-3a.844.844,0,0,1,1.688,0v3a.656.656,0,1,0,1.312,0v-3a.844.844,0,0,1,1.688,0v3a.656.656,0,1,0,1.312,0v-3A2.158,2.158,0,0,0,213.28,191.555Z" transform="translate(-196.124 -187.055)" fill="#e9efff"/><path d="M312.544,195.472a.656.656,0,0,0-.926.051,1.594,1.594,0,1,1,0-2.126.656.656,0,1,0,.977-.875,2.906,2.906,0,1,0,0,3.875A.656.656,0,0,0,312.544,195.472Z" transform="translate(-286.524 -187.055)" fill="#e9efff"/><path d="M377.444,146.355h-1.032l.816-.612a2.156,2.156,0,1,0-3.44-1.732.656.656,0,1,0,1.312,0,.844.844,0,1,1,1.344.681l-2.393,1.795a.656.656,0,0,0,.394,1.18h3a.656.656,0,0,0,0-1.312Z" transform="translate(-346.788 -141.855)" fill="#e9efff"/></g><path d="M165.651,12h-15.1a1.449,1.449,0,0,1-1.449-1.449v-9.1A1.449,1.449,0,0,1,150.549,0h15.1A1.449,1.449,0,0,1,167.1,1.449v9.1A1.449,1.449,0,0,1,165.651,12Z" transform="translate(-135.598 0)" fill="#ff6c6c"/><path d="M220.486,42.566V38.993a.75.75,0,0,1,1.085-.671l3.573,1.787a.75.75,0,0,1,0,1.342l-3.573,1.786A.75.75,0,0,1,220.486,42.566Z" transform="translate(-200.521 -34.779)" fill="#e9efff"/><path d="M310.982,0H308.9a1.449,1.449,0,0,1,1.449,1.449v9.1A1.449,1.449,0,0,1,308.9,12h2.082a1.449,1.449,0,0,0,1.449-1.449v-9.1A1.449,1.449,0,0,0,310.982,0Z" transform="translate(-280.929 0)" fill="#f74242"/></g></svg>