<svg xmlns="http://www.w3.org/2000/svg" width="14.182" height="16" viewBox="0 0 14.182 16">
  <g id="logout_1_" data-name="logout (1)" transform="translate(0 -0.023)">
    <g id="Group_14856" data-name="Group 14856" transform="translate(0 0.023)">
      <g id="Group_14855" data-name="Group 14855" transform="translate(0 0)">
        <path id="Path_19440" data-name="Path 19440" d="M102.667,221.782a.267.267,0,0,0-.267.267v1.6a.267.267,0,0,0,.533,0v-1.6A.267.267,0,0,0,102.667,221.782Z" transform="translate(-99.2 -214.851)" fill="#2262c6"/>
        <path id="Path_19441" data-name="Path 19441" d="M3.5.094.974,1.1A1.233,1.233,0,0,0,0,2.42v11.2a1.23,1.23,0,0,0,.968,1.315L3.5,15.951a1.056,1.056,0,0,0,.374.071A.97.97,0,0,0,4.8,14.957V1.086A.956.956,0,0,0,3.5.094Zm.771,14.863c0,.318-.157.532-.392.532a.528.528,0,0,1-.181-.035L1.16,14.44c-.5-.186-.626-.347-.626-.817V2.42c0-.47.123-.63.633-.819L3.689.592A.531.531,0,0,1,3.875.555c.234,0,.392.214.392.532Z" transform="translate(0 -0.023)" fill="#2262c6"/>
        <path id="Path_19442" data-name="Path 19442" d="M169.867,34.581h3.767a.8.8,0,0,1,.8.8v4a.267.267,0,1,0,.533,0v-4a1.335,1.335,0,0,0-1.333-1.333h-3.767a.267.267,0,0,0,0,.533Z" transform="translate(-164.299 -32.985)" fill="#2262c6"/>
        <path id="Path_19443" data-name="Path 19443" d="M175.734,298.582a.267.267,0,0,0-.267.267v4a.8.8,0,0,1-.8.8h-3.734a.267.267,0,1,0,0,.533h3.734A1.335,1.335,0,0,0,176,302.849v-4A.267.267,0,0,0,175.734,298.582Z" transform="translate(-165.333 -289.251)" fill="#2262c6"/>
        <path id="Path_19444" data-name="Path 19444" d="M196.032,164.87a.276.276,0,0,0-.047-.087l-2.188-2.667a.192.192,0,0,0-.309,0,.309.309,0,0,0,0,.377l1.815,2.212h-7.349a.272.272,0,0,0,0,.533H195.3l-1.815,2.212a.309.309,0,0,0,0,.377.192.192,0,0,0,.309,0l2.188-2.667a.276.276,0,0,0,.047-.087A.321.321,0,0,0,196.032,164.87Z" transform="translate(-181.867 -156.974)" fill="#2262c6"/>
      </g>
    </g>
  </g>
</svg>
