<svg xmlns="http://www.w3.org/2000/svg" width="46.868" height="45" viewBox="0 0 46.868 45"><g transform="translate(781.867 1622)"><g transform="translate(-765.664 -1612.297)"><path d="M198.872,0h18.522a6.068,6.068,0,0,1,6.071,6.071V33.853a1.442,1.442,0,0,1-2.306,1.153l-5.79-4.342h-16.5a6.068,6.068,0,0,1-6.071-6.071V6.071A6.068,6.068,0,0,1,198.872,0Zm0,0" transform="translate(-192.801 0)" fill="#c2dfff"/><path d="M258.507,208.867h6.276a1.441,1.441,0,0,1,0,2.882h-6.276a1.441,1.441,0,1,1,0-2.882Zm0,0" transform="translate(-241.733 -188.802)" fill="#3ab4fb"/><path d="M358.47,0h9.261V30.664H358.47a6.067,6.067,0,0,1-6.071-6.071V6.071A6.068,6.068,0,0,1,358.47,0Zm0,0" transform="translate(-352.399 0)" fill="#a8d4ff"/><path d="M258.507,80.332h15.435a1.441,1.441,0,0,1,0,2.882H258.507a1.441,1.441,0,0,1,0-2.882Zm0,0" transform="translate(-250.892 -72.615)" fill="#3ab4fb"/><path d="M258.507,144.6h15.435a1.441,1.441,0,0,1,0,2.882H258.507a1.441,1.441,0,0,1,0-2.882Zm0,0" transform="translate(-250.892 -130.71)" fill="#3ab4fb"/><path d="M352.4,81.769a1.44,1.44,0,0,0,1.441,1.441h7.717V80.328h-7.717A1.441,1.441,0,0,0,352.4,81.769Zm0,0" transform="translate(-346.224 -72.611)" fill="#1d9cfd"/><path d="M352.4,146.043a1.441,1.441,0,0,0,1.441,1.441h7.717V144.6h-7.717A1.441,1.441,0,0,0,352.4,146.043Zm0,0" transform="translate(-346.224 -130.71)" fill="#1d9cfd"/></g><g transform="translate(-781.867 -1622)"><path d="M215.63,15.748a15.749,15.749,0,1,0-26.1,11.869.684.684,0,0,1-.1,1.1l-2.968,1.756a.548.548,0,0,0,.279,1.019l13.438,0a15.748,15.748,0,0,0,15.45-15.745Z" transform="translate(-184.133 0)" fill="#7acaa6"/><path d="M224.12,0q-.632.009-1.251.068a15.748,15.748,0,0,1-1.188,31.423l-10.477,0h.009l13.438,0A15.748,15.748,0,0,0,224.12,0Z" transform="translate(-208.603 0)" fill="#57be92"/><g transform="translate(9.78 4.488)"><circle cx="1.485" cy="1.485" r="1.485" transform="translate(4.497 19.552)" fill="#fff"/><path d="M291.907,63.343a1.485,1.485,0,0,1-1.485-1.485V57.17a1.485,1.485,0,0,1,1.485-1.485,3,3,0,0,0,3-3.161,3.006,3.006,0,0,0-2.933-2.837h-.061a3,3,0,0,0-2.971,2.579,3.05,3.05,0,0,0-.029.42,1.485,1.485,0,0,1-2.969,0,5.968,5.968,0,0,1,11.928-.315,5.92,5.92,0,0,1-1.632,4.424,6,6,0,0,1-2.843,1.67v3.393A1.484,1.484,0,0,1,291.907,63.343Z" transform="translate(-285.939 -46.717)" fill="#fff"/></g></g></g></svg>