<svg xmlns="http://www.w3.org/2000/svg" width="45" height="45" viewBox="0 0 45 45"><g transform="translate(-11 -11)"><path d="M57.182,73H18.833V85.17H57.182c1.837,0,3.325-2.724,3.325-6.085S59.019,73,57.182,73Z" transform="translate(-4.508 -35.679)" fill="#fcd088"/><path d="M17.652,79.085c0,3.362-1.49,6.083-3.328,6.083S11,82.447,11,79.085,12.49,73,14.324,73,17.652,75.722,17.652,79.085Z" transform="translate(0 -35.679)" fill="#ecd6b2"/><path d="M21.094,87.333c0,3.362-1.49,6.083-3.328,6.083-1.766-4.173,0-6.083,0-6.083Z" transform="translate(-3.442 -43.927)" fill="#f7ecda"/><path d="M83.175,73H64l4.1,6.085L64,85.17H83.175c1.837,0,3.325-2.724,3.325-6.085S85.011,73,83.175,73Z" transform="translate(-30.5 -35.679)" fill="#ecd6b2"/><path d="M34.5,26.285v14.36c0,.672,5.606,1.945,12.524,1.945s12.524-1.274,12.524-1.945V26.285Z" transform="translate(-13.524 -8.796)" fill="#1db6bc"/><path d="M64,42.59c6.916,0,12.524-1.274,12.524-1.945V26.285H64Z" transform="translate(-30.5 -8.796)" fill="#17799b"/><path d="M63.3,73H59.372c1.837,0,3.325,2.724,3.325,6.085s-1.489,6.085-3.325,6.085H63.3c1.837,0,3.325-2.724,3.325-6.085S65.138,73,63.3,73Z" transform="translate(-27.837 -35.679)" fill="#fd9e35"/><path d="M52.115,108.174l-1.322-1.837-3.02,1.837,2.547-6.511h4.341Z" transform="translate(-21.162 -52.174)" fill="#fed33c"/><path d="M66.547,108.174l1.322-1.837,3.02,1.837-2.547-6.511H64Z" transform="translate(-30.5 -52.174)" fill="#fd9e35"/><path d="M37.8,11l-19.33,6.489L37.8,23.977l19.33-6.488Z" transform="translate(-4.298)" fill="#606de0"/><path d="M104.444,25.9a.743.743,0,0,0-.743.743V41.411a.743.743,0,1,0,1.486,0V26.645a.743.743,0,0,0-.743-.745Z" transform="translate(-53.347 -8.575)" fill="#714437"/><path d="M83.33,17.489,64,11V23.977Z" transform="translate(-30.5)" fill="#3647d7"/><path d="M104.835,69.61,103.1,68.091,101.37,69.61V62.438h3.465Z" transform="translate(-52.005 -29.601)" fill="#fd9e35"/></g></svg>