<svg xmlns="http://www.w3.org/2000/svg" width="13.417" height="16" viewBox="0 0 13.417 16"><g transform="translate(-37.452)"><g transform="translate(37.452)"><g transform="translate(0)"><path d="M86.3,2.768c.154.087,1.194.589,1.7.831,0,.195.006.532.013.538.055.483.15,1.019.178,1.17-.046.025-.28.179-.28.656v.008c0,.013,0,.025,0,.038.1,1.327.629.755.738,1.336a2.888,2.888,0,0,0,1.569,1.907,2.218,2.218,0,0,0,1.915,0A2.888,2.888,0,0,0,93.7,7.345c.109-.581.637-.009.738-1.336,0-.013,0-.026,0-.038V5.963c0-.477-.235-.631-.28-.656.028-.151.123-.688.178-1.17.007-.006.011-.343.013-.538.276-.133.714-.344,1.078-.522V4.359a.33.33,0,0,0-.034.559s-.146.823-.194,1.065.835.193.795,0S95.8,4.918,95.8,4.918a.33.33,0,0,0-.033-.559V2.909c.136-.067.237-.119.277-.141.109-.061.168-.14.156-.222.015-.085-.047-.177-.212-.258C94.809,1.71,91.8.238,91.5.1a.608.608,0,0,0-.655,0c-.3.142-3.307,1.615-4.487,2.192-.165.081-.227.173-.212.258C86.136,2.628,86.195,2.706,86.3,2.768Z" transform="translate(-84.467)" fill="#5e5e5e"/><path d="M48.166,295.523a14.8,14.8,0,0,1-1.687-.866.29.29,0,0,0-.409.127c-.458.766-1.307,3-1.9,3.037h-.022c-.592-.041-1.441-2.27-1.9-3.037a.29.29,0,0,0-.409-.127,14.8,14.8,0,0,1-1.687.866c-1.864.672-2.7,1.358-2.7,1.825v3.108H50.869v-3.108C50.869,296.881,50.03,296.2,48.166,295.523Z" transform="translate(-37.452 -284.456)" fill="#5e5e5e"/></g></g></g></svg>