<svg xmlns="http://www.w3.org/2000/svg" xmlns:xlink="http://www.w3.org/1999/xlink" width="56.246" height="57" viewBox="0 0 56.246 57"><defs><filter id="a" x="0" y="24.375" width="54" height="32.625" filterUnits="userSpaceOnUse"><feOffset dy="3" input="SourceAlpha"/><feGaussianBlur stdDeviation="3" result="b"/><feFlood flood-opacity="0.161"/><feComposite operator="in" in2="b"/><feComposite in="SourceGraphic"/></filter></defs><g transform="translate(9)"><path d="M22.625,39.625c-5.4,0-5.625-7.875-5.625-7.875V25H28.25v6.75S28.025,39.625,22.625,39.625Z" transform="translate(-4.625 -1.375)" fill="#ff9800"/><g transform="translate(5.566 14.574)"><circle cx="2.277" cy="2.277" r="2.277" transform="translate(20.252 0)" fill="#ffa726"/><circle cx="2.277" cy="2.277" r="2.277" transform="translate(0 0)" fill="#ffa726"/></g><path d="M33.25,13.6c0-8.55-20.25-5.625-20.25,0v7.875a10.125,10.125,0,1,0,20.25,0Z" transform="translate(-5.125 -3.472)" fill="#ffb74d"/><path d="M23.25,4C16.388,4,12,9.512,12,16.375v2.588l2.25,1.912V15.25l13.5-4.5,4.5,4.5v5.625l2.25-1.912V16.375c0-4.5-1.125-9-6.75-10.125L26.625,4H23.25Z" transform="translate(-5.25 -4)" fill="#424242"/><g transform="translate(12.397 15.772)"><circle cx="1.138" cy="1.138" r="1.138" transform="translate(8.988 0)" fill="#784719"/><circle cx="1.138" cy="1.138" r="1.138" transform="translate(0 0)" fill="#784719"/></g><g transform="matrix(1, 0, 0, 1, -9, 0)" filter="url(#a)"><path d="M29.625,31h0a8.156,8.156,0,0,1-11.25,0S6,33.25,6,45.625H42C42,33.25,29.625,31,29.625,31Z" transform="translate(3 -0.62)" fill="#009688"/></g><g transform="translate(31.497 0.074)"><rect width="11.137" height="11.137" transform="translate(7.874 0) rotate(45)" fill="#ff9800"/><rect width="11.265" height="11.265" transform="translate(2.231 2.157)" fill="#ff9800"/></g><circle cx="3.355" cy="3.355" r="3.355" transform="translate(36.005 4.507)" fill="#ffeb3b"/></g></svg>