<svg xmlns="http://www.w3.org/2000/svg" xmlns:xlink="http://www.w3.org/1999/xlink" width="48.007" height="48" viewBox="0 0 48.007 48">
  <defs>
    <filter id="Path_19336" x="0" y="0" width="48.007" height="48" filterUnits="userSpaceOnUse">
      <feOffset dy="3" input="SourceAlpha"/>
      <feGaussianBlur stdDeviation="3" result="blur"/>
      <feFlood flood-opacity="0.161"/>
      <feComposite operator="in" in2="blur"/>
      <feComposite in="SourceGraphic"/>
    </filter>
  </defs>
  <g id="surface1" transform="translate(9.003 6)">
    <g transform="matrix(1, 0, 0, 1, -9, -6)" filter="url(#Path_19336)">
      <path id="Path_19336-2" data-name="Path 19336" d="M29.121,2.165h-3.85q.021-.64.022-1.286A.879.879,0,0,0,24.414,0H5.586a.879.879,0,0,0-.879.879q0,.646.022,1.286H.879A.879.879,0,0,0,0,3.044,19.05,19.05,0,0,0,2.9,13.506c1.847,2.777,4.308,4.369,6.966,4.524a9.026,9.026,0,0,0,1.9,1.6v3.906H10.293A3.236,3.236,0,0,0,7.06,26.769v1.474H7A.879.879,0,1,0,7,30H23a.879.879,0,0,0,0-1.758h-.06V26.768a3.236,3.236,0,0,0-3.233-3.233H18.233V19.629a9.025,9.025,0,0,0,1.9-1.6c2.658-.155,5.119-1.748,6.966-4.524A19.049,19.049,0,0,0,30,3.044a.879.879,0,0,0-.879-.879ZM4.362,12.533a16.939,16.939,0,0,1-2.585-8.61h3.05a29.371,29.371,0,0,0,2.73,10.663q.352.7.734,1.329a8.477,8.477,0,0,1-3.929-3.382Zm21.277,0a8.477,8.477,0,0,1-3.93,3.382q.382-.626.734-1.329a29.376,29.376,0,0,0,2.73-10.663h3.051a16.94,16.94,0,0,1-2.585,8.61Zm0,0" transform="translate(9 6)" fill="#ff6680"/>
    </g>
  </g>
</svg>
