<svg xmlns="http://www.w3.org/2000/svg" width="47.567" height="45" viewBox="0 0 47.567 45"><g transform="translate(209.347 1112.286)"><g transform="translate(-209.347 -1112.286)"><path d="M12,42.879V20H48.607V42.879a4.589,4.589,0,0,1-4.576,4.576H16.576A4.589,4.589,0,0,1,12,42.879Z" transform="translate(-12 -8.56)" fill="#cfd8dc"/><path d="M48.607,16.576V23.44H12V16.576A4.589,4.589,0,0,1,16.576,12H44.031A4.589,4.589,0,0,1,48.607,16.576Z" transform="translate(-12 -9.712)" fill="#78909c"/><g transform="translate(5.77 3.447)"><ellipse cx="3.473" cy="3.412" rx="3.473" ry="3.412" transform="translate(19.375 0)" fill="#37474f"/><circle cx="3.412" cy="3.412" r="3.412" transform="translate(0 0)" fill="#37474f"/></g><g transform="translate(6.864 0)"><path d="M37.288,10A2.3,2.3,0,0,0,35,12.288v4.576a2.288,2.288,0,0,0,4.576,0V12.288A2.3,2.3,0,0,0,37.288,10Z" transform="translate(-15.553 -10)" fill="#b0bec5"/><path d="M20.288,10A2.3,2.3,0,0,0,18,12.288v4.576a2.288,2.288,0,0,0,4.576,0V12.288A2.3,2.3,0,0,0,20.288,10Z" transform="translate(-18 -10)" fill="#b0bec5"/></g><rect width="4.631" height="4.631" transform="translate(22.83 27.453)" fill="#90a4ae"/><rect width="4.631" height="4.631" transform="translate(16.006 27.453)" fill="#90a4ae"/><rect width="4.509" height="4.631" transform="translate(9.182 27.453)" fill="#90a4ae"/><rect width="4.631" height="4.509" transform="translate(22.83 20.629)" fill="#90a4ae"/><rect width="4.631" height="4.509" transform="translate(16.006 20.629)" fill="#90a4ae"/><rect width="4.509" height="4.509" transform="translate(9.182 20.629)" fill="#90a4ae"/></g><g transform="translate(-189.198 -1094.703)"><circle cx="13.709" cy="13.709" r="13.709" transform="translate(0)" fill="#f44336"/><circle cx="10.297" cy="10.297" r="10.297" transform="translate(3.412 3.412)" fill="#eee"/><rect width="2.315" height="8.043" transform="translate(12.551 5.727)"/><rect width="2.174" height="6.177" transform="translate(18.842 17.275) rotate(135)"/><circle cx="1.716" cy="1.716" r="1.716" transform="translate(11.957 12.012)"/></g></g></svg>