<svg xmlns="http://www.w3.org/2000/svg" width="13.42" height="16" viewBox="0 0 13.42 16">
  <g id="Updateinfo" transform="translate(0 -1)">
    <path id="Path_1" data-name="Path 1" d="M11.742,1H1.678A1.982,1.982,0,0,0,0,3.182V14.818A1.982,1.982,0,0,0,1.678,17H11.742a1.982,1.982,0,0,0,1.678-2.182V3.182A1.982,1.982,0,0,0,11.742,1Zm0,14.545H1.678a.661.661,0,0,1-.559-.727V4.636H12.3V14.818A.661.661,0,0,1,11.742,15.545Z" fill="#5e5e5e"/>
    <path id="Path_2" data-name="Path 2" d="M7.156,11.636A.729.729,0,0,1,6.49,10.62a4.361,4.361,0,0,1,7.994-.005c.163.367-1.167.956-1.329.59a2.932,2.932,0,0,0-2.673-1.75A2.89,2.89,0,0,0,7.825,11.2a.728.728,0,0,1-.668.439Z" transform="translate(-3.764 -1.909)" fill="#5e5e5e"/>
    <path id="Path_3" data-name="Path 3" d="M10.493,18.636a4.369,4.369,0,0,1-4-2.617c-.161-.368,1.172-.951,1.332-.583a2.918,2.918,0,0,0,5.345,0,.727.727,0,1,1,1.329.589,4.387,4.387,0,0,1-4,2.615Z" transform="translate(-3.795 -3.818)" fill="#5e5e5e"/>
    <path id="Path_4" data-name="Path 4" d="M16.045,11.773H14.227a.727.727,0,0,1-.514-1.241l1.818-1.818a.727.727,0,0,1,1.241.514v1.818A.727.727,0,0,1,16.045,11.773Z" transform="translate(-6.475 -2.045)" fill="#5e5e5e"/>
    <path id="Path_5" data-name="Path 5" d="M6.727,18.273a.718.718,0,0,1-.279-.055A.727.727,0,0,1,6,17.545V15.727A.727.727,0,0,1,6.727,15H8.545a.727.727,0,0,1,.514,1.241L7.241,18.06A.728.728,0,0,1,6.727,18.273Z" transform="translate(-2.878 -3.818)" fill="#5e5e5e"/>
  </g>
</svg>
