<svg xmlns="http://www.w3.org/2000/svg" width="126.172" height="120.005" viewBox="0 0 126.172 120.005">
  <g id="update1" transform="translate(-0.5)">
    <path id="Path_19343" data-name="Path 19343" d="M141.406,212.765H30.383V138.744a5.7,5.7,0,0,1,5.7-5.7h99.625a5.7,5.7,0,0,1,5.7,5.7Zm0,0" transform="translate(-22.507 -100.204)" fill="#e7e7e7"/>
    <path id="Path_19344" data-name="Path 19344" d="M441.838,138.748v74.02h-6.864v-74.02a5.7,5.7,0,0,0-5.7-5.7h6.864A5.7,5.7,0,0,1,441.838,138.748Zm0,0" transform="translate(-322.938 -100.207)" fill="#cecece"/>
    <path id="Path_19345" data-name="Path 19345" d="M161.909,240.223H70.875V171.6a2.1,2.1,0,0,1,2.1-2.1h86.834a2.1,2.1,0,0,1,2.1,2.1Zm0,0" transform="translate(-53.004 -127.662)" fill="#c9f0ff"/>
    <path id="Path_19346" data-name="Path 19346" d="M412.948,171.6v68.622h-6.66V171.6a2.1,2.1,0,0,0-2.1-2.1h6.661A2.1,2.1,0,0,1,412.948,171.6Zm0,0" transform="translate(-304.044 -127.659)" fill="#9ae7fd"/>
    <path id="Path_19347" data-name="Path 19347" d="M120.064,451.9H6.711C3.281,451.9.5,450.128.5,447.941v-6.3c0-.536.681-.97,1.521-.97H124.755c.84,0,1.521.434,1.521.97v6.3c0,2.188-2.781,3.961-6.211,3.961Zm0,0" transform="translate(0 -331.902)" fill="#838383"/>
    <path id="Path_19348" data-name="Path 19348" d="M472.256,440.676c.84,0,1.521.434,1.521.97v6.3c0,2.187-2.78,3.961-6.211,3.961h-5.678c3.43,0,6.21-1.774,6.21-3.961v-7.265Zm0,0" transform="translate(-347.501 -331.902)" fill="#5a5a5a"/>
    <path id="Path_19349" data-name="Path 19349" d="M194.873,440.676H169.668l2.976,6.811a1.274,1.274,0,0,0,1.167.763h33.977a1.274,1.274,0,0,0,1.167-.763l2.976-6.811Zm0,0" transform="translate(-127.412 -331.902)" fill="#acacac"/>
    <path id="Path_19350" data-name="Path 19350" d="M315.718,440.676l-2.975,6.81a1.274,1.274,0,0,1-1.167.764h-4.107a1.443,1.443,0,0,0,.11-.2l3.22-7.373Zm0,0" transform="translate(-231.199 -331.902)" fill="#9c9c9c"/>
    <path id="Path_19351" data-name="Path 19351" d="M102.03,198.033a2.125,2.125,0,0,1-.373-.035,1.951,1.951,0,0,1-.685-.284,2.192,2.192,0,0,1-.288-.235,2.148,2.148,0,0,1-.236-.289,1.921,1.921,0,0,1-.175-.33,1.88,1.88,0,0,1-.106-.355,1.788,1.788,0,0,1-.039-.372,1.769,1.769,0,0,1,.039-.37,1.966,1.966,0,0,1,.106-.357,1.889,1.889,0,0,1,.411-.616,1.87,1.87,0,0,1,.288-.236,2.072,2.072,0,0,1,.33-.175,1.957,1.957,0,0,1,.355-.109,1.822,1.822,0,0,1,.743,0,1.975,1.975,0,0,1,.357.109,1.893,1.893,0,0,1,.327.175,1.71,1.71,0,0,1,.289.236,1.689,1.689,0,0,1,.235.288,1.881,1.881,0,0,1,.175.328,1.976,1.976,0,0,1,.109.357,1.83,1.83,0,0,1,0,.742,1.889,1.889,0,0,1-.109.355,1.8,1.8,0,0,1-.175.33,1.775,1.775,0,0,1-.235.289,1.973,1.973,0,0,1-.289.235,1.9,1.9,0,0,1-.327.175,1.978,1.978,0,0,1-.357.109A2.085,2.085,0,0,1,102.03,198.033Zm0,0" transform="translate(-75.037 -146.289)" fill="#5a5a5a"/>
    <path id="Path_19352" data-name="Path 19352" d="M128.8,198.033a2.107,2.107,0,0,1-.372-.035,1.939,1.939,0,0,1-.355-.109,2.04,2.04,0,0,1-.33-.175,2.138,2.138,0,0,1-.289-.235,2,2,0,0,1-.235-.289,1.928,1.928,0,0,1-.175-.33,1.962,1.962,0,0,1-.109-.355,2.088,2.088,0,0,1-.036-.372,1.863,1.863,0,0,1,.145-.727,2.019,2.019,0,0,1,.175-.328,1.853,1.853,0,0,1,.525-.525,2.032,2.032,0,0,1,.33-.175,1.869,1.869,0,0,1,.355-.109,1.817,1.817,0,0,1,.742,0,1.952,1.952,0,0,1,.357.109,2.015,2.015,0,0,1,.328.175,1.868,1.868,0,0,1,.288.236,1.741,1.741,0,0,1,.236.288,1.812,1.812,0,0,1,.175.328,1.974,1.974,0,0,1,.109.357,1.769,1.769,0,0,1,.039.37,1.787,1.787,0,0,1-.039.372,1.888,1.888,0,0,1-.109.355,1.737,1.737,0,0,1-.175.33,1.833,1.833,0,0,1-.236.289,2.189,2.189,0,0,1-.288.235,2.019,2.019,0,0,1-.328.175,1.955,1.955,0,0,1-.357.109,2.066,2.066,0,0,1-.371.036Zm0,0" transform="translate(-95.199 -146.289)" fill="#5a5a5a"/>
    <path id="Path_19353" data-name="Path 19353" d="M155.572,198.033A2.086,2.086,0,0,1,155.2,198a1.931,1.931,0,0,1-.685-.284,2.138,2.138,0,0,1-.289-.235,2,2,0,0,1-.235-.289,1.924,1.924,0,0,1-.175-.33,1.959,1.959,0,0,1-.109-.355,1.849,1.849,0,0,1-.035-.372,1.831,1.831,0,0,1,.035-.37,2.053,2.053,0,0,1,.109-.357,2.018,2.018,0,0,1,.175-.328,1.9,1.9,0,0,1,.235-.288,1.833,1.833,0,0,1,.289-.236,1.945,1.945,0,0,1,.329-.175,1.9,1.9,0,0,1,.356-.109,1.817,1.817,0,0,1,.742,0,2.009,2.009,0,0,1,.358.109,2.045,2.045,0,0,1,.327.175,1.853,1.853,0,0,1,.525.525,2.018,2.018,0,0,1,.175.328,1.976,1.976,0,0,1,.109.357,1.768,1.768,0,0,1,.039.37,1.853,1.853,0,0,1-.039.372,1.89,1.89,0,0,1-.109.355,1.924,1.924,0,0,1-.175.33,2,2,0,0,1-.235.289,2.138,2.138,0,0,1-.289.235,2.054,2.054,0,0,1-.327.175,1.987,1.987,0,0,1-.358.109,2.093,2.093,0,0,1-.371.032Zm0,0" transform="translate(-115.364 -146.289)" fill="#5a5a5a"/>
    <path id="Path_19354" data-name="Path 19354" d="M172.358,224.127H97.167a1.9,1.9,0,0,1,0-3.8h75.191a1.9,1.9,0,0,1,0,3.8Zm0,0" transform="translate(-71.374 -165.941)" fill="#5a5a5a"/>
    <path id="Path_19355" data-name="Path 19355" d="M175.985,278.341H105.142a2.174,2.174,0,0,1-2.173-2.174V258.732a2.173,2.173,0,0,1,2.173-2.173h70.843a2.174,2.174,0,0,1,2.174,2.173v17.435a2.174,2.174,0,0,1-2.174,2.174Zm0,0" transform="translate(-77.176 -193.231)" fill="#ff5770"/>
    <path id="Path_19356" data-name="Path 19356" d="M385.5,278.341h-4.351V256.559H385.5a2.173,2.173,0,0,1,2.174,2.173v17.435a2.174,2.174,0,0,1-2.174,2.174Zm0,0" transform="translate(-286.694 -193.231)" fill="#ff435f"/>
    <g id="Group_14825" data-name="Group 14825" transform="translate(26.003 90.528)">
      <path id="Path_19357" data-name="Path 19357" d="M131.626,370.558H105.721a1.9,1.9,0,1,1,0-3.8h25.9a1.9,1.9,0,0,1,0,3.8Zm0,0" transform="translate(-103.821 -366.758)" fill="#5a5a5a"/>
      <path id="Path_19358" data-name="Path 19358" d="M249.788,370.558h-10.75a1.9,1.9,0,1,1,0-3.8h10.75a1.9,1.9,0,0,1,0,3.8Zm0,0" transform="translate(-204.23 -366.758)" fill="#5a5a5a"/>
      <path id="Path_19359" data-name="Path 19359" d="M331.48,370.558H311.24a1.9,1.9,0,1,1,0-3.8h20.24a1.9,1.9,0,0,1,0,3.8Zm0,0" transform="translate(-258.61 -366.758)" fill="#5a5a5a"/>
      <path id="Path_19360" data-name="Path 19360" d="M118.73,402.255H105.721a1.9,1.9,0,1,1,0-3.8H118.73a1.9,1.9,0,1,1,0,3.8Zm0,0" transform="translate(-103.821 -390.629)" fill="#5a5a5a"/>
      <path id="Path_19361" data-name="Path 19361" d="M223.887,402.255H195.26a1.9,1.9,0,0,1,0-3.8h28.627a1.9,1.9,0,1,1,0,3.8Zm0,0" transform="translate(-171.258 -390.629)" fill="#5a5a5a"/>
      <path id="Path_19362" data-name="Path 19362" d="M349.441,402.255H335.089a1.9,1.9,0,0,1,0-3.8h14.352a1.9,1.9,0,0,1,0,3.8Zm0,0" transform="translate(-276.572 -390.629)" fill="#5a5a5a"/>
    </g>
    <path id="Path_19363" data-name="Path 19363" d="M358.435,25.109A25.108,25.108,0,1,1,333.326,0a25.108,25.108,0,0,1,25.109,25.109Zm0,0" transform="translate(-231.763)" fill="#ffd86e"/>
    <path id="Path_19364" data-name="Path 19364" d="M377.772,34.337a25.106,25.106,0,0,1-43.878,16.674,25.109,25.109,0,0,0,30.727-38.757,25.1,25.1,0,0,1,13.151,22.083Zm0,0" transform="translate(-251.101 -9.229)" fill="#ffb509"/>
    <path id="Path_19365" data-name="Path 19365" d="M358.664,29.208l-1.284.953a1.9,1.9,0,1,0,2.266,3.054l5.706-4.234a1.9,1.9,0,0,0,.031-3.03l-5.706-4.418a1.9,1.9,0,0,0-2.328,3.006l1.088.843A16.708,16.708,0,0,0,346.5,49.454a1.9,1.9,0,0,0,3.381-1.738,12.752,12.752,0,0,1-1.42-5.891,12.924,12.924,0,0,1,10.2-12.617Zm0,0" transform="translate(-259.21 -15.918)" fill="#5a5a5a"/>
    <path id="Path_19366" data-name="Path 19366" d="M409.74,72.059a16.755,16.755,0,0,0-1.842-7.63,1.9,1.9,0,1,0-3.38,1.738,12.765,12.765,0,0,1,1.42,5.892,12.925,12.925,0,0,1-10.2,12.617l1.284-.953a1.9,1.9,0,0,0-2.266-3.054L389.049,84.9a1.9,1.9,0,0,0-.031,3.03l5.706,4.418a1.9,1.9,0,0,0,2.328-3.006l-1.088-.843a16.73,16.73,0,0,0,13.776-16.44Zm0,0" transform="translate(-292.063 -47.748)" fill="#5a5a5a"/>
  </g>
</svg>
