<svg xmlns="http://www.w3.org/2000/svg" width="39" height="38" viewBox="0 0 39 38"><g transform="translate(0 0)"><ellipse cx="19.5" cy="19" rx="19.5" ry="19" transform="translate(0 0)" fill="#fc7b52"/><g transform="translate(10.897 10.183)"><rect width="16.655" height="16.655" transform="translate(0 0)" fill="none"/><path d="M2.082,5.2v9.369H14.573V5.2Zm11.45-3.123h2.082a.983.983,0,0,1,1.041,1.041V15.614a.983.983,0,0,1-1.041,1.041H1.041A.983.983,0,0,1,0,15.614V3.123A.983.983,0,0,1,1.041,2.082H3.123V1.041A.983.983,0,0,1,4.164,0,.983.983,0,0,1,5.2,1.041V2.082H11.45V1.041a1.041,1.041,0,1,1,2.082,0Zm-1.041,10.41H10.41V10.41h2.082Zm-3.123,0H7.287V10.41H9.369Zm3.123-3.123H10.41V7.287h2.082Zm-3.123,0H7.287V7.287H9.369ZM6.246,12.491H4.164V10.41H6.246Z" transform="translate(0 0)" fill="#fff" fill-rule="evenodd"/></g></g></svg>