<svg xmlns="http://www.w3.org/2000/svg" width="21" height="21" viewBox="0 0 21 21">
  <g id="View" transform="translate(-1787 -528)">
    <rect id="Rectangle_4748" data-name="Rectangle 4748" width="21" height="21" rx="3" transform="translate(1787 528)" fill="#0ab69f"/>
    <g id="eye" transform="translate(1789.515 534.332)">
      <g id="Group_11315" data-name="Group 11315" transform="translate(0)">
        <path id="Path_13783" data-name="Path 13783" d="M7.891,109.487a9.575,9.575,0,0,1-5.524-2.045,14.079,14.079,0,0,1-2.259-2.033.461.461,0,0,1,0-.6,14.081,14.081,0,0,1,2.259-2.033,9.575,9.575,0,0,1,5.524-2.045,9.575,9.575,0,0,1,5.524,2.045,14.081,14.081,0,0,1,2.259,2.033.461.461,0,0,1,0,.6,14.081,14.081,0,0,1-2.259,2.033A9.575,9.575,0,0,1,7.891,109.487Zm-6.833-4.375a14.162,14.162,0,0,0,1.846,1.6,8.872,8.872,0,0,0,4.987,1.863,8.872,8.872,0,0,0,4.987-1.863,14.164,14.164,0,0,0,1.846-1.6,14.161,14.161,0,0,0-1.846-1.6,8.872,8.872,0,0,0-4.987-1.863A8.872,8.872,0,0,0,2.9,103.508,14.158,14.158,0,0,0,1.058,105.111Z" transform="translate(0 -100.736)" fill="#fff"/>
      </g>
      <g id="Group_11316" data-name="Group 11316" transform="translate(5.124 1.556)">
        <path id="Path_13784" data-name="Path 13784" d="M146.287,149.159a2.82,2.82,0,0,1,0-5.638,2.735,2.735,0,0,1,1.823.7.461.461,0,0,1,.042.642.441.441,0,0,1-.63.042,1.852,1.852,0,0,0-1.234-.473,1.91,1.91,0,1,0,1.874,1.91.446.446,0,1,1,.893,0A2.8,2.8,0,0,1,146.287,149.159Z" transform="translate(-143.52 -143.521)" fill="#fff"/>
      </g>
      <g id="Group_11317" data-name="Group 11317" transform="translate(6.998 3.466)">
        <path id="Path_13785" data-name="Path 13785" d="M196.913,197.84a.91.91,0,1,1,.893-.909A.9.9,0,0,1,196.913,197.84Z" transform="translate(-196.02 -196.021)" fill="#fff"/>
      </g>
    </g>
  </g>
</svg>
