<svg xmlns="http://www.w3.org/2000/svg" width="90.467" height="39.94" viewBox="0 0 90.467 39.94"><g transform="translate(-58.682 349.635)"><g transform="translate(58.682 -335.113)"><path d="M59.441-270.074a5.779,5.779,0,0,0-.15-1.349,1.667,1.667,0,0,0-.61-.977l2.459-.372v7.255a.1.1,0,0,0,.116.116c.046,0,.155-.1.323-.292a5.978,5.978,0,0,1,.658-.63,5.22,5.22,0,0,1,.971-.632,2.754,2.754,0,0,1,1.282-.293,2.988,2.988,0,0,1,1.755.5,3.709,3.709,0,0,1,1.144,1.28,6.182,6.182,0,0,1,.623,1.723,9,9,0,0,1,.2,1.849,8.305,8.305,0,0,1-.287,2.211,5.505,5.505,0,0,1-.876,1.84,4.2,4.2,0,0,1-1.509,1.255,4.783,4.783,0,0,1-2.187.466,8.127,8.127,0,0,1-1.014-.058c-.308-.039-.611-.082-.91-.128s-.614-.09-.944-.128a9.724,9.724,0,0,0-1.118-.058q.038-1.465.058-2.919t.019-2.917Zm6.764,7.084a5.523,5.523,0,0,0-.461-1.409,2.864,2.864,0,0,0-.832-1.024,1.981,1.981,0,0,0-1.234-.4,2.139,2.139,0,0,0-1.88.966,4.642,4.642,0,0,0-.658,2.642v1.793a12.168,12.168,0,0,0,.069,1.328A3.088,3.088,0,0,0,61.521-258a1.871,1.871,0,0,0,.7.744,2.443,2.443,0,0,0,1.27.28,2.309,2.309,0,0,0,1.441-.43,2.908,2.908,0,0,0,.878-1.095,5.173,5.173,0,0,0,.427-1.455,10.634,10.634,0,0,0,.114-1.514A8.055,8.055,0,0,0,66.206-262.99Z" transform="translate(-58.682 272.771)" fill="#1a1818"/><path d="M121.919-261.964q0-.788-.058-1.612a2.954,2.954,0,0,0-.448-1.426h3.1a2.95,2.95,0,0,0-.449,1.424q-.058.822-.058,1.609v3.611a2.079,2.079,0,0,0,.863-.394,8.069,8.069,0,0,0,.921-.787q.472-.463.933-1.007t.9-1.054q.943-1.111,1.5-1.829a2.142,2.142,0,0,0,.553-1.134v-.255a.634.634,0,0,0-.023-.185H132.5q-.806.718-1.509,1.319a16.727,16.727,0,0,0-1.46,1.435l-3.57,3.889,3.822,5.5q.46.673,1.013,1.358t1.083,1.289h-2.418a.705.705,0,0,1-.506-.174,2.521,2.521,0,0,1-.368-.454l-4.144-6.313a2.184,2.184,0,0,0-.174-.244c-.069-.084-.125-.128-.171-.128a.074.074,0,0,0-.081.07.767.767,0,0,0-.012.139v4.062q0,.79.058,1.615a2.964,2.964,0,0,0,.449,1.427h-3.1a2.951,2.951,0,0,0,.448-1.427q.058-.822.058-1.61Z" transform="translate(-109.561 266.47)" fill="#1a1818"/><path d="M187.71-232.642a7.3,7.3,0,0,1-.194-1.046c-.023-.263-.08-.393-.17-.393a.133.133,0,0,0-.093.023c-.016.016-.032.03-.046.046q-.232.326-.451.615a2.528,2.528,0,0,1-.521.511,2.356,2.356,0,0,1-.717.348,3.541,3.541,0,0,1-1.019.128,3.209,3.209,0,0,1-2.036-.651,2.3,2.3,0,0,1-.833-1.928,2.067,2.067,0,0,1,.426-1.314,4.408,4.408,0,0,1,1.062-.964,8.82,8.82,0,0,1,1.362-.732q.728-.313,1.3-.593.485-.234.808-.4a1.662,1.662,0,0,0,.508-.374,1.156,1.156,0,0,0,.254-.537,4.5,4.5,0,0,0,.07-.887,2.6,2.6,0,0,0-.391-1.458,1.552,1.552,0,0,0-1.405-.6,1.532,1.532,0,0,0-1.15.348,2.546,2.546,0,0,0-.5.766,6.02,6.02,0,0,1-.38.767.809.809,0,0,1-.759.348.918.918,0,0,1-.623-.2.763.763,0,0,1-.229-.614,1.367,1.367,0,0,1,.391-.986,2.965,2.965,0,0,1,.99-.662,5.328,5.328,0,0,1,1.324-.359,9.807,9.807,0,0,1,1.393-.1,8.053,8.053,0,0,1,1.173.081,3.151,3.151,0,0,1,.966.291,1.659,1.659,0,0,1,.654.581,1.685,1.685,0,0,1,.241.932v5.118q0,1.046.057,2.035a3.126,3.126,0,0,0,.588,1.71Zm-3.653-1.487a1.964,1.964,0,0,0,1.283.406,1.807,1.807,0,0,0,.9-.22,2.064,2.064,0,0,0,.659-.578,2.45,2.45,0,0,0,.394-.822,3.593,3.593,0,0,0,.128-.949v-2.337l-1.249.625c-.432.215-.81.413-1.133.589a4.852,4.852,0,0,0-.821.555,1.879,1.879,0,0,0-.5.649,2.024,2.024,0,0,0-.162.844A1.5,1.5,0,0,0,184.057-234.13Z" transform="translate(-158.4 249.059)" fill="#1a1818"/><path d="M233.444-240.255a3.837,3.837,0,0,0,.886.827,10.352,10.352,0,0,0,1.151.675,7.312,7.312,0,0,1,1.152.721,3.977,3.977,0,0,1,.886.944,2.385,2.385,0,0,1,.357,1.35,2.861,2.861,0,0,1-.357,1.456,3.3,3.3,0,0,1-.946,1.036,4.3,4.3,0,0,1-1.314.628,5.251,5.251,0,0,1-1.464.21,6.4,6.4,0,0,1-1.3-.128,7.759,7.759,0,0,1-1.258-.384.892.892,0,0,1-.287-.163.46.46,0,0,1-.1-.349,7.755,7.755,0,0,1,.046-.838c.03-.28.054-.567.07-.862q.275.44.53.787a2.756,2.756,0,0,0,.577.589,2.4,2.4,0,0,0,.728.369,3.269,3.269,0,0,0,.981.128,2.38,2.38,0,0,0,1.605-.488,1.859,1.859,0,0,0,.566-1.488,2,2,0,0,0-.333-1.173,3.478,3.478,0,0,0-.84-.837,9.41,9.41,0,0,0-1.106-.675,6.688,6.688,0,0,1-1.1-.721,3.5,3.5,0,0,1-.84-.976,2.786,2.786,0,0,1-.334-1.431,2.072,2.072,0,0,1,.932-1.905,4.837,4.837,0,0,1,2.566-.581,6.749,6.749,0,0,1,1.048.081q.518.081,1.047.2a1.017,1.017,0,0,0,.172.058.149.149,0,0,1,.127.152c0,.217,0,.474-.012.769s-.019.565-.034.814q-.346-.42-.611-.688a2.382,2.382,0,0,0-.541-.42,1.992,1.992,0,0,0-.576-.21,3.687,3.687,0,0,0-.692-.058,2.179,2.179,0,0,0-1.2.338,1.187,1.187,0,0,0-.53,1.082A1.86,1.86,0,0,0,233.444-240.255Z" transform="translate(-198.315 249.059)" fill="#1a1818"/><path d="M285.632-259.02q0,.652.046,1.337a2.751,2.751,0,0,0,.322,1.173h-2.068v-6.381a10.837,10.837,0,0,0-.058-1.118,2.886,2.886,0,0,0-.279-1,1.885,1.885,0,0,0-.627-.722,1.923,1.923,0,0,0-1.1-.28,1.979,1.979,0,0,0-1.114.28,1.975,1.975,0,0,0-.661.745,3.192,3.192,0,0,0-.326,1.049,8.351,8.351,0,0,0-.081,1.164v3.749q0,.652.047,1.34a2.339,2.339,0,0,0,.379,1.176h-2.54a2.382,2.382,0,0,0,.368-1.173q.046-.684.046-1.335v-11.059a12.377,12.377,0,0,0-.069-1.347,1.353,1.353,0,0,0-.53-.976l2.3-.372v6.569c0,.092,0,.177.01.255s.029.116.068.116.135-.073.267-.221a3.561,3.561,0,0,1,.569-.487,4.383,4.383,0,0,1,.917-.488,3.434,3.434,0,0,1,1.288-.22,2.94,2.94,0,0,1,2.076.7,3.046,3.046,0,0,1,.754,2.323Z" transform="translate(-236.064 272.771)" fill="#1a1818"/></g><g transform="translate(105.81 -349.635)"><path d="M309.349-349.635l19.545,2.55-4.635,16.223Z" transform="translate(-309.117 349.635)" fill="#cb2155"/><path d="M397.177-335.733,411.7-316.42l-16.764,8.034-2.086-8.5a12.7,12.7,0,0,1,.309-5.485Z" transform="translate(-376.705 338.36)" fill="#cb2155"/><path d="M472.995-273.462l-5.408-7.571,9.116-1.545Z" transform="translate(-437.458 295.247)" fill="#9f0010"/><path d="M512.883-282.578l3.4,3.631h-4.944Z" transform="translate(-472.943 295.247)" fill="#9f0010"/><path d="M420.156-223.364l13.828-6.876-.464,1.622Z" transform="translate(-398.989 252.798)" fill="#cd231e"/><path d="M363.391-241.28,357.6-221.812l8.807-6.953Z" transform="translate(-348.249 261.752)" fill="#8a000b"/><path d="M315.924-325.277l-5.639-7.185-2.163.077Z" transform="translate(-308.121 335.706)" fill="#9f0010"/><path d="M392.927-241.648c.049.651.123,1.074.123,1.074l2.086,8.5,16.764-8.034-.153-.2Z" transform="translate(-376.904 262.051)" fill="#b50014"/></g></g></svg>