<svg xmlns="http://www.w3.org/2000/svg" width="58.707" height="80" viewBox="0 0 58.707 80"><defs><style>.a{fill:#e6e7e8;}.b{fill:#fff;}.c{fill:#6dc9f7;}.d{fill:#fa759e;}.e{fill:#0089ef;}.f{fill:#3a2c60;}</style></defs><g transform="translate(-18.427 -1.897)"><path class="a" d="M78.533,17.076A3.142,3.142,0,0,0,75.4,13.938H63.51a3.948,3.948,0,0,0-2.435-.841H57.21v-.436a6.763,6.763,0,1,0-13.526,0V13.1H39.82a3.948,3.948,0,0,0-2.435.841H25.5a3.142,3.142,0,0,0-3.138,3.138V80.183A3.142,3.142,0,0,0,25.5,83.321H75.4a3.142,3.142,0,0,0,3.138-3.138V17.076Z" transform="translate(-1.4 -1.424)"/><path class="b" d="M71.818,15.381H59.688a3.306,3.306,0,0,1,1.137,2.487V21.84H32.914V17.868a3.306,3.306,0,0,1,1.137-2.487H21.921a2.494,2.494,0,0,0-2.494,2.494V80.982a2.494,2.494,0,0,0,2.494,2.494h49.9a2.494,2.494,0,0,0,2.494-2.494V17.875A2.494,2.494,0,0,0,71.818,15.381Z" transform="translate(-0.356 -4.799)"/><path class="c" d="M71.818,18.381H60.769a3.343,3.343,0,0,1,.056.555v3.972H32.914V18.936a3.283,3.283,0,0,1,.056-.555H21.921a2.494,2.494,0,0,0-2.494,2.494V82.049a2.494,2.494,0,0,0,2.494,2.494h49.9a2.494,2.494,0,0,0,2.494-2.494V20.875a2.494,2.494,0,0,0-2.494-2.494Z" transform="translate(-0.356 -5.867)"/><path class="b" d="M70.957,23.659H63.621v1.127H35.71V23.659H28.375a1.09,1.09,0,0,0-1.09,1.09V80a1.09,1.09,0,0,0,1.09,1.09H70.957A1.09,1.09,0,0,0,72.047,80V24.749A1.09,1.09,0,0,0,70.957,23.659Z" transform="translate(-3.153 -7.745)"/><path class="d" d="M52.058,38.349a4.28,4.28,0,0,1,.564-2.126,3.756,3.756,0,1,0,.307,4.717A4.286,4.286,0,0,1,52.058,38.349Z" transform="translate(-9.853 -11.786)"/><path class="d" d="M49.955,54.693a5.719,5.719,0,0,1,2.555-4.767,4.988,4.988,0,0,0-8.322,3.717v1.335h5.767Z" transform="translate(-9.169 -16.639)"/><path class="d" d="M70.431,35.012a3.741,3.741,0,0,0-2.756,1.21,4.286,4.286,0,0,1-.307,4.716,3.755,3.755,0,1,0,3.063-5.926Z" transform="translate(-17.419 -11.786)"/><path class="d" d="M70.285,48.649a4.97,4.97,0,0,0-3.327,1.277,5.721,5.721,0,0,1,2.555,4.767v.285H75.28V53.643A4.994,4.994,0,0,0,70.285,48.649Z" transform="translate(-17.273 -16.639)"/><circle class="d" cx="4.308" cy="4.308" r="4.308" transform="matrix(0.987, -0.16, 0.16, 0.987, 41.564, 23.006)"/><path class="d" d="M58.868,49.141a5.727,5.727,0,0,0-5.727,5.727V56.4H64.595v-1.53A5.726,5.726,0,0,0,58.868,49.141Z" transform="translate(-12.355 -16.815)"/><path class="e" d="M64.949,10.1H60.44V9.017a6.119,6.119,0,0,0-12.238,0V10.1H43.694a3.328,3.328,0,0,0-3.328,3.328V17.4H68.277V13.425A3.328,3.328,0,0,0,64.949,10.1Z" transform="translate(-7.808 -0.356)"/><circle class="b" cx="1.932" cy="1.932" r="1.932" transform="translate(44.581 6.359)"/><g transform="translate(18.427 1.897)"><path class="f" d="M71.462,9.938H59.577A3.946,3.946,0,0,0,57.141,9.1H53.276V8.66a6.763,6.763,0,0,0-13.526,0V9.1H35.886a3.946,3.946,0,0,0-2.436.842H21.565a3.141,3.141,0,0,0-3.138,3.137V76.183a3.142,3.142,0,0,0,3.138,3.138h49.9A3.142,3.142,0,0,0,74.6,76.183V27.815a.644.644,0,1,0-1.288,0V76.183a1.852,1.852,0,0,1-1.85,1.85h-49.9a1.852,1.852,0,0,1-1.85-1.85V13.075a1.852,1.852,0,0,1,1.85-1.849H32.37a3.947,3.947,0,0,0-.456,1.842v2.2H25.222A1.736,1.736,0,0,0,23.488,17V72.254a1.736,1.736,0,0,0,1.734,1.733H67.8a1.735,1.735,0,0,0,1.733-1.733V17A1.735,1.735,0,0,0,67.8,15.27H61.112v-2.2a3.947,3.947,0,0,0-.456-1.842H71.462a1.851,1.851,0,0,1,1.85,1.849v3.645a.644.644,0,1,0,1.288,0V13.076a3.142,3.142,0,0,0-3.138-3.138Zm-31.068.446a.644.644,0,0,0,.644-.644V8.66a5.475,5.475,0,0,1,10.95,0V9.74a.644.644,0,0,0,.644.644h4.509a2.687,2.687,0,0,1,2.683,2.684V16.4H33.2V13.068a2.687,2.687,0,0,1,2.684-2.684ZM67.8,16.558a.446.446,0,0,1,.445.445V72.254a.446.446,0,0,1-.445.445H25.222a.447.447,0,0,1-.446-.445V17a.446.446,0,0,1,.446-.445h6.691v.482a.644.644,0,0,0,.644.644h27.91a.644.644,0,0,0,.644-.644v-.482H67.8Z" transform="translate(-18.427 -1.897)"/><path class="f" d="M104.284,28.252a.644.644,0,0,0-.644.644v5.385a.644.644,0,0,0,1.288,0V28.9a.644.644,0,0,0-.644-.644Z" transform="translate(-48.755 -11.277)"/><path class="f" d="M43.832,49.877h5.123v.6a.644.644,0,0,0,.644.644H61.054a.644.644,0,0,0,.644-.644v-.6h5.122a.644.644,0,0,0,.644-.644V47.9a5.642,5.642,0,0,0-5.458-5.63,4.4,4.4,0,1,0-2.818-7.9,4.939,4.939,0,0,0-7.723,0,4.4,4.4,0,1,0-2.819,7.9,5.642,5.642,0,0,0-5.459,5.63v1.335a.643.643,0,0,0,.643.645Zm16.577-.043H50.243v-.886a5.083,5.083,0,0,1,10.166,0Zm-8.517-8.817a4.932,4.932,0,0,0,6.867,0,4.372,4.372,0,0,0,2.9,1.251A5.589,5.589,0,0,0,58.446,43.4a6.331,6.331,0,0,0-6.239,0,5.589,5.589,0,0,0-3.213-1.131,4.369,4.369,0,0,0,2.9-1.25ZM66.176,47.9v.69h-4.5A6.348,6.348,0,0,0,59.557,44.2a4.3,4.3,0,0,1,2.269-.65A4.355,4.355,0,0,1,66.176,47.9Zm-4.35-13.134a3.112,3.112,0,1,1,0,6.224A3.074,3.074,0,0,1,59.57,40a4.912,4.912,0,0,0,.293-4.518,3.063,3.063,0,0,1,1.963-.713Zm-6.5-.971a3.664,3.664,0,1,1-3.664,3.664A3.668,3.668,0,0,1,55.326,33.793Zm-9.612,4.084a3.116,3.116,0,0,1,3.113-3.112,3.063,3.063,0,0,1,1.963.713A4.912,4.912,0,0,0,51.084,40a3.072,3.072,0,0,1-2.256.993A3.116,3.116,0,0,1,45.714,37.877ZM44.477,47.9a4.355,4.355,0,0,1,4.35-4.351,4.306,4.306,0,0,1,2.269.65,6.35,6.35,0,0,0-2.122,4.391h-4.5Z" transform="translate(-27.24 -12.791)"/><path class="f" d="M60.609,12.977A2.576,2.576,0,1,0,58.033,10.4a2.579,2.579,0,0,0,2.576,2.576Zm0-3.865A1.288,1.288,0,1,1,59.321,10.4a1.289,1.289,0,0,1,1.288-1.288Z" transform="translate(-32.523 -4.006)"/><path class="f" d="M41.617,72.3H38.211a.88.88,0,0,0-.88.88v3.406a.88.88,0,0,0,.88.88h3.405a.88.88,0,0,0,.88-.88V73.176A.88.88,0,0,0,41.617,72.3Z" transform="translate(-25.155 -26.953)"/><path class="f" d="M41.617,83.841H38.211a.88.88,0,0,0-.88.88v3.405a.88.88,0,0,0,.88.88h3.405a.88.88,0,0,0,.88-.88V84.721A.88.88,0,0,0,41.617,83.841Z" transform="translate(-25.155 -31.062)"/><path class="f" d="M41.617,95.386H38.211a.88.88,0,0,0-.88.88v3.406a.88.88,0,0,0,.88.88h3.405a.88.88,0,0,0,.88-.88V96.266A.88.88,0,0,0,41.617,95.386Z" transform="translate(-25.155 -35.171)"/><path class="f" d="M51.087,78.962a.644.644,0,0,0,.644.644H74.048a.644.644,0,0,0,0-1.288H51.731A.644.644,0,0,0,51.087,78.962Z" transform="translate(-30.051 -29.096)"/><path class="f" d="M74.048,89.863H51.731a.644.644,0,1,0,0,1.288H74.048a.644.644,0,0,0,0-1.288Z" transform="translate(-30.051 -33.205)"/><path class="f" d="M74.048,101.407H51.731a.644.644,0,1,0,0,1.288H74.048a.644.644,0,0,0,0-1.288Z" transform="translate(-30.051 -37.313)"/></g><path class="d" d="M39.6,74.824a.963.963,0,0,1-.7-.3l-2.04-2.147a.966.966,0,1,1,1.4-1.331l1.3,1.37,3.7-4.337a.966.966,0,0,1,1.47,1.255l-4.4,5.153a.963.963,0,0,1-.709.338H39.6Z" transform="translate(-6.467 -23.434)"/><path class="d" d="M39.6,86.824a.963.963,0,0,1-.7-.3l-2.04-2.147a.966.966,0,1,1,1.4-1.331l1.3,1.37,3.7-4.337a.966.966,0,0,1,1.47,1.255l-4.4,5.153a.963.963,0,0,1-.709.338H39.6Z" transform="translate(-6.467 -27.705)"/><path class="d" d="M39.6,97.824a.963.963,0,0,1-.7-.3l-2.04-2.147a.966.966,0,1,1,1.4-1.331l1.3,1.37,3.7-4.337a.966.966,0,0,1,1.47,1.255l-4.4,5.153a.963.963,0,0,1-.709.338Z" transform="translate(-6.467 -31.62)"/></g></svg>