<svg xmlns="http://www.w3.org/2000/svg" width="15" height="16" viewBox="0 0 15 16">
  <g id="_001-medical-report" data-name="001-medical-report" transform="translate(-22.954)">
    <path id="Path_19502" data-name="Path 19502" d="M35.426.662H33.532V.487A.576.576,0,0,0,32.9,0H28.01a.576.576,0,0,0-.634.487V.662H25.482A2.3,2.3,0,0,0,22.954,2.6V14.058A2.3,2.3,0,0,0,25.482,16h9.944a2.3,2.3,0,0,0,2.528-1.942V2.6A2.3,2.3,0,0,0,35.426.662ZM28.645.975h3.619v.349H28.645Zm8.04,13.083a1.144,1.144,0,0,1-1.259.967H25.482a1.144,1.144,0,0,1-1.259-.967V2.6a1.144,1.144,0,0,1,1.259-.967h1.894v.174a.576.576,0,0,0,.634.487H32.9a.576.576,0,0,0,.634-.487V1.637h1.894a1.144,1.144,0,0,1,1.259.967Z" transform="translate(0)" fill="#5e5e5e"/>
    <path id="Path_19503" data-name="Path 19503" d="M53.231,33.775H44.318a.345.345,0,0,0-.381.292v9.491a.345.345,0,0,0,.381.292h8.914a.345.345,0,0,0,.381-.292V34.067A.345.345,0,0,0,53.231,33.775Zm-.381,9.491H44.7V34.36h8.152Z" transform="translate(-18.32 -30.482)" fill="#5e5e5e"/>
    <path id="Path_19504" data-name="Path 19504" d="M60.107,56.645h4.907a.3.3,0,1,0,0-.585H60.107a.3.3,0,1,0,0,.585Z" transform="translate(-32.106 -50.595)" fill="#5e5e5e"/>
    <path id="Path_19505" data-name="Path 19505" d="M60.107,67.145h4.907a.3.3,0,1,0,0-.585H60.107a.3.3,0,1,0,0,.585Z" transform="translate(-32.106 -60.071)" fill="#5e5e5e"/>
    <path id="Path_19506" data-name="Path 19506" d="M60.107,77.645h4.907a.3.3,0,1,0,0-.585H60.107a.3.3,0,1,0,0,.585Z" transform="translate(-32.106 -69.547)" fill="#5e5e5e"/>
    <path id="Path_19507" data-name="Path 19507" d="M60.107,88.145h4.907a.3.3,0,1,0,0-.585H60.107a.3.3,0,1,0,0,.585Z" transform="translate(-32.106 -79.024)" fill="#5e5e5e"/>
    <path id="Path_19508" data-name="Path 19508" d="M57.107,120.645H59.56a.3.3,0,1,0,0-.585H57.107a.3.3,0,1,0,0,.585Z" transform="translate(-29.487 -108.355)" fill="#5e5e5e"/>
  </g>
</svg>
