<svg xmlns="http://www.w3.org/2000/svg" xmlns:xlink="http://www.w3.org/1999/xlink" width="39.671" height="40.945" viewBox="0 0 39.671 40.945"><defs><style>.a{fill:#2262c6;}.b{filter:url(#a);}</style><filter id="a" x="0" y="0" width="39.671" height="40.945" filterUnits="userSpaceOnUse"><feOffset dy="3" input="SourceAlpha"/><feGaussianBlur stdDeviation="3" result="b"/><feFlood flood-opacity="0.161"/><feComposite operator="in" in2="b"/><feComposite in="SourceGraphic"/></filter></defs><g transform="translate(0.548 6)"><path class="a" d="M397.178,151v15.885a1.765,1.765,0,1,1-3.53,0V156.143c0-1.547-1.446-2.942-2.14-3.637L390,151Z" transform="translate(-390 -145.705)"/><g class="b" transform="matrix(1, 0, 0, 1, -0.55, -6)"><path class="a" d="M.491,61h21.18V81.3a2.65,2.65,0,0,1-2.648,2.648H0A3.489,3.489,0,0,0,.491,82.18ZM10.2,78.65h8.825V69.825H10.2Zm-7.06,0h5.3V76.885h-5.3Zm0-3.53h5.3V73.355h-5.3Zm0-3.53h5.3V69.825h-5.3Zm0-3.53H19.024V66.3H3.138Z" transform="translate(9 -55)"/></g><path class="a" d="M80.3,241H75v5.3h5.3Z" transform="translate(-54.585 -230.41)"/></g></svg>