<svg xmlns="http://www.w3.org/2000/svg" width="16.286" height="16" viewBox="0 0 16.286 16">
  <g id="Signature" transform="translate(-4 -4)">
    <path id="Path_19511" data-name="Path 19511" d="M38.085,18.926l-3.312,5.735h1.32L39.076,19.5Z" transform="translate(-21.981 -10.661)" fill="#5e5e5e"/>
    <path id="Path_19512" data-name="Path 19512" d="M4,20H16V16.363a2,2,0,0,0-.54-.078H13.453l-.577,1a.286.286,0,0,1-.066.078l-1.886,1.552a.286.286,0,0,1-.463-.267l.4-2.409a.276.276,0,0,1,.035-.1v0a1.39,1.39,0,0,1-.176.013,1.415,1.415,0,0,1-.71-.191.857.857,0,0,1-.316-1.171l1.766-3.073a2.292,2.292,0,0,1,1.983-1.146h.669l1.914-3.314A.283.283,0,0,1,16,7.143V4H7.429V7.143a.571.571,0,0,1-.571.571H4ZM8.857,5.143h5.714a.286.286,0,1,1,0,.571H8.857a.286.286,0,1,1,0-.571Zm0,1.714h5.714a.286.286,0,1,1,0,.571H8.857a.286.286,0,1,1,0-.571ZM6,8.571h8a.286.286,0,1,1,0,.571H6a.286.286,0,0,1,0-.571Zm0,1.714h5.143a.286.286,0,0,1,0,.571H6a.286.286,0,1,1,0-.571ZM6,12h4a.286.286,0,1,1,0,.571H6A.286.286,0,1,1,6,12Zm0,1.714H9.429a.286.286,0,1,1,0,.571H6a.286.286,0,1,1,0-.571Zm0,1.714H8.857a.286.286,0,1,1,0,.571H6a.286.286,0,1,1,0-.571Zm0,3.143H9.429a.286.286,0,1,1,0,.571H6a.286.286,0,1,1,0-.571Z" fill="#5e5e5e"/>
    <path id="Path_19513" data-name="Path 19513" d="M41.7,37.571h.371a.273.273,0,0,0,.2-.082.279.279,0,0,0,.086-.229A.309.309,0,0,0,42.039,37h-.009Z" transform="translate(-26.929 -23.571)" fill="#5e5e5e"/>
    <path id="Path_19514" data-name="Path 19514" d="M7.174,5.476,4.443,8.2H7.174Z" transform="translate(-0.316 -1.054)" fill="#5e5e5e"/>
    <path id="Path_19515" data-name="Path 19515" d="M27.514,31.857,29.164,29h-.339a1.718,1.718,0,0,0-1.486.86l-1.767,3.074a.286.286,0,0,0,.106.39.843.843,0,0,0,.641.083,1.123,1.123,0,0,1-.08-.395,1.1,1.1,0,0,1,.33-.789,1.229,1.229,0,0,1,.865-.365Z" transform="translate(-15.382 -17.857)" fill="#5e5e5e"/>
    <path id="Path_19516" data-name="Path 19516" d="M47.937,13.01l-.571.99.99.571.571-.99a.571.571,0,1,0-.99-.571Z" transform="translate(-30.976 -6.232)" fill="#5e5e5e"/>
    <path id="Path_19517" data-name="Path 19517" d="M38.517,30.714a2,2,0,0,1-1.537-.72l-.4-.48a1.424,1.424,0,0,0-1.1-.514h-.489l-1.019,1.765a.861.861,0,0,1,.594.732.845.845,0,0,1-.252.682.835.835,0,0,1-.6.25h-3.09a.653.653,0,0,0-.459.2.537.537,0,0,0-.165.381.575.575,0,0,0,.131.357.6.6,0,0,0,.065.063.568.568,0,0,0,.376.145h3.46a2.588,2.588,0,0,1,1.15.271l.177.089a2.009,2.009,0,0,0,.895.211h2.6V30.714Z" transform="translate(-18.571 -17.857)" fill="#5e5e5e"/>
    <path id="Path_19518" data-name="Path 19518" d="M29.408,46.63l-.118.2-.267,1.606,1.257-1.035.387-.669h-.793a1.124,1.124,0,0,1-.466-.106Z" transform="translate(-17.874 -30.45)" fill="#5e5e5e"/>
  </g>
</svg>
