<svg xmlns="http://www.w3.org/2000/svg" width="83.85" height="58.107" viewBox="0 0 83.85 58.107"><defs><style>.a{fill:#e7e7e7;}.b{fill:#cecece;}.c{fill:#c9f0ff;}.d{fill:#9ae7fd;}.e{fill:#838383;}.f{fill:#5a5a5a;}.g{fill:#acacac;}.h{fill:#9c9c9c;}.i{fill:#ff5770;}.j{fill:#ff435f;}</style></defs><g transform="translate(-0.5 -21.893)"><path class="a" d="M104.4,186.191H30.383V136.843a3.8,3.8,0,0,1,3.8-3.8H100.6a3.8,3.8,0,0,1,3.8,3.8Zm0,0" transform="translate(-24.966 -111.15)"/><path class="b" d="M437.65,136.847v49.347h-4.576V136.847a3.8,3.8,0,0,0-3.8-3.8h4.576A3.8,3.8,0,0,1,437.65,136.847Zm0,0" transform="translate(-358.216 -111.153)"/><path class="c" d="M131.564,216.649H70.875V170.9a1.4,1.4,0,0,1,1.4-1.4h57.889a1.4,1.4,0,0,1,1.4,1.4Zm0,0" transform="translate(-58.794 -141.608)"/><path class="d" d="M410.028,170.9v45.748h-4.44V170.9a1.4,1.4,0,0,0-1.4-1.4h4.44A1.4,1.4,0,0,1,410.028,170.9Zm0,0" transform="translate(-337.258 -141.605)"/><path class="e" d="M80.21,448.16H4.641C2.354,448.16.5,446.977.5,445.519v-4.2c0-.357.454-.646,1.014-.646H83.337c.56,0,1.014.289,1.014.646v4.2c0,1.458-1.854,2.641-4.141,2.641Zm0,0" transform="translate(0 -368.16)"/><path class="f" d="M468.8,440.676c.56,0,1.014.289,1.014.646v4.2c0,1.458-1.853,2.641-4.141,2.641h-3.785c2.286,0,4.14-1.183,4.14-2.641v-4.843Zm0,0" transform="translate(-385.463 -368.16)"/><path class="g" d="M186.471,440.676h-16.8l1.984,4.541a.849.849,0,0,0,.778.508h22.652a.849.849,0,0,0,.778-.508l1.984-4.541Zm0,0" transform="translate(-141.33 -368.16)"/><path class="h" d="M312.968,440.676l-1.984,4.54a.849.849,0,0,1-.778.509h-2.738a.96.96,0,0,0,.073-.134l2.147-4.915Zm0,0" transform="translate(-256.455 -368.16)"/><path class="f" d="M101.4,196.766a1.416,1.416,0,0,1-.249-.023,1.374,1.374,0,0,1-.237-.073,1.387,1.387,0,0,1-.22-.117,1.459,1.459,0,0,1-.192-.157,1.431,1.431,0,0,1-.157-.193,1.281,1.281,0,0,1-.116-.22,1.254,1.254,0,0,1-.071-.237,1.192,1.192,0,0,1-.026-.248,1.18,1.18,0,0,1,.026-.247,1.31,1.31,0,0,1,.071-.238,1.26,1.26,0,0,1,.274-.411,1.247,1.247,0,0,1,.192-.157,1.383,1.383,0,0,1,.22-.116,1.3,1.3,0,0,1,.237-.073,1.214,1.214,0,0,1,.5,0,1.317,1.317,0,0,1,.238.073,1.262,1.262,0,0,1,.218.116,1.141,1.141,0,0,1,.193.157,1.126,1.126,0,0,1,.157.192,1.254,1.254,0,0,1,.117.219,1.317,1.317,0,0,1,.073.238,1.223,1.223,0,0,1,.025.247,1.236,1.236,0,0,1-.025.248,1.259,1.259,0,0,1-.073.237,1.2,1.2,0,0,1-.117.22,1.183,1.183,0,0,1-.157.193,1.314,1.314,0,0,1-.193.157,1.266,1.266,0,0,1-.218.117,1.317,1.317,0,0,1-.238.073A1.389,1.389,0,0,1,101.4,196.766Zm0,0" transform="translate(-83.234 -162.27)"/><path class="f" d="M128.166,196.766a1.4,1.4,0,0,1-.248-.023,1.292,1.292,0,0,1-.237-.073,1.361,1.361,0,0,1-.22-.117,1.425,1.425,0,0,1-.193-.157,1.335,1.335,0,0,1-.157-.193,1.284,1.284,0,0,1-.117-.22,1.307,1.307,0,0,1-.073-.237,1.393,1.393,0,0,1-.024-.248,1.242,1.242,0,0,1,.1-.485,1.347,1.347,0,0,1,.117-.219,1.236,1.236,0,0,1,.35-.35,1.356,1.356,0,0,1,.22-.116,1.245,1.245,0,0,1,.237-.073,1.211,1.211,0,0,1,.495,0,1.3,1.3,0,0,1,.238.073,1.342,1.342,0,0,1,.219.116,1.246,1.246,0,0,1,.192.157,1.16,1.16,0,0,1,.157.192,1.208,1.208,0,0,1,.116.219,1.317,1.317,0,0,1,.073.238,1.18,1.18,0,0,1,.026.247,1.192,1.192,0,0,1-.026.248,1.259,1.259,0,0,1-.073.237,1.158,1.158,0,0,1-.116.22,1.221,1.221,0,0,1-.157.193,1.458,1.458,0,0,1-.192.157,1.347,1.347,0,0,1-.219.117,1.3,1.3,0,0,1-.238.073A1.378,1.378,0,0,1,128.166,196.766Zm0,0" transform="translate(-105.599 -162.27)"/><path class="f" d="M154.939,196.766a1.392,1.392,0,0,1-.248-.023,1.287,1.287,0,0,1-.456-.19,1.425,1.425,0,0,1-.193-.157,1.335,1.335,0,0,1-.157-.193,1.285,1.285,0,0,1-.117-.22,1.307,1.307,0,0,1-.073-.237,1.233,1.233,0,0,1-.023-.248,1.221,1.221,0,0,1,.023-.247,1.369,1.369,0,0,1,.073-.238,1.348,1.348,0,0,1,.117-.219,1.263,1.263,0,0,1,.157-.192,1.223,1.223,0,0,1,.193-.157,1.3,1.3,0,0,1,.219-.116,1.265,1.265,0,0,1,.237-.073,1.211,1.211,0,0,1,.495,0,1.339,1.339,0,0,1,.238.073,1.365,1.365,0,0,1,.218.116,1.236,1.236,0,0,1,.35.35,1.345,1.345,0,0,1,.116.219,1.316,1.316,0,0,1,.073.238,1.179,1.179,0,0,1,.026.247,1.236,1.236,0,0,1-.026.248,1.258,1.258,0,0,1-.073.237,1.282,1.282,0,0,1-.116.22,1.335,1.335,0,0,1-.157.193,1.425,1.425,0,0,1-.193.157,1.37,1.37,0,0,1-.218.117,1.323,1.323,0,0,1-.238.073A1.394,1.394,0,0,1,154.939,196.766Zm0,0" transform="translate(-127.966 -162.27)"/><path class="f" d="M146.661,222.859H96.533a1.267,1.267,0,1,1,0-2.535h50.127a1.267,1.267,0,0,1,0,2.535Zm0,0" transform="translate(-79.172 -184.069)"/><path class="i" d="M151.646,271.08H104.417a1.449,1.449,0,0,1-1.449-1.45V258.008a1.449,1.449,0,0,1,1.449-1.449h47.229a1.449,1.449,0,0,1,1.45,1.449v11.623A1.449,1.449,0,0,1,151.646,271.08Zm0,0" transform="translate(-85.607 -214.34)"/><path class="j" d="M384.053,271.08h-2.9V256.559h2.9a1.449,1.449,0,0,1,1.45,1.449v11.623A1.449,1.449,0,0,1,384.053,271.08Zm0,0" transform="translate(-318.013 -214.34)"/><g transform="translate(17.502 60.352)"><path class="f" d="M122.358,369.292h-17.27a1.267,1.267,0,0,1,0-2.534h17.27a1.267,1.267,0,1,1,0,2.534Zm0,0" transform="translate(-103.821 -366.758)"/><path class="f" d="M245.571,369.292H238.4a1.267,1.267,0,1,1,0-2.534h7.167a1.267,1.267,0,1,1,0,2.534Zm0,0" transform="translate(-215.199 -366.758)"/><path class="f" d="M324.1,369.292H310.607a1.267,1.267,0,1,1,0-2.534H324.1a1.267,1.267,0,1,1,0,2.534Zm0,0" transform="translate(-275.52 -366.758)"/><path class="f" d="M113.76,400.987h-8.673a1.267,1.267,0,0,1,0-2.535h8.673a1.267,1.267,0,0,1,0,2.535Zm0,0" transform="translate(-103.821 -393.237)"/><path class="f" d="M213.711,400.987H194.626a1.267,1.267,0,1,1,0-2.535h19.085a1.267,1.267,0,1,1,0,2.535Zm0,0" transform="translate(-178.625 -393.237)"/><path class="f" d="M344.023,400.987h-9.568a1.267,1.267,0,1,1,0-2.535h9.568a1.267,1.267,0,1,1,0,2.535Zm0,0" transform="translate(-295.444 -393.237)"/></g></g></svg>