<svg xmlns="http://www.w3.org/2000/svg" xmlns:xlink="http://www.w3.org/1999/xlink" width="36.378" height="40.952" viewBox="0 0 36.378 40.952"><defs><style>.a{fill:#ff6680;}.b{filter:url(#a);}</style><filter id="a" x="0" y="0" width="36.378" height="40.952" filterUnits="userSpaceOnUse"><feOffset dy="3" input="SourceAlpha"/><feGaussianBlur stdDeviation="3" result="b"/><feFlood flood-opacity="0.161"/><feComposite operator="in" in2="b"/><feComposite in="SourceGraphic"/></filter></defs><g transform="translate(5.952 2.952)"><path class="a" d="M1.524,1.525H18.376V0H0V22.951H1.524Zm0,0"/><g class="b" transform="matrix(1, 0, 0, 1, -5.95, -2.95)"><path class="a" d="M75.353,60.025H60.024v19.9h0v3.049H72.813V77.386H78.4V60.025Zm-9.229,3.049H72.3V64.6H66.123Zm9.23,10.671H63.074V72.222H75.353Zm0-3.049H63.074V69.173H75.353Zm0-3.049H63.074V66.123H75.353Zm0,0" transform="translate(-51.02 -54.02)"/></g><path class="a" d="M341.863,431.938v3.111l3.111-3.111Zm0,0" transform="translate(-324.503 -410.004)"/></g></svg>