<svg xmlns="http://www.w3.org/2000/svg" width="70" height="70" viewBox="0 0 70 70"><defs><style>.a{fill:#c2c2c2;}.b{fill:#212a41;}.c{fill:#e0e0e0;}.d{fill:#fefefe;}.e{fill:#fff;}.f{fill:#0ab69f;}.g{fill:#5e5e5e;}.h{fill:#e0c8a4;}.i{fill:#0079a8;}.j{fill:#1e97c6;}.k{fill:#005b8a;}.l{fill:#f9ac2f;}</style></defs><g transform="translate(-4.5 -4.5)"><path class="a" d="M5,10.273V71.364a1.273,1.273,0,0,0,1.273,1.273H68.636a1.273,1.273,0,0,0,1.273-1.273V10.273A1.273,1.273,0,0,0,68.636,9H6.273A1.273,1.273,0,0,0,5,10.273Z" transform="translate(0.136 1.227)"/><path class="b" d="M68.773,73.409H6.409A1.909,1.909,0,0,1,4.5,71.5V10.409A1.909,1.909,0,0,1,6.409,8.5H68.773a1.909,1.909,0,0,1,1.909,1.909V71.5A1.909,1.909,0,0,1,68.773,73.409ZM6.409,9.773a.636.636,0,0,0-.636.636V71.5a.636.636,0,0,0,.636.636H68.773a.636.636,0,0,0,.636-.636V10.409a.636.636,0,0,0-.636-.636Z" transform="translate(0 1.091)"/><path class="c" d="M8,17H72.909V69.182a1.273,1.273,0,0,1-1.273,1.273H9.273A1.273,1.273,0,0,1,8,69.182Z" transform="translate(0.955 3.409)"/><path class="b" d="M71.773,71.227H9.409A1.909,1.909,0,0,1,7.5,69.318V17.136a.636.636,0,0,1,.636-.636H73.045a.636.636,0,0,1,.636.636V69.318A1.909,1.909,0,0,1,71.773,71.227Zm-63-53.455V69.318a.636.636,0,0,0,.636.636H71.773a.636.636,0,0,0,.636-.636V17.773Z" transform="translate(0.818 3.273)"/><path class="d" d="M10.136,68.136A.636.636,0,0,1,9.5,67.5V19.136a.636.636,0,1,1,1.273,0V67.5A.636.636,0,0,1,10.136,68.136Z" transform="translate(1.364 3.818)"/><path class="a" d="M57.136,68.136A.636.636,0,0,1,56.5,67.5V19.136a.636.636,0,1,1,1.273,0V67.5A.636.636,0,0,1,57.136,68.136Z" transform="translate(14.182 3.818)"/><path class="e" d="M69.909,19.182H5V10.273A1.273,1.273,0,0,1,6.273,9H68.636a1.273,1.273,0,0,1,1.273,1.273Z" transform="translate(0.136 1.227)"/><path class="b" d="M70.045,19.955H5.136a.636.636,0,0,1-.636-.636V10.409A1.909,1.909,0,0,1,6.409,8.5H68.773a1.909,1.909,0,0,1,1.909,1.909v8.909A.636.636,0,0,1,70.045,19.955ZM5.773,18.682H69.409V10.409a.636.636,0,0,0-.636-.636H6.409a.636.636,0,0,0-.636.636Z" transform="translate(0 1.091)"/><path class="f" d="M72.909,19.182H8V10.273A1.273,1.273,0,0,1,9.273,9H71.636a1.273,1.273,0,0,1,1.273,1.273Z" transform="translate(0.955 1.227)"/><path class="g" d="M73.045,19.955H8.136a.636.636,0,0,1-.636-.636V10.409A1.909,1.909,0,0,1,9.409,8.5H71.773a1.909,1.909,0,0,1,1.909,1.909v8.909A.636.636,0,0,1,73.045,19.955ZM8.773,18.682H72.409V10.409a.636.636,0,0,0-.636-.636H9.409a.636.636,0,0,0-.636.636Z" transform="translate(0.818 1.091)"/><path class="e" d="M57.136,16.864a.636.636,0,0,1-.636-.636V11.136a.636.636,0,1,1,1.273,0v5.091A.636.636,0,0,1,57.136,16.864Z" transform="translate(14.182 1.636)"/><path class="e" d="M10.136,16.864a.636.636,0,0,1-.636-.636V11.136a.636.636,0,0,1,1.273,0v5.091A.636.636,0,0,1,10.136,16.864Z" transform="translate(1.364 1.636)"/><rect class="c" width="3.818" height="10.182" rx="1" transform="translate(20.409 5.136)"/><path class="b" d="M19.682,15.955H18.409A1.909,1.909,0,0,1,16.5,14.045V6.409A1.909,1.909,0,0,1,18.409,4.5h1.273a1.909,1.909,0,0,1,1.909,1.909v7.636A1.909,1.909,0,0,1,19.682,15.955ZM18.409,5.773a.636.636,0,0,0-.636.636v7.636a.636.636,0,0,0,.636.636h1.273a.636.636,0,0,0,.636-.636V6.409a.636.636,0,0,0-.636-.636Z" transform="translate(3.273 0)"/><rect class="c" width="3.818" height="10.182" rx="1" transform="translate(58.591 5.136)"/><path class="b" d="M49.682,15.955H48.409A1.909,1.909,0,0,1,46.5,14.045V6.409A1.909,1.909,0,0,1,48.409,4.5h1.273a1.909,1.909,0,0,1,1.909,1.909v7.636A1.909,1.909,0,0,1,49.682,15.955ZM48.409,5.773a.636.636,0,0,0-.636.636v7.636a.636.636,0,0,0,.636.636h1.273a.636.636,0,0,0,.636-.636V6.409a.636.636,0,0,0-.636-.636Z" transform="translate(11.455 0)"/><circle class="h" cx="5.091" cy="5.091" r="5.091" transform="translate(20.409 26.773)"/><path class="b" d="M22.227,32.955a5.727,5.727,0,1,1,5.727-5.727,5.727,5.727,0,0,1-5.727,5.727Zm0-10.182a4.455,4.455,0,1,0,4.455,4.455,4.455,4.455,0,0,0-4.455-4.455Z" transform="translate(3.273 4.636)"/><path class="i" d="M19.091,30h7.636a5.091,5.091,0,0,1,5.091,5.091v5.091H14V35.091A5.091,5.091,0,0,1,19.091,30Z" transform="translate(2.591 6.955)"/><path class="b" d="M31.955,40.955H14.136a.636.636,0,0,1-.636-.636V35.227A5.734,5.734,0,0,1,19.227,29.5h7.636a5.734,5.734,0,0,1,5.727,5.727v5.091A.636.636,0,0,1,31.955,40.955ZM14.773,39.682H31.318V35.227a4.455,4.455,0,0,0-4.455-4.455H19.227a4.455,4.455,0,0,0-4.455,4.455Z" transform="translate(2.455 6.818)"/><path class="j" d="M16.136,37.864a.636.636,0,0,1-.636-.636V34.682A3.182,3.182,0,0,1,18.682,31.5a.636.636,0,1,1,0,1.273,1.909,1.909,0,0,0-1.909,1.909v2.545A.636.636,0,0,1,16.136,37.864Z" transform="translate(3 7.364)"/><path class="k" d="M26.682,37.864a.636.636,0,0,1-.636-.636V34.682a1.909,1.909,0,0,0-1.909-1.909.636.636,0,0,1,0-1.273,3.182,3.182,0,0,1,3.182,3.182v2.545A.636.636,0,0,1,26.682,37.864Z" transform="translate(5.182 7.364)"/><path class="c" d="M21.545,37.636,19,30h5.091Z" transform="translate(3.955 6.955)"/><path class="b" d="M21.682,38.409a.636.636,0,0,1-.6-.435l-2.545-7.636a.636.636,0,0,1,.6-.837h5.091a.636.636,0,0,1,.6.837l-2.545,7.636a.636.636,0,0,1-.6.435Zm-1.663-7.636,1.663,4.988,1.663-4.988Z" transform="translate(3.818 6.818)"/><path class="l" d="M22.091,22a5.091,5.091,0,0,1,5.091,5.091H17A5.091,5.091,0,0,1,22.091,22Z" transform="translate(3.409 4.773)"/><path class="b" d="M27.318,27.864H17.136a.636.636,0,0,1-.636-.636,5.727,5.727,0,0,1,11.455,0A.636.636,0,0,1,27.318,27.864Zm-9.5-1.273h8.82a4.455,4.455,0,0,0-8.82,0Z" transform="translate(3.273 4.636)"/><circle class="h" cx="5.091" cy="5.091" r="5.091" transform="translate(20.409 53.5)"/><path class="b" d="M22.227,53.955a5.727,5.727,0,1,1,5.727-5.727,5.727,5.727,0,0,1-5.727,5.727Zm0-10.182a4.455,4.455,0,1,0,4.455,4.455,4.455,4.455,0,0,0-4.455-4.455Z" transform="translate(3.273 10.364)"/><path class="i" d="M19.091,51h7.636a5.091,5.091,0,0,1,5.091,5.091v5.091H14V56.091A5.091,5.091,0,0,1,19.091,51Z" transform="translate(2.591 12.682)"/><path class="b" d="M31.955,61.955H14.136a.636.636,0,0,1-.636-.636V56.227A5.734,5.734,0,0,1,19.227,50.5h7.636a5.734,5.734,0,0,1,5.727,5.727v5.091A.636.636,0,0,1,31.955,61.955ZM14.773,60.682H31.318V56.227a4.455,4.455,0,0,0-4.455-4.455H19.227a4.455,4.455,0,0,0-4.455,4.455Z" transform="translate(2.455 12.545)"/><path class="j" d="M16.136,58.864a.636.636,0,0,1-.636-.636V55.682A3.182,3.182,0,0,1,18.682,52.5a.636.636,0,1,1,0,1.273,1.909,1.909,0,0,0-1.909,1.909v2.545A.636.636,0,0,1,16.136,58.864Z" transform="translate(3 13.091)"/><path class="k" d="M26.682,58.864a.636.636,0,0,1-.636-.636V55.682a1.909,1.909,0,0,0-1.909-1.909.636.636,0,1,1,0-1.273,3.182,3.182,0,0,1,3.182,3.182v2.545A.636.636,0,0,1,26.682,58.864Z" transform="translate(5.182 13.091)"/><path class="c" d="M21.545,58.636,19,51h5.091Z" transform="translate(3.955 12.682)"/><path class="b" d="M21.682,59.409a.636.636,0,0,1-.6-.435l-2.545-7.636a.636.636,0,0,1,.6-.837h5.091a.636.636,0,0,1,.6.837l-2.545,7.636a.636.636,0,0,1-.6.435Zm-1.663-7.636,1.663,4.988,1.663-4.988Z" transform="translate(3.818 12.545)"/><path class="l" d="M22.091,43a5.091,5.091,0,0,1,5.091,5.091H17A5.091,5.091,0,0,1,22.091,43Z" transform="translate(3.409 10.5)"/><g transform="translate(8.318 19.773)"><path class="g" d="M27.318,48.864H17.136a.636.636,0,0,1-.636-.636,5.727,5.727,0,0,1,11.455,0A.636.636,0,0,1,27.318,48.864Zm-9.5-1.273h8.82a4.455,4.455,0,0,0-8.82,0Z" transform="translate(-5.045 -9.409)"/><path class="g" d="M32.136,71.227a.636.636,0,0,1-.636-.636V17.136a.636.636,0,1,1,1.273,0V70.591A.636.636,0,0,1,32.136,71.227Z" transform="translate(-0.955 -16.5)"/><path class="g" d="M46.136,71.227a.636.636,0,0,1-.636-.636V17.136a.636.636,0,1,1,1.273,0V70.591A.636.636,0,0,1,46.136,71.227Z" transform="translate(2.864 -16.5)"/><path class="g" d="M73.045,38.773H8.136a.636.636,0,1,1,0-1.273H73.045a.636.636,0,1,1,0,1.273Z" transform="translate(-7.5 -10.773)"/><path class="g" d="M38.682,31.864a.636.636,0,0,1-.451-.186l-2.545-2.545a.637.637,0,0,1,.9-.9l2.095,2.1,4.64-4.642a.637.637,0,1,1,.9.9l-5.091,5.091A.636.636,0,0,1,38.682,31.864Z" transform="translate(0.136 -14.046)"/><path class="g" d="M52.682,31.864a.636.636,0,0,1-.451-.186l-2.545-2.545a.637.637,0,0,1,.9-.9l2.095,2.1,4.64-4.642a.637.637,0,0,1,.9.9l-5.091,5.091A.636.636,0,0,1,52.682,31.864Z" transform="translate(3.954 -14.046)"/></g></g></svg>