<svg xmlns="http://www.w3.org/2000/svg" width="13.6" height="16" viewBox="0 0 13.6 16">
  <g id="_002-newspaper" data-name="002-newspaper" transform="translate(-38.4)">
    <g id="Group_14868" data-name="Group 14868" transform="translate(48.8)">
      <g id="Group_14867" data-name="Group 14867">
        <path id="Path_19509" data-name="Path 19509" d="M371.2,0V3.2h3.2Z" transform="translate(-371.2)" fill="#5e5e5e"/>
      </g>
    </g>
    <g id="Group_14870" data-name="Group 14870" transform="translate(38.4)">
      <g id="Group_14869" data-name="Group 14869">
        <path id="Path_19510" data-name="Path 19510" d="M47.2,4.8V0h-8a.756.756,0,0,0-.8.8V15.2a.756.756,0,0,0,.8.8h12a.8.8,0,0,0,.8-.8V4.8ZM40,2a.378.378,0,0,1,.4-.4h4.8a.378.378,0,0,1,.4.4V5.2a.378.378,0,0,1-.4.4H40.4a.378.378,0,0,1-.4-.4Zm7.2,10H40.8a.8.8,0,0,1,0-1.6h6.4a.756.756,0,0,1,.8.8A.8.8,0,0,1,47.2,12Zm2.4-3.2H40.8A.756.756,0,0,1,40,8a.756.756,0,0,1,.8-.8h8.8a.756.756,0,0,1,.8.8A.8.8,0,0,1,49.6,8.8Z" transform="translate(-38.4)" fill="#5e5e5e"/>
      </g>
    </g>
  </g>
</svg>
