<svg xmlns="http://www.w3.org/2000/svg" xmlns:xlink="http://www.w3.org/1999/xlink" width="31.535" height="36" viewBox="0 0 31.535 36"><defs><filter id="a" x="0" y="0" width="31.535" height="36" filterUnits="userSpaceOnUse"><feOffset dy="3" input="SourceAlpha"/><feGaussianBlur stdDeviation="3" result="b"/><feFlood flood-opacity="0.161"/><feComposite operator="in" in2="b"/><feComposite in="SourceGraphic"/></filter></defs><g transform="translate(-61.657 -25.255)"><g transform="translate(70.657 31.255)"><g transform="translate(0 0)"><g transform="matrix(1, 0, 0, 1, -9, -6)" filter="url(#a)"><path d="M82.791,49.255H72.059a1.4,1.4,0,0,1-1.4-1.4v-15.2a1.4,1.4,0,0,1,1.4-1.4H82.791a1.4,1.4,0,0,1,1.4,1.4v15.2A1.4,1.4,0,0,1,82.791,49.255Z" transform="translate(-61.66 -25.26)" fill="#fcc87f"/></g></g></g><g transform="translate(70.657 31.255)"><g transform="translate(0 0)"><path d="M72.659,47.853v-15.2a1.4,1.4,0,0,1,1.4-1.4h-2a1.4,1.4,0,0,0-1.4,1.4v15.2a1.4,1.4,0,0,0,1.4,1.4h2A1.4,1.4,0,0,1,72.659,47.853Z" transform="translate(-70.657 -31.255)" fill="#ffb74b"/></g></g><g transform="translate(71.559 35.537)"><g transform="translate(0 0)"><path d="M104.1,141.881H93.893a.721.721,0,0,1-.721-.721v-2.252a.721.721,0,0,1,.721-.721H104.1a.721.721,0,0,1,.721.721v2.252A.721.721,0,0,1,104.1,141.881Z" transform="translate(-93.172 -138.187)" fill="#fff4c1"/></g></g><g transform="translate(71.559 35.537)"><g transform="translate(0 0)"><path d="M96.435,141.881H93.893a.721.721,0,0,1-.721-.721v-2.252a.721.721,0,0,1,.721-.721h2.542a.721.721,0,0,1,.721.721v2.252A.721.721,0,0,1,96.435,141.881Z" transform="translate(-93.172 -138.187)" fill="#ccc033"/></g></g><g transform="translate(71.559 41.184)"><g transform="translate(0 0)"><path d="M104.1,282.881H93.893a.721.721,0,0,1-.721-.721v-2.252a.721.721,0,0,1,.721-.721H104.1a.721.721,0,0,1,.721.721v2.252A.721.721,0,0,1,104.1,282.881Z" transform="translate(-93.172 -279.187)" fill="#fff4c1"/></g></g><g transform="translate(71.559 41.184)"><g transform="translate(0 0)"><path d="M96.435,282.881H93.893a.721.721,0,0,1-.721-.721v-2.252a.721.721,0,0,1,.721-.721h2.542a.721.721,0,0,1,.721.721v2.252A.721.721,0,0,1,96.435,282.881Z" transform="translate(-93.172 -279.187)" fill="#ff9079"/></g></g><g transform="translate(76.06 37.023)"><g transform="translate(0 0)"><path d="M211.8,176.025h-5.875a.361.361,0,0,1,0-.721H211.8a.361.361,0,0,1,0,.721Z" transform="translate(-205.573 -175.304)" fill="#a56021"/></g></g><g transform="translate(76.06 42.149)"><g transform="translate(0 0)"><path d="M211.8,304.025h-5.875a.361.361,0,0,1,0-.721H211.8a.361.361,0,0,1,0,.721Z" transform="translate(-205.573 -303.304)" fill="#a56021"/></g></g><g transform="translate(76.06 43.471)"><g transform="translate(0 0)"><path d="M209.74,337.025h-3.934c-.129,0-.233-.161-.233-.36s.1-.36.233-.36h3.934c.129,0,.233.161.233.36S209.868,337.025,209.74,337.025Z" transform="translate(-205.573 -336.304)" fill="#a56021"/></g></g><g transform="translate(81.286 44.117)"><g transform="translate(0 0)"><path d="M336.862,352.45l-.779,2.728.008.044.229.826a.12.12,0,0,0,.206.059l.664-.611.779-2.728Z" transform="translate(-336.083 -352.45)" fill="#fff4c1"/></g></g><g transform="translate(81.286 44.117)"><g transform="translate(0 0)"><path d="M336.554,355.349l-.008-.044.777-2.722-.461-.133-.779,2.728.008.044.229.826a.12.12,0,0,0,.206.059l.19-.174Z" transform="translate(-336.083 -352.45)" fill="#fce575"/></g></g><g transform="translate(81.426 47.366)"><g transform="translate(0 0)"><path d="M339.587,433.574l.1.349a.12.12,0,0,0,.206.059l.266-.245Z" transform="translate(-339.587 -433.574)" fill="#a56021"/></g></g><g transform="translate(81.487 33.899)"><g transform="translate(0 0)"><path d="M342.431,109.214l-1.178-.339a.217.217,0,0,1-.134-.275l3.051-10.684a.824.824,0,0,1,.986-.618l.074.021a.828.828,0,0,1,.511,1.049l-3.051,10.684A.216.216,0,0,1,342.431,109.214Z" transform="translate(-341.11 -97.271)" fill="#fce575"/></g></g><g transform="translate(81.487 33.899)"><g transform="translate(0 0)"><path d="M341.966,109.072a.217.217,0,0,1-.134-.275l3.051-10.684a.876.876,0,0,1,.637-.628.711.711,0,0,0-.289-.165l-.074-.021a.824.824,0,0,0-.986.618L341.12,108.6a.217.217,0,0,0,.134.275l1.178.339a.185.185,0,0,0,.055.007Z" transform="translate(-341.11 -97.272)" fill="#ffd551"/></g></g><g transform="translate(82.331 36.24)"><g transform="translate(0 0)"><path d="M362.68,159.347l-.183-.053a.471.471,0,0,1-.29-.6l.738-2.583a.469.469,0,0,1,.561-.351l.183.053a.471.471,0,0,1,.29.6L363.241,159A.469.469,0,0,1,362.68,159.347Z" transform="translate(-362.186 -155.747)" fill="#ffc34c"/></g></g><g transform="translate(82.375 35.77)"><g transform="translate(0 0)"><path d="M364.67,150.363l-1.013-.292a.589.589,0,0,1-.363-.746l1.392-4.874a.586.586,0,0,1,.7-.439l1.013.292a.589.589,0,0,1,.363.746l-1.392,4.874A.586.586,0,0,1,364.67,150.363Z" transform="translate(-363.268 -143.994)" fill="#ff624b"/></g></g><g transform="translate(82.37 35.769)"><g transform="translate(0 0)"><path d="M364.334,150.26a.589.589,0,0,1-.363-.746l1.392-4.874a.6.6,0,0,1,.61-.456l-.692-.2a.586.586,0,0,0-.7.439l-1.392,4.874a.589.589,0,0,0,.363.746l1.013.291a.5.5,0,0,0,.091.017Z" transform="translate(-363.161 -143.965)" fill="#ff4b34"/></g></g><g transform="translate(84.081 35.339)"><path d="M407.524,134.183l-1.5-.413a.22.22,0,0,1-.154-.271l.03-.11a.22.22,0,0,1,.271-.154l1.5.413a.22.22,0,0,1,.154.271l-.03.11A.22.22,0,0,1,407.524,134.183Z" transform="translate(-405.865 -133.228)" fill="#ffd551"/></g><g transform="translate(84.081 35.335)"><g transform="translate(0 0)"><path d="M406.633,133.624l.027-.1a.215.215,0,0,1,.256-.164l-.748-.206a.215.215,0,0,0-.256.164l-.027.1a.215.215,0,0,0,.136.272l.748.206A.215.215,0,0,1,406.633,133.624Z" transform="translate(-405.876 -133.148)" fill="#ffc34c"/></g></g><g transform="translate(84.794 37.278)"><g transform="translate(0 0)"><path d="M423.922,182.608a.24.24,0,0,1-.232-.3l.126-.455a.24.24,0,1,1,.463.128l-.126.455A.24.24,0,0,1,423.922,182.608Z" transform="translate(-423.682 -181.672)" fill="#ff9079"/></g></g><g transform="translate(83.893 38.367)"><g transform="translate(0)"><path d="M401.414,211.982a.24.24,0,0,1-.232-.3l.727-2.636a.24.24,0,1,1,.463.128l-.727,2.636A.24.24,0,0,1,401.414,211.982Z" transform="translate(-401.174 -208.865)" fill="#ff9079"/></g></g><g transform="translate(71.559 41.184)"><g transform="translate(0 0)"><path d="M93.893,279.187a.721.721,0,0,0-.721.721v2.252a.721.721,0,0,0,.721.721h.38v-3.694Z" transform="translate(-93.172 -279.187)" fill="#ff624b"/></g></g><g transform="translate(71.559 35.537)"><g transform="translate(0 0)"><path d="M93.893,138.187a.721.721,0,0,0-.721.721v2.252a.721.721,0,0,0,.721.721h.38v-3.694Z" transform="translate(-93.172 -138.187)" fill="#99af17"/></g></g><g transform="translate(72.56 41.882)"><g transform="translate(0)"><path d="M119.467,298.394h-.694a.169.169,0,0,0-.159.113l-.081.23a.168.168,0,0,1-.159.113h-.023a.169.169,0,0,1-.159-.225l.677-1.893a.169.169,0,0,1,.159-.112h.185a.169.169,0,0,1,.159.112l.677,1.893a.169.169,0,0,1-.159.225h-.026a.169.169,0,0,1-.159-.113l-.081-.23A.168.168,0,0,0,119.467,298.394Zm-.5-.88-.126.358a.169.169,0,0,0,.159.225h.251a.169.169,0,0,0,.159-.224l-.125-.358A.169.169,0,0,0,118.962,297.514Z" transform="translate(-118.183 -296.619)" fill="#8c4c17"/></g></g><g transform="translate(73.3 45.773)"><g transform="translate(0)"><circle cx="0.633" cy="0.633" r="0.633" fill="#ffb74b"/></g></g><g transform="translate(75.068 47.179)"><g transform="translate(0 0)"><circle cx="0.633" cy="0.633" r="0.633" fill="#ffb74b"/></g></g><g transform="translate(81.923 46.88)"><g transform="translate(0 0)"><path d="M352.24,423.537h0a.24.24,0,0,1,0-.48h0a1.258,1.258,0,0,0,.82-.348,1.339,1.339,0,0,0,.3-1.024.24.24,0,0,1,.48-.024,1.792,1.792,0,0,1-.437,1.384A1.733,1.733,0,0,1,352.24,423.537Z" transform="translate(-352 -421.432)" fill="#ffeacf"/></g></g><path d="M-20.359-58.214v.887h-.416v-2.391h.915a.925.925,0,0,1,.636.209.7.7,0,0,1,.236.552.679.679,0,0,1-.231.548.97.97,0,0,1-.646.2Zm0-.335h.5a.492.492,0,0,0,.338-.1.383.383,0,0,0,.117-.3.414.414,0,0,0-.118-.31.456.456,0,0,0-.325-.119h-.511Z" transform="translate(93.603 95.991)" fill="#393939"/></g></svg>