<svg xmlns="http://www.w3.org/2000/svg" xmlns:xlink="http://www.w3.org/1999/xlink" width="32.312" height="31.23" viewBox="0 0 32.312 31.23"><defs><filter id="a" x="0" y="0" width="32.312" height="31.23" filterUnits="userSpaceOnUse"><feOffset dy="3" input="SourceAlpha"/><feGaussianBlur stdDeviation="3" result="b"/><feFlood flood-opacity="0.161"/><feComposite operator="in" in2="b"/><feComposite in="SourceGraphic"/></filter></defs><g transform="translate(3.312 1.23)"><g transform="matrix(1, 0, 0, 1, -3.31, -1.23)" filter="url(#a)"><path d="M21.651,9.67H21.1v6.866c0,1.069-.546,2.036-1.64,2.036H8.743V18.9a2.042,2.042,0,0,0,1.911,1.9h8.2l3.136,2.1-.455-2.1h.12c.967,0,1.4-.952,1.4-1.9V11.3C23.055,10.355,22.619,9.67,21.651,9.67Z" transform="translate(0.26 -3.67)" fill="#0ab69f"/></g><path d="M14.808,3.24H2.356A2.532,2.532,0,0,0,0,5.42v8.606c0,.985,1.068,1.7,2.093,1.806l-.667,2.887L5.7,15.852h9.109a1.983,1.983,0,0,0,2.106-1.826V5.42A2.288,2.288,0,0,0,14.808,3.24ZM4.256,10.5A1.211,1.211,0,0,1,3.131,9.222,1.211,1.211,0,0,1,4.256,7.939,1.212,1.212,0,0,1,5.381,9.222,1.212,1.212,0,0,1,4.256,10.5Zm4.2,0A1.211,1.211,0,0,1,7.332,9.222,1.211,1.211,0,0,1,8.457,7.939,1.211,1.211,0,0,1,9.582,9.222,1.211,1.211,0,0,1,8.457,10.5Zm4.2,0a1.212,1.212,0,0,1-1.125-1.283,1.212,1.212,0,0,1,1.125-1.283,1.212,1.212,0,0,1,1.125,1.283A1.212,1.212,0,0,1,12.659,10.5Z" transform="translate(0 -3.24)" fill="#fab977"/></g></svg>