<svg xmlns="http://www.w3.org/2000/svg" xmlns:xlink="http://www.w3.org/1999/xlink" width="37.244" height="36" viewBox="0 0 37.244 36"><defs><filter id="a" x="0" y="0" width="37.244" height="36" filterUnits="userSpaceOnUse"><feOffset dy="3" input="SourceAlpha"/><feGaussianBlur stdDeviation="3" result="b"/><feFlood flood-opacity="0.161"/><feComposite operator="in" in2="b"/><feComposite in="SourceGraphic"/></filter></defs><g transform="translate(9 6)"><g transform="matrix(1, 0, 0, 1, -9, -6)" filter="url(#a)"><path d="M18.349,18H.9a.9.9,0,0,1-.9-.9V1.021A1.021,1.021,0,0,1,1.022,0H18.277a.967.967,0,0,1,.967.967V17.1a.9.9,0,0,1-.9.9Zm0,0" transform="translate(9 6)" fill="#f4f4f4"/></g><path d="M474.773,0h-.449a.991.991,0,0,1,.044.293V17.707a.991.991,0,0,1-.044.293h.521a.9.9,0,0,0,.9-.9V.967A.967.967,0,0,0,474.773,0Zm0,0" transform="translate(-456.497 0)" fill="#e8e8e8"/><path d="M0,3.464H19.243V.922A.922.922,0,0,0,18.321,0H.922A.922.922,0,0,0,0,.922Zm0,0" transform="translate(0 0)" fill="#5994ce"/><path d="M474.818,0h-.494a.991.991,0,0,1,.044.293V3.464h1.372V.922A.922.922,0,0,0,474.818,0Zm0,0" transform="translate(-456.497 0)" fill="#4c7eb0"/><path d="M44.637,28.578a.684.684,0,1,1-.684-.684A.684.684,0,0,1,44.637,28.578Zm0,0" transform="translate(-41.644 -26.846)" fill="#fa5d72"/><path d="M106.2,28.578a.684.684,0,1,1-.684-.684A.684.684,0,0,1,106.2,28.578Zm0,0" transform="translate(-100.892 -26.846)" fill="#f6d867"/><path d="M167.762,28.578a.684.684,0,1,1-.684-.684A.684.684,0,0,1,167.762,28.578Zm0,0" transform="translate(-160.141 -26.846)" fill="#279463"/><path d="M0,92.164v13.614a.922.922,0,0,0,.922.922H6.254V92.164Zm0,0" transform="translate(0 -88.701)" fill="#a7c3de"/><path d="M151.5,92.164h.56V106.7h-.56Zm0,0" transform="translate(-145.806 -88.701)" fill="#93acc4"/><path d="M202.658,133.581h-4.051a.3.3,0,0,1-.3-.3v-3.036a.3.3,0,0,1,.3-.3h4.051a.3.3,0,0,1,.3.3v3.036A.3.3,0,0,1,202.658,133.581Zm0,0" transform="translate(-190.856 -125.065)" fill="#fa5d72"/><path d="M296,129.949h-.7a.335.335,0,0,1,.042.163v3.307a.335.335,0,0,1-.042.163h.7a.3.3,0,0,0,.3-.3v-3.036A.3.3,0,0,0,296,129.949Zm0,0" transform="translate(-284.199 -125.065)" fill="#e35567"/><path d="M362.285,133.581h-3.946a.35.35,0,0,1-.35-.35V130.3a.35.35,0,0,1,.35-.35h3.946a.35.35,0,0,1,.35.35v2.932A.35.35,0,0,1,362.285,133.581Zm0,0" transform="translate(-344.534 -125.065)" fill="#fa5d72"/><path d="M455.688,129.949h-.648a.392.392,0,0,1,.07.225v3.183a.392.392,0,0,1-.07.225h.648a.35.35,0,0,0,.35-.35V130.3A.35.35,0,0,0,455.688,129.949Zm0,0" transform="translate(-437.937 -125.065)" fill="#e35567"/><path d="M208.659,263.484H198.607a.3.3,0,0,1-.3-.3v-3.354a.3.3,0,0,1,.3-.3h10.052a.3.3,0,0,1,.3.3v3.354A.3.3,0,0,1,208.659,263.484Zm0,0" transform="translate(-190.856 -249.781)" fill="#fa5d72"/><path d="M456.567,259.535H455.9a.338.338,0,0,1,.023.123v3.7a.341.341,0,0,1-.023.123h.669a.3.3,0,0,0,.3-.3v-3.354A.3.3,0,0,0,456.567,259.535Zm0,0" transform="translate(-438.764 -249.781)" fill="#e35567"/><path d="M208.679,402.743H198.607a.3.3,0,0,1-.3-.3v-.674a.3.3,0,0,1,.3-.3h10.073a.3.3,0,0,1,.3.3v.674A.3.3,0,0,1,208.679,402.743Zm0,0" transform="translate(-190.856 -386.384)" fill="#fba826"/><path d="M451.183,401.473h-.891a.307.307,0,0,1,.307.307v.656a.307.307,0,0,1-.307.307h.891a.307.307,0,0,0,.307-.307v-.656A.307.307,0,0,0,451.183,401.473Zm0,0" transform="translate(-433.369 -386.384)" fill="#e09721"/><g transform="translate(0.92 1.441)"><path d="M270,38.646a.29.29,0,0,0-.29-.29h-7.073a.29.29,0,1,0,0,.581h7.073A.29.29,0,0,0,270,38.646Zm0,0" transform="translate(-253.41 -38.355)" fill="#495663"/><path d="M24.767,128.265H28.6a.29.29,0,0,0,0-.581H24.767a.29.29,0,0,0,0,.581Zm0,0" transform="translate(-24.477 -124.326)" fill="#495663"/><path d="M24.767,176.6H28.6a.29.29,0,1,0,0-.581H24.767a.29.29,0,1,0,0,.581Zm0,0" transform="translate(-24.477 -170.842)" fill="#495663"/><path d="M24.767,224.929H28.6a.29.29,0,1,0,0-.581H24.767a.29.29,0,1,0,0,.581Zm0,0" transform="translate(-24.477 -217.357)" fill="#495663"/><path d="M24.767,273.26H28.6a.29.29,0,1,0,0-.581H24.767a.29.29,0,1,0,0,.581Zm0,0" transform="translate(-24.477 -263.873)" fill="#495663"/></g></g></svg>