<svg xmlns="http://www.w3.org/2000/svg" xmlns:xlink="http://www.w3.org/1999/xlink" width="30.98" height="29.357" viewBox="0 0 30.98 29.357"><defs><filter id="a" x="0" y="0" width="30.98" height="29.357" filterUnits="userSpaceOnUse"><feOffset dy="3" input="SourceAlpha"/><feGaussianBlur stdDeviation="3" result="b"/><feFlood flood-opacity="0.161"/><feComposite operator="in" in2="b"/><feComposite in="SourceGraphic"/></filter></defs><g transform="translate(1232.512 157.763)"><g transform="translate(-1223.512 -156.63)"><g transform="matrix(1, 0, 0, 1, -9, -1.13)" filter="url(#a)"><path d="M20.98,16H8v9.735a1.627,1.627,0,0,0,1.622,1.622h9.735a1.627,1.627,0,0,0,1.622-1.622Z" transform="translate(1 -10)" fill="#616161"/></g><path d="M19.357,4H9.622A1.627,1.627,0,0,0,8,5.622V9.273H20.98V5.622A1.627,1.627,0,0,0,19.357,4Z" transform="translate(-8 -4)" fill="#424242"/><path d="M21.14,9.839H11.406A.383.383,0,0,1,11,9.434V7.406A.383.383,0,0,1,11.406,7H21.14a.383.383,0,0,1,.406.406V9.434A.383.383,0,0,1,21.14,9.839Z" transform="translate(-9.783 -5.783)" fill="#9ccc65"/><g transform="translate(8.507 2.446)"><rect width="0.821" height="0.778" transform="translate(1.642 0)" fill="#33691e"/><rect width="0.821" height="0.778" transform="translate(0 0)" fill="#33691e"/></g><path d="M33.622,20.622H32.406A.383.383,0,0,1,32,20.217v-.811A.383.383,0,0,1,32.406,19h1.217a.383.383,0,0,1,.406.406v.811A.383.383,0,0,1,33.622,20.622Z" transform="translate(-22.265 -12.916)" fill="#ff5252"/><g transform="translate(1.217 6.084)"><path d="M12.622,20.622H11.406A.383.383,0,0,1,11,20.217v-.811A.383.383,0,0,1,11.406,19h1.217a.383.383,0,0,1,.406.406v.811A.383.383,0,0,1,12.622,20.622Z" transform="translate(-11 -19)" fill="#e0e0e0"/><path d="M19.622,20.622H18.406A.383.383,0,0,1,18,20.217v-.811A.383.383,0,0,1,18.406,19h1.217a.383.383,0,0,1,.406.406v.811A.383.383,0,0,1,19.622,20.622Z" transform="translate(-15.161 -19)" fill="#e0e0e0"/><path d="M26.622,20.622H25.406A.383.383,0,0,1,25,20.217v-.811A.383.383,0,0,1,25.406,19h1.217a.383.383,0,0,1,.406.406v.811A.383.383,0,0,1,26.622,20.622Z" transform="translate(-19.321 -19)" fill="#e0e0e0"/><path d="M12.622,26.622H11.406A.383.383,0,0,1,11,26.217v-.811A.383.383,0,0,1,11.406,25h1.217a.383.383,0,0,1,.406.406v.811A.383.383,0,0,1,12.622,26.622Z" transform="translate(-11 -22.566)" fill="#e0e0e0"/><path d="M19.622,26.622H18.406A.383.383,0,0,1,18,26.217v-.811A.383.383,0,0,1,18.406,25h1.217a.383.383,0,0,1,.406.406v.811A.383.383,0,0,1,19.622,26.622Z" transform="translate(-15.161 -22.566)" fill="#e0e0e0"/><path d="M26.622,26.622H25.406A.383.383,0,0,1,25,26.217v-.811A.383.383,0,0,1,25.406,25h1.217a.383.383,0,0,1,.406.406v.811A.383.383,0,0,1,26.622,26.622Z" transform="translate(-19.321 -22.566)" fill="#e0e0e0"/><path d="M12.622,32.622H11.406A.383.383,0,0,1,11,32.217v-.811A.383.383,0,0,1,11.406,31h1.217a.383.383,0,0,1,.406.406v.811A.383.383,0,0,1,12.622,32.622Z" transform="translate(-11 -26.133)" fill="#e0e0e0"/><path d="M19.622,32.622H18.406A.383.383,0,0,1,18,32.217v-.811A.383.383,0,0,1,18.406,31h1.217a.383.383,0,0,1,.406.406v.811A.383.383,0,0,1,19.622,32.622Z" transform="translate(-15.161 -26.133)" fill="#e0e0e0"/><path d="M26.622,32.622H25.406A.383.383,0,0,1,25,32.217v-.811A.383.383,0,0,1,25.406,31h1.217a.383.383,0,0,1,.406.406v.811A.383.383,0,0,1,26.622,32.622Z" transform="translate(-19.321 -26.133)" fill="#e0e0e0"/><path d="M12.622,38.622H11.406A.383.383,0,0,1,11,38.217v-.811A.383.383,0,0,1,11.406,37h1.217a.383.383,0,0,1,.406.406v.811A.383.383,0,0,1,12.622,38.622Z" transform="translate(-11 -29.699)" fill="#e0e0e0"/><path d="M19.622,38.622H18.406A.383.383,0,0,1,18,38.217v-.811A.383.383,0,0,1,18.406,37h1.217a.383.383,0,0,1,.406.406v.811A.383.383,0,0,1,19.622,38.622Z" transform="translate(-15.161 -29.699)" fill="#e0e0e0"/><path d="M26.622,38.622H25.406A.383.383,0,0,1,25,38.217v-.811A.383.383,0,0,1,25.406,37h1.217a.383.383,0,0,1,.406.406v.811A.383.383,0,0,1,26.622,38.622Z" transform="translate(-19.321 -29.699)" fill="#e0e0e0"/></g><g transform="translate(9.735 8.518)"><path d="M33.622,26.622H32.406A.383.383,0,0,1,32,26.217v-.811A.383.383,0,0,1,32.406,25h1.217a.383.383,0,0,1,.406.406v.811A.383.383,0,0,1,33.622,26.622Z" transform="translate(-32 -25)" fill="#bdbdbd"/><path d="M33.622,32.622H32.406A.383.383,0,0,1,32,32.217v-.811A.383.383,0,0,1,32.406,31h1.217a.383.383,0,0,1,.406.406v.811A.383.383,0,0,1,33.622,32.622Z" transform="translate(-32 -28.566)" fill="#bdbdbd"/><path d="M33.622,38.622H32.406A.383.383,0,0,1,32,38.217v-.811A.383.383,0,0,1,32.406,37h1.217a.383.383,0,0,1,.406.406v.811A.383.383,0,0,1,33.622,38.622Z" transform="translate(-32 -32.133)" fill="#bdbdbd"/></g></g><g transform="translate(-1216.679 -148.174)" fill="#ff6680" stroke="#fff" stroke-width="1"><circle cx="4.772" cy="4.772" r="4.772" stroke="none"/><circle cx="4.772" cy="4.772" r="4.272" fill="none"/></g><path d="M1.5-6.22a1.5,1.5,0,0,1-.1.524,2.618,2.618,0,0,1-.276.536,3.456,3.456,0,0,1-.407.5,3.233,3.233,0,0,1-.493.416,2.7,2.7,0,0,1-.533.285,1.443,1.443,0,0,1-.53.107,3.57,3.57,0,0,1-.453-.031,1.179,1.179,0,0,1-.438-.144.9.9,0,0,1-.331-.34,1.247,1.247,0,0,1-.132-.625V-6.71h-.269l-.606-.6h.876v-.545q0-.153.015-.34a1.4,1.4,0,0,0-.012-.349.549.549,0,0,0-.122-.273.4.4,0,0,0-.315-.11,1.065,1.065,0,0,0-.138.009.254.254,0,0,0-.126.052l-.2-.576a2.526,2.526,0,0,1,.3-.1,1.187,1.187,0,0,1,.315-.043.937.937,0,0,1,.465.1.76.76,0,0,1,.279.266,1.025,1.025,0,0,1,.135.38,2.878,2.878,0,0,1,.034.447v1.072h.2l.588.612h-.79V-5a.448.448,0,0,0,.184.407.815.815,0,0,0,.453.119,1.117,1.117,0,0,0,.539-.147A1.965,1.965,0,0,0,.1-4.989,1.863,1.863,0,0,0,.435-5.47a.932.932,0,0,0,.107-.481L.537-5.994l-.129.006a.923.923,0,0,1-.322-.031A.76.76,0,0,1-.177-6.15a.633.633,0,0,1-.181-.23A.744.744,0,0,1-.425-6.7.93.93,0,0,1-.22-7.341.778.778,0,0,1,.4-7.574a1.2,1.2,0,0,1,.53.1.883.883,0,0,1,.34.288,1.2,1.2,0,0,1,.184.432A2.438,2.438,0,0,1,1.5-6.22Z" transform="translate(-1210.845 -136.672)" fill="#fff" stroke="#fff" stroke-width="0.4"/></g></svg>