<svg xmlns="http://www.w3.org/2000/svg" width="18" height="18" viewBox="0 0 18 18"><g transform="translate(-0.002)"><g transform="translate(0.002 1.2)"><path d="M1.2,33.133a1.2,1.2,0,0,0-1.2,1.2v9.6l.181.622L0,45.133H18l-.507-.592L18,43.933v-9.6a1.2,1.2,0,0,0-1.2-1.2H1.2Z" transform="translate(-0.002 -33.133)" fill="#5b7fa0"/><path d="M442.9,45.134l-.4-.592.4-.608v-9.6a1.2,1.2,0,0,0-1.2-1.2h-.833a1.2,1.2,0,0,1,1.2,1.2v10.8h.833Z" transform="translate(-424.898 -33.134)" fill="#4a6f99"/><path d="M183.191,392.193l-.3-2.4V389.5h-4.5v.293l-.3,2.4v.337h5.1Z" transform="translate(-171.641 -376.593)" fill="#bec8f7"/><path d="M225.906,391.844h-1.2a.272.272,0,0,1-.272-.272v-1.2a.272.272,0,1,1,.543,0v.928h.657v-.928a.272.272,0,1,1,.543,0v1.2A.272.272,0,0,1,225.906,391.844Z" transform="translate(-216.306 -377.173)" fill="#a2b6f4"/><path d="M33.133,75.868v-9.3a.3.3,0,0,1,.3-.3h15a.3.3,0,0,1,.3.3v9.3Z" transform="translate(-31.933 -65.068)" fill="#77dfff"/><path d="M433.415,66.268h-.833a.3.3,0,0,1,.3.3v9.3h.833v-9.3A.3.3,0,0,0,433.415,66.268Z" transform="translate(-416.915 -65.068)" fill="#69cdff"/><path d="M140.644,463.868h-7.82a.29.29,0,0,0-.29.29v.62a.29.29,0,0,0,.29.29h7.82a.29.29,0,0,0,.29-.29v-.62A.29.29,0,0,0,140.644,463.868Z" transform="translate(-127.734 -448.268)" fill="#e9efff"/><path d="M334.3,463.868h-.833a.29.29,0,0,1,.29.29v.62a.29.29,0,0,1-.29.29h.833a.29.29,0,0,0,.29-.29v-.62A.29.29,0,0,0,334.3,463.868Z" transform="translate(-321.39 -448.268)" fill="#d3dcfb"/><path d="M18,332.535l-.254-.633.254-.567H0v1.2a1.2,1.2,0,0,0,1.2,1.2H16.8a1.2,1.2,0,0,0,1.2-1.2Z" transform="translate(-0.002 -320.535)" fill="#e9efff"/><path d="M442.065,332.535a1.2,1.2,0,0,1-1.2,1.2h.833a1.2,1.2,0,0,0,1.2-1.2v-1.2h-.833Z" transform="translate(-424.898 -320.535)" fill="#d3dcfb"/></g><g transform="translate(2.74 5.138)"><path d="M76.152,175.514H77.69a.262.262,0,0,0,0-.525H76.152a.563.563,0,0,0-.562.562v1.8a.563.563,0,0,0,.562.562H77.69a.262.262,0,0,0,0-.525H76.152a.038.038,0,0,1-.038-.038v-.638h.938a.262.262,0,1,0,0-.525h-.938v-.638a.038.038,0,0,1,.038-.038Z" transform="translate(-75.59 -173.789)" fill="#e9efff"/><path d="M160.32,191.555h-.6a.262.262,0,1,0,0,.525h.6a.262.262,0,0,0,0-.525Z" transform="translate(-156.421 -189.755)" fill="#e9efff"/><path d="M160.32,224.689h-.6a.262.262,0,1,0,0,.525h.6a.262.262,0,0,0,0-.525Z" transform="translate(-156.421 -221.689)" fill="#e9efff"/><path d="M210.186,191.555a.86.86,0,0,1-1.2,0,.857.857,0,0,0-.4.1.262.262,0,0,0-.466.165v1.8a.262.262,0,0,0,.525,0v-1.2a.338.338,0,0,1,.675,0v1.2a.262.262,0,0,0,.525,0v-1.2a.338.338,0,0,1,.675,0v1.2a.262.262,0,1,0,.525,0v-1.2A.863.863,0,0,0,210.186,191.555Z" transform="translate(-203.324 -189.755)" fill="#e9efff"/><path d="M309.532,193.122a.262.262,0,0,0-.37.02.638.638,0,1,1,0-.85.262.262,0,1,0,.391-.35,1.162,1.162,0,1,0,0,1.55A.262.262,0,0,0,309.532,193.122Z" transform="translate(-299.124 -189.755)" fill="#e9efff"/><path d="M375.25,143.655h-.413l.327-.245a.862.862,0,1,0-1.376-.693.262.262,0,1,0,.525,0,.338.338,0,1,1,.538.272l-.957.718a.262.262,0,0,0,.157.472h1.2a.262.262,0,1,0,0-.525Z" transform="translate(-362.988 -141.855)" fill="#e9efff"/></g><path d="M155.721,4.8h-6.041a.579.579,0,0,1-.579-.579V.579A.579.579,0,0,1,149.679,0h6.041a.579.579,0,0,1,.579.579V4.221A.579.579,0,0,1,155.721,4.8Z" transform="translate(-143.698 0)" fill="#ff6c6c"/><path d="M220.486,39.971V38.542a.3.3,0,0,1,.434-.268l1.429.715a.3.3,0,0,1,0,.537l-1.429.715A.3.3,0,0,1,220.486,39.971Z" transform="translate(-212.499 -36.857)" fill="#e9efff"/><path d="M309.733,0H308.9a.579.579,0,0,1,.579.579V4.221a.579.579,0,0,1-.579.579h.833a.579.579,0,0,0,.579-.579V.579A.579.579,0,0,0,309.733,0Z" transform="translate(-297.711)" fill="#f74242"/></g></svg>