<svg xmlns="http://www.w3.org/2000/svg" width="18.747" height="18" viewBox="0 0 18.747 18"><g transform="translate(781.867 1622)"><g transform="translate(-775.386 -1618.119)"><path d="M195.229,0h7.409a2.427,2.427,0,0,1,2.429,2.429V13.541a.577.577,0,0,1-.922.461l-2.316-1.737h-6.6A2.427,2.427,0,0,1,192.8,9.837V2.428A2.427,2.427,0,0,1,195.229,0Zm0,0" transform="translate(-192.801 0)" fill="#c2dfff"/><path d="M257.642,208.867h2.51a.576.576,0,1,1,0,1.153h-2.51a.576.576,0,1,1,0-1.153Zm0,0" transform="translate(-250.933 -200.841)" fill="#3ab4fb"/><path d="M354.827,0h3.7V12.265h-3.7A2.427,2.427,0,0,1,352.4,9.837V2.428A2.427,2.427,0,0,1,354.827,0Zm0,0" transform="translate(-352.399 0)" fill="#a8d4ff"/><path d="M257.642,80.332h6.174a.576.576,0,1,1,0,1.153h-6.174a.576.576,0,1,1,0-1.153Zm0,0" transform="translate(-254.596 -77.245)" fill="#3ab4fb"/><path d="M257.642,144.6h6.174a.576.576,0,1,1,0,1.153h-6.174a.576.576,0,1,1,0-1.153Zm0,0" transform="translate(-254.596 -139.045)" fill="#3ab4fb"/><path d="M352.4,80.9a.576.576,0,0,0,.576.576h3.087V80.328h-3.087A.577.577,0,0,0,352.4,80.9Zm0,0" transform="translate(-349.928 -77.241)" fill="#1d9cfd"/><path d="M352.4,145.178a.577.577,0,0,0,.576.576h3.087V144.6h-3.087A.576.576,0,0,0,352.4,145.178Zm0,0" transform="translate(-349.928 -139.045)" fill="#1d9cfd"/></g><g transform="translate(-781.867 -1622)"><path d="M196.732,6.3a6.3,6.3,0,1,0-10.44,4.747.274.274,0,0,1-.04.442l-1.187.7a.219.219,0,0,0,.112.408h5.375A6.3,6.3,0,0,0,196.732,6.3Z" transform="translate(-184.133 0)" fill="#7acaa6"/><path d="M216.37,0q-.253,0-.5.027a6.3,6.3,0,0,1-.475,12.569h1.188A6.3,6.3,0,0,0,216.37,0Z" transform="translate(-210.164 0)" fill="#57be92"/><g transform="translate(3.912 1.795)"><circle cx="0.594" cy="0.594" r="0.594" transform="translate(1.799 7.821)" fill="#fff"/><path d="M288.326,53.368a.594.594,0,0,1-.594-.594V50.9a.594.594,0,0,1,.594-.594,1.2,1.2,0,0,0,1.2-1.264,1.2,1.2,0,0,0-1.173-1.135h-.025a1.2,1.2,0,0,0-1.189,1.032,1.224,1.224,0,0,0-.012.168.594.594,0,0,1-1.188,0,2.387,2.387,0,0,1,4.771-.126,2.368,2.368,0,0,1-.653,1.77,2.4,2.4,0,0,1-1.137.668v1.357A.594.594,0,0,1,288.326,53.368Z" transform="translate(-285.939 -46.717)" fill="#fff"/></g></g></g></svg>