<svg xmlns="http://www.w3.org/2000/svg" width="18" height="18" viewBox="0 0 18 18"><g transform="translate(-11 -11)"><path d="M34.173,73H18.833v4.868h15.34c.735,0,1.33-1.09,1.33-2.434S34.907,73,34.173,73Z" transform="translate(-6.503 -51.472)" fill="#fcd088"/><path d="M13.661,75.434c0,1.345-.6,2.433-1.331,2.433S11,76.779,11,75.434,11.6,73,12.33,73,13.661,74.089,13.661,75.434Z" transform="translate(0 -51.472)" fill="#ecd6b2"/><path d="M18.626,87.333c0,1.345-.6,2.433-1.331,2.433-.706-1.669,0-2.433,0-2.433Z" transform="translate(-4.965 -63.371)" fill="#f7ecda"/><path d="M71.67,73H64l1.642,2.434L64,77.868h7.67c.735,0,1.33-1.09,1.33-2.434S72.4,73,71.67,73Z" transform="translate(-44 -51.472)" fill="#ecd6b2"/><path d="M34.5,26.285v5.744c0,.269,2.242.778,5.009.778s5.009-.509,5.009-.778V26.285Z" transform="translate(-19.509 -12.689)" fill="#1db6bc"/><path d="M64,32.807c2.766,0,5.009-.509,5.009-.778V26.285H64Z" transform="translate(-44 -12.689)" fill="#17799b"/><path d="M60.944,73H59.372c.735,0,1.33,1.09,1.33,2.434s-.6,2.434-1.33,2.434h1.572c.735,0,1.33-1.09,1.33-2.434S61.678,73,60.944,73Z" transform="translate(-40.158 -51.472)" fill="#fd9e35"/><path d="M49.51,104.267l-.529-.735-1.208.735,1.019-2.6h1.736Z" transform="translate(-30.529 -75.267)" fill="#fed33c"/><path d="M65.019,104.267l.529-.735,1.208.735-1.019-2.6H64Z" transform="translate(-44 -75.267)" fill="#fd9e35"/><path d="M26.2,11l-7.732,2.6,7.732,2.6,7.732-2.6Z" transform="translate(-6.2)" fill="#606de0"/><path d="M104,25.9a.3.3,0,0,0-.3.3V32.1a.3.3,0,1,0,.594,0V26.2a.3.3,0,0,0-.3-.3Z" transform="translate(-76.959 -12.37)" fill="#714437"/><path d="M71.732,13.6,64,11v5.191Z" transform="translate(-44)" fill="#3647d7"/><path d="M102.756,65.307l-.693-.608-.693.608V62.438h1.386Z" transform="translate(-75.024 -42.703)" fill="#fd9e35"/></g></svg>