<svg xmlns="http://www.w3.org/2000/svg" xmlns:xlink="http://www.w3.org/1999/xlink" width="32.4" height="30" viewBox="0 0 32.4 30"><defs><filter id="a" x="0" y="6.15" width="32.4" height="23.85" filterUnits="userSpaceOnUse"><feOffset dy="3" input="SourceAlpha"/><feGaussianBlur stdDeviation="3" result="b"/><feFlood flood-opacity="0.161"/><feComposite operator="in" in2="b"/><feComposite in="SourceGraphic"/></filter></defs><g transform="translate(9)"><path d="M19.25,30.85C17.09,30.85,17,27.7,17,27.7V25h4.5v2.7S21.41,30.85,19.25,30.85Z" transform="translate(-12.05 -15.55)" fill="#ff9800"/><g transform="translate(2.227 5.829)"><circle cx="0.911" cy="0.911" r="0.911" transform="translate(8.101 0)" fill="#ffa726"/><circle cx="0.911" cy="0.911" r="0.911" transform="translate(0 0)" fill="#ffa726"/></g><path d="M21.1,10.374c0-3.42-8.1-2.25-8.1,0v3.15a4.05,4.05,0,1,0,8.1,0Z" transform="translate(-9.85 -6.324)" fill="#ffb74d"/><path d="M16.5,4C13.755,4,12,6.2,12,8.95V9.985l.9.765V8.5l5.4-1.8,1.8,1.8v2.25l.9-.765V8.95c0-1.8-.45-3.6-2.7-4.05L17.85,4H16.5Z" transform="translate(-9.3 -4)" fill="#424242"/><g transform="translate(4.959 6.309)"><circle cx="0.455" cy="0.455" r="0.455" transform="translate(3.595 0)" fill="#784719"/><circle cx="0.455" cy="0.455" r="0.455" transform="translate(0 0)" fill="#784719"/></g><g transform="matrix(1, 0, 0, 1, -9, 0)" filter="url(#a)"><path d="M15.45,31h0a3.262,3.262,0,0,1-4.5,0S6,31.9,6,36.85H20.4C20.4,31.9,15.45,31,15.45,31Z" transform="translate(3 -18.85)" fill="#009688"/></g><g transform="translate(12.599 0.029)"><rect width="4.455" height="4.455" transform="translate(3.15 0) rotate(45)" fill="#ff9800"/><rect width="4.506" height="4.506" transform="translate(0.892 0.863)" fill="#ff9800"/></g><circle cx="1.342" cy="1.342" r="1.342" transform="translate(14.402 1.803)" fill="#ffeb3b"/></g></svg>