<svg xmlns="http://www.w3.org/2000/svg" width="19.027" height="18" viewBox="0 0 19.027 18"><g transform="translate(209.347 1112.286)"><g transform="translate(-209.347 -1112.286)"><path d="M12,29.152V20H26.643v9.152a1.836,1.836,0,0,1-1.83,1.83H13.83A1.836,1.836,0,0,1,12,29.152Z" transform="translate(-12 -15.424)" fill="#cfd8dc"/><path d="M26.643,13.83v2.746H12V13.83A1.836,1.836,0,0,1,13.83,12H24.812A1.836,1.836,0,0,1,26.643,13.83Z" transform="translate(-12 -11.085)" fill="#78909c"/><g transform="translate(2.308 1.379)"><ellipse cx="1.389" cy="1.365" rx="1.389" ry="1.365" transform="translate(7.75 0)" fill="#37474f"/><circle cx="1.365" cy="1.365" r="1.365" transform="translate(0 0)" fill="#37474f"/></g><g transform="translate(2.746 0)"><path d="M35.915,10a.918.918,0,0,0-.915.915v1.83a.915.915,0,1,0,1.83,0v-1.83A.918.918,0,0,0,35.915,10Z" transform="translate(-27.221 -10)" fill="#b0bec5"/><path d="M18.915,10a.918.918,0,0,0-.915.915v1.83a.915.915,0,0,0,1.83,0v-1.83A.918.918,0,0,0,18.915,10Z" transform="translate(-18 -10)" fill="#b0bec5"/></g><rect width="1.852" height="1.852" transform="translate(9.132 10.981)" fill="#90a4ae"/><rect width="1.852" height="1.852" transform="translate(6.402 10.981)" fill="#90a4ae"/><rect width="1.803" height="1.852" transform="translate(3.673 10.981)" fill="#90a4ae"/><rect width="1.852" height="1.803" transform="translate(9.132 8.251)" fill="#90a4ae"/><rect width="1.852" height="1.803" transform="translate(6.402 8.251)" fill="#90a4ae"/><rect width="1.803" height="1.803" transform="translate(3.673 8.251)" fill="#90a4ae"/></g><g transform="translate(-201.288 -1105.253)"><circle cx="5.484" cy="5.484" r="5.484" transform="translate(0)" fill="#f44336"/><circle cx="4.119" cy="4.119" r="4.119" transform="translate(1.365 1.365)" fill="#eee"/><rect width="0.926" height="3.217" transform="translate(5.02 2.291)"/><rect width="0.869" height="2.471" transform="translate(7.537 6.91) rotate(135)"/><circle cx="0.686" cy="0.686" r="0.686" transform="translate(4.783 4.805)"/></g></g></svg>