<svg xmlns="http://www.w3.org/2000/svg" width="18" height="18" viewBox="0 0 18 18"><defs><style>.a{fill:#0ab69f;}</style></defs><path class="a" d="M17.3,12.375a.7.7,0,0,0,.7-.7V4.219a2.816,2.816,0,0,0-2.812-2.812h-.914V.7a.7.7,0,0,0-1.406,0v.7h-3.2V.7A.7.7,0,0,0,8.262.7v.7H5.1V.7A.7.7,0,1,0,3.691.7v.7H2.813A2.816,2.816,0,0,0,0,4.219V15.188A2.816,2.816,0,0,0,2.813,18H15.188A2.816,2.816,0,0,0,18,15.188a.7.7,0,1,0-1.406,0,1.408,1.408,0,0,1-1.406,1.406H2.813a1.408,1.408,0,0,1-1.406-1.406V4.219A1.408,1.408,0,0,1,2.813,2.813h.879v.7a.7.7,0,0,0,1.406,0v-.7H8.262v.7a.7.7,0,0,0,1.406,0v-.7h3.2v.7a.7.7,0,0,0,1.406,0v-.7h.914a1.408,1.408,0,0,1,1.406,1.406v7.453A.7.7,0,0,0,17.3,12.375Z"/><g transform="translate(3.691 6.68)"><circle class="a" cx="0.703" cy="0.703" r="0.703"/></g><g transform="translate(9.809 6.68)"><circle class="a" cx="0.703" cy="0.703" r="0.703"/></g><g transform="translate(12.867 6.68)"><circle class="a" cx="0.703" cy="0.703" r="0.703"/></g><g transform="translate(3.691 9.738)"><circle class="a" cx="0.703" cy="0.703" r="0.703"/></g><g transform="translate(3.691 12.797)"><circle class="a" cx="0.703" cy="0.703" r="0.703"/></g><g transform="translate(6.75 6.68)"><circle class="a" cx="0.703" cy="0.703" r="0.703"/></g><g transform="translate(6.75 9.738)"><circle class="a" cx="0.703" cy="0.703" r="0.703"/></g><g transform="translate(6.75 12.797)"><circle class="a" cx="0.703" cy="0.703" r="0.703"/></g><g transform="translate(9.809 9.738)"><circle class="a" cx="0.703" cy="0.703" r="0.703"/></g><g transform="translate(12.867 9.738)"><circle class="a" cx="0.703" cy="0.703" r="0.703"/></g><g transform="translate(9.809 12.797)"><circle class="a" cx="0.703" cy="0.703" r="0.703"/></g></svg>