<svg xmlns="http://www.w3.org/2000/svg" width="21" height="21" viewBox="0 0 21 21">
  <g id="Group_14641" data-name="Group 14641" transform="translate(-1803 -441)">
    <rect id="Rectangle_980" data-name="Rectangle 980" width="21" height="21" rx="4" transform="translate(1803 441)" fill="#ff6680"/>
    <g id="rubbish" transform="translate(1737.284 442.777)">
      <g id="Group_14638" data-name="Group 14638" transform="translate(70.007)">
        <g id="Group_14637" data-name="Group 14637" transform="translate(0)">
          <path id="Path_18856" data-name="Path 18856" d="M82.113,1.75H79V.569A.569.569,0,0,0,78.428,0H74.261a.569.569,0,0,0-.569.569V1.75H70.576a.569.569,0,0,0-.569.569v1.75a.569.569,0,0,0,.569.569H82.113a.569.569,0,0,0,.569-.569V2.319A.569.569,0,0,0,82.113,1.75Zm-4.254,0H74.83V1.138h3.029Z" transform="translate(-70.007)" fill="#fff"/>
        </g>
      </g>
      <g id="Group_14640" data-name="Group 14640" transform="translate(70.797 5.776)">
        <g id="Group_14639" data-name="Group 14639" transform="translate(0)">
          <path id="Path_18857" data-name="Path 18857" d="M93.192,169.5l.472,11.126a.569.569,0,0,0,.568.545h9.015a.569.569,0,0,0,.568-.545l.472-11.126Zm3.828,9.357a.569.569,0,1,1-1.138,0V171.81a.569.569,0,0,1,1.138,0Zm2.289,0a.569.569,0,1,1-1.138,0V171.81a.569.569,0,1,1,1.138,0Zm2.289,0a.569.569,0,1,1-1.138,0V171.81a.569.569,0,0,1,1.138,0Z" transform="translate(-93.192 -169.497)" fill="#fff"/>
        </g>
      </g>
    </g>
  </g>
</svg>
