<svg xmlns="http://www.w3.org/2000/svg" width="67.647" height="75" viewBox="0 0 67.647 75"><defs><style>.a{fill:#3c5d76;}.b{fill:#ff6680;}.c{fill:#ffeb99;}.d{fill:#1a6fb0;}.e{fill:#806749;}.f{fill:#f2f9ff;}</style></defs><g transform="translate(-4 -5)"><path class="a" d="M67.412,19.294V70.765a7.353,7.353,0,0,1-7.353,7.353H13V76.647H57.118a7.353,7.353,0,0,0,7.353-7.353V17.824L55.647,9h1.471Z" transform="translate(4.235 1.882)"/><path class="b" d="M53.706,19.706H41.941A2.95,2.95,0,0,1,39,16.765V5l5.882,5.882Z" transform="translate(16.471)"/><path class="c" d="M56.059,19.706a2.95,2.95,0,0,1-2.941-2.941V5H9V78.529H60.471a7.353,7.353,0,0,0,7.353-7.353V19.706Z" transform="translate(2.353)"/><g transform="translate(18.706 19.706)"><path class="d" d="M24,15H38.706v2.941H24Z" transform="translate(-9.294 -15)"/><path class="d" d="M14,21H58.118v2.941H14Z" transform="translate(-14 -12.176)"/><path class="d" d="M14,27H58.118v2.941H14Z" transform="translate(-14 -9.353)"/><path class="d" d="M32,33H49.647v2.941H32Z" transform="translate(-5.529 -6.529)"/></g><path class="e" d="M39.471,52.353A7.331,7.331,0,0,1,46.824,45H45.353a7.353,7.353,0,0,0,0,14.706h1.471A7.353,7.353,0,0,1,39.471,52.353Z" transform="translate(16 18.824)"/><path class="b" d="M61.353,59.706h-50a7.353,7.353,0,0,1,0-14.706h50a7.353,7.353,0,0,0,0,14.706Z" transform="translate(0 18.824)"/><rect class="f" width="20.588" height="4.412" rx="1.5" transform="translate(8.412 65.294)"/></g></svg>