<svg xmlns="http://www.w3.org/2000/svg" width="21" height="21" viewBox="0 0 21 21">
  <g id="edit" transform="translate(-0.003)">
    <g id="Group_14636" data-name="Group 14636" transform="translate(0.003)">
      <path id="Path_18853" data-name="Path 18853" d="M19.847,1.155A3.792,3.792,0,0,0,17.066,0H3.94A3.793,3.793,0,0,0,1.158,1.155,3.793,3.793,0,0,0,0,3.937V17.062a3.793,3.793,0,0,0,1.155,2.782A3.793,3.793,0,0,0,3.94,21H17.065A3.944,3.944,0,0,0,21,17.062V3.937A3.793,3.793,0,0,0,19.847,1.155ZM7.44,17.5H3.5V13.562L10.94,6.125l3.937,3.937Zm9.57-9.57L15.753,9.188,11.815,5.25l1.258-1.258a1.32,1.32,0,0,1,1.859,0L17.011,6.07a1.32,1.32,0,0,1,0,1.859Z" transform="translate(-0.003)" fill="#0ab69f"/>
      <path id="Path_18854" data-name="Path 18854" d="M100.5,280.5v.765h1.312v1.313h.766l.711-.711-2.078-2.078Z" transform="translate(-95.689 -266.391)" fill="#0ab69f"/>
      <path id="Path_18855" data-name="Path 18855" d="M139.366,170.746q-.232.232-.041.41t.41-.041l3.978-3.979q.233-.232.041-.41t-.41.041Z" transform="translate(-132.571 -158.661)" fill="#0ab69f"/>
    </g>
  </g>
</svg>
