<svg xmlns="http://www.w3.org/2000/svg" width="69.771" height="76" viewBox="0 0 69.771 76"><defs><style>.a{fill:#e0ebfc;}.b{fill:#3762cc;}.c{fill:#a4c9ff;}.d{fill:#6bdddd;}.e{fill:#4671c6;}.f{fill:#2080db;}.g{fill:#2262c6;}.h{fill:#fff;}</style></defs><g transform="translate(-16 -6)"><path class="a" d="M71.574,82.754H21.115A3.115,3.115,0,0,1,18,79.639V11.115A3.115,3.115,0,0,1,21.115,8H71.574a3.115,3.115,0,0,1,3.115,3.115V79.639A3.115,3.115,0,0,1,71.574,82.754Z" transform="translate(-1.377 -1.377)"/><path class="b" d="M70.2,82H19.738A3.742,3.742,0,0,1,16,78.262V9.738A3.742,3.742,0,0,1,19.738,6H70.2a3.742,3.742,0,0,1,3.738,3.738V78.262A3.742,3.742,0,0,1,70.2,82ZM19.738,7.246a2.5,2.5,0,0,0-2.492,2.492V78.262a2.5,2.5,0,0,0,2.492,2.492H70.2a2.5,2.5,0,0,0,2.492-2.492V9.738A2.5,2.5,0,0,0,70.2,7.246Z"/><path class="c" d="M102.733,206.4H70.963a1.246,1.246,0,1,1,0-2.492h31.77a1.246,1.246,0,1,1,0,2.492Z" transform="translate(-36.985 -136.262)"/><path class="c" d="M76.569,93.657H32.963a1.246,1.246,0,1,1,0-2.492H76.569a1.246,1.246,0,1,1,0,2.492Z" transform="translate(-10.822 -58.638)"/><path class="c" d="M76.569,117.657H32.963a1.246,1.246,0,0,1,0-2.492H76.569a1.246,1.246,0,0,1,0,2.492Z" transform="translate(-10.822 -75.163)"/><path class="c" d="M76.569,141.657H32.963a1.246,1.246,0,1,1,0-2.492H76.569a1.246,1.246,0,1,1,0,2.492Z" transform="translate(-10.822 -91.687)"/><path class="c" d="M76.569,165.657H32.963a1.246,1.246,0,1,1,0-2.492H76.569a1.246,1.246,0,1,1,0,2.492Z" transform="translate(-10.822 -108.212)"/><circle class="d" cx="15.262" cy="15.262" r="15.262" transform="translate(54.623 50.807)"/><path class="b" d="M153.885,179.624a15.885,15.885,0,1,1,15.885-15.885A15.9,15.9,0,0,1,153.885,179.624Zm0-30.525a14.639,14.639,0,1,0,14.639,14.639A14.656,14.656,0,0,0,153.885,149.1Z" transform="translate(-84 -97.67)"/><path class="c" d="M42.959,202.56h-6a1.246,1.246,0,0,1-1.246-1.246v-6a1.246,1.246,0,0,1,1.246-1.246h6a1.246,1.246,0,0,1,1.246,1.246v6A1.246,1.246,0,0,1,42.959,202.56Z" transform="translate(-13.576 -129.492)"/><path class="e" d="M40.746,194.872a1.875,1.875,0,0,1-1.48-.727l-2.2-2.853a1.246,1.246,0,1,1,1.972-1.523l1.682,2.178,4.661-6.77a1.246,1.246,0,1,1,2.052,1.413l-5.145,7.473a1.874,1.874,0,0,1-1.488.808h-.051Z" transform="translate(-14.323 -122.997)"/><g transform="translate(1627.155 -6620.496)"><path class="f" d="M310.438,0a14.846,14.846,0,0,0-12.409,22.994l-2.38,4.839a1.583,1.583,0,0,0,1.939,1.939l4.881-2.4A14.846,14.846,0,1,0,310.438,0Z" transform="translate(-1868.192 6672)"/><path class="g" d="M373.067,0a14.951,14.951,0,0,0-2.474.206,14.846,14.846,0,0,1,0,29.276A14.845,14.845,0,1,0,373.067,0Z" transform="translate(-1930.822 6672)"/><path class="h" d="M366.421,52.163a2.457,2.457,0,0,0-1.1,2.445c0,.372-.2.8-1.154.8-.8,0-1.076-.293-1.076-1.311a3.581,3.581,0,0,1,1.311-2.974c.646-.548,1.741-1.154,1.741-2.211,0-.9-.783-1.33-1.761-1.33-2,0-1.565,1.506-2.621,1.506a1.122,1.122,0,0,1-1.174-1.115c0-1.056,1.213-2.621,3.854-2.621,2.5,0,4.167,1.389,4.167,3.228s-1.663,3.169-2.191,3.58Zm-.724,6.1a1.52,1.52,0,0,1-1.506,1.506,1.506,1.506,0,0,1,0-3.013A1.52,1.52,0,0,1,365.7,58.267Z" transform="translate(-1922.469 6634.126)"/></g><path class="g" d="M1.207,1.325h2.02v.9H.434V-4.236h.773ZM6.419-.661H4.592V1.325H6.728v.9H3.819V-4.236H6.706v.9H4.592v1.783H6.419ZM9.847.718H8.124l-.361,1.5h-.8L8.64-4.236h.694l1.684,6.456h-.807Zm-1.506-.9H9.63L8.986-2.865Zm4.513,1,1.131-5.051h.849l-1.6,6.456h-.749L10.889-4.236h.846ZM17.935-.661H16.108V1.325h2.136v.9H15.335V-4.236h2.887v.9H16.108v1.783h1.827Zm4.131.4H21.2V2.221h-.773V-4.236H22a1.462,1.462,0,0,1,1.189.5A2.211,2.211,0,0,1,23.6-2.283,2.443,2.443,0,0,1,23.387-1.2a1.589,1.589,0,0,1-.6.672l1,2.689v.058h-.828Zm-.862-.9H22a.728.728,0,0,0,.611-.286,1.254,1.254,0,0,0,.22-.783,1.363,1.363,0,0,0-.2-.8.718.718,0,0,0-.606-.293H21.2Zm5.732.506H25.109V1.325h2.136v.9H24.336V-4.236h2.887v.9H25.109v1.783h1.827Zm4.473-.177a5.6,5.6,0,0,1-.2,1.59,2.7,2.7,0,0,1-.561,1.066l.764.865-.5.656-.947-1.086a1.348,1.348,0,0,1-.4.058,1.392,1.392,0,0,1-.961-.384A2.469,2.469,0,0,1,27.949.833,5.351,5.351,0,0,1,27.715-.8v-.364a5.487,5.487,0,0,1,.231-1.667A2.485,2.485,0,0,1,28.6-3.941a1.385,1.385,0,0,1,.961-.384,1.4,1.4,0,0,1,.97.379,2.44,2.44,0,0,1,.649,1.091A5.471,5.471,0,0,1,31.409-1.2Zm-.776-.337a3.821,3.821,0,0,0-.281-1.654.87.87,0,0,0-.794-.563.864.864,0,0,0-.781.57,3.744,3.744,0,0,0-.289,1.607v.377A3.859,3.859,0,0,0,28.771.8a.873.873,0,0,0,.793.59A.863.863,0,0,0,30.357.82a3.909,3.909,0,0,0,.277-1.658Zm4.815-3.06V.079a2.643,2.643,0,0,1-.454,1.63,1.527,1.527,0,0,1-2.421.009A2.664,2.664,0,0,1,32.124.075v-4.31h.77V.084a1.793,1.793,0,0,0,.226.989.748.748,0,0,0,.666.341q.892,0,.892-1.366V-4.236ZM38.874-.661H37.047V1.325h2.136v.9H36.274V-4.236h2.887v.9H37.047v1.783h1.827ZM42.137.558A.952.952,0,0,0,41.931-.1a2.2,2.2,0,0,0-.744-.466,3.14,3.14,0,0,1-.856-.523,1.865,1.865,0,0,1-.608-1.446,1.892,1.892,0,0,1,.438-1.286A1.436,1.436,0,0,1,41.3-4.324a1.433,1.433,0,0,1,.828.248,1.66,1.66,0,0,1,.571.707,2.439,2.439,0,0,1,.208,1.018h-.77a1.277,1.277,0,0,0-.218-.792.739.739,0,0,0-.625-.286.747.747,0,0,0-.588.235.953.953,0,0,0-.209.656.824.824,0,0,0,.226.592,2.3,2.3,0,0,0,.746.461,3,3,0,0,1,.834.51,1.753,1.753,0,0,1,.461.656,2.346,2.346,0,0,1,.147.867,1.855,1.855,0,0,1-.426,1.284,1.473,1.473,0,0,1-1.156.477,1.612,1.612,0,0,1-.888-.259,1.744,1.744,0,0,1-.629-.716A2.384,2.384,0,0,1,39.586.27h.773a1.3,1.3,0,0,0,.251.851.881.881,0,0,0,.718.3.755.755,0,0,0,.606-.237A.931.931,0,0,0,42.137.558ZM46.8-3.331H45.415V2.221h-.767V-3.331H43.273v-.9H46.8Z" transform="translate(22.046 19.4)"/></g></svg>