<svg xmlns="http://www.w3.org/2000/svg" width="71.304" height="80" viewBox="0 0 71.304 80"><defs><style>.a{fill:#0ab69f;}.b{fill:#d2d6ce;}.c{fill:#a5a8a0;}.d{fill:#474747;}.e{fill:#656663;}.f{fill:#009b86;}.g{fill:#fff;}</style></defs><g transform="translate(-27.826)"><path class="a" d="M105.739,244.87v38.261a3.6,3.6,0,0,1-3.71,3.478H53.8a3.6,3.6,0,0,1-3.71-3.478V244.87Z" transform="translate(-18.783 -206.609)"/><path class="b" d="M86.956,99.478H31.3A3.478,3.478,0,0,1,27.826,96V36.869A3.478,3.478,0,0,1,31.3,33.391H86.956a3.478,3.478,0,0,1,3.478,3.478V96A3.478,3.478,0,0,1,86.956,99.478Z" transform="translate(0 -28.174)"/><path class="c" d="M90.26,126.521a1.3,1.3,0,0,1-1.3,1.3H68.086a1.3,1.3,0,1,1,0-2.609H88.956A1.3,1.3,0,0,1,90.26,126.521ZM82,139.13H68.086a1.3,1.3,0,1,0,0,2.609H82a1.3,1.3,0,0,0,0-2.609Zm5.391,0h-.174a1.3,1.3,0,0,0,0,2.609h.174a1.3,1.3,0,1,0,0-2.609ZM82,146.087H68.086a1.3,1.3,0,1,0,0,2.609H82a1.3,1.3,0,0,0,0-2.609Zm0,6.956H68.086a1.3,1.3,0,1,0,0,2.609H82a1.3,1.3,0,0,0,0-2.609Zm5.391,0h-.174a1.3,1.3,0,0,0,0,2.609h.174a1.3,1.3,0,1,0,0-2.609ZM82,160H68.086a1.3,1.3,0,1,0,0,2.609H82A1.3,1.3,0,0,0,82,160Zm0,6.957H68.086a1.3,1.3,0,1,0,0,2.609H82a1.3,1.3,0,0,0,0-2.609ZM87.391,160h-.174a1.3,1.3,0,0,0,0,2.609h.174a1.3,1.3,0,1,0,0-2.609Zm23.565-13.913H97.043a1.3,1.3,0,1,0,0,2.609h13.913a1.3,1.3,0,1,0,0-2.609Zm0,6.956H97.043a1.3,1.3,0,1,0,0,2.609h13.913a1.3,1.3,0,0,0,0-2.609Zm5.217-4.348h.174a1.3,1.3,0,1,0,0-2.609h-.174a1.3,1.3,0,0,0,0,2.609ZM110.956,160H97.043a1.3,1.3,0,1,0,0,2.609h13.913a1.3,1.3,0,0,0,0-2.609Zm0,6.957H97.043a1.3,1.3,0,1,0,0,2.609h13.913a1.3,1.3,0,1,0,0-2.609ZM116.347,160h-.174a1.3,1.3,0,0,0,0,2.609h.174a1.3,1.3,0,1,0,0-2.609Z" transform="translate(-32.869 -105.652)"/><path class="d" d="M86.261,10.435H75.826a3.478,3.478,0,0,1-3.478-3.478V3.478A3.478,3.478,0,0,1,75.826,0H86.261a3.478,3.478,0,0,1,3.478,3.478V6.957A3.478,3.478,0,0,1,86.261,10.435Z" transform="translate(-37.565)"/><path class="e" d="M84.522,5.217H74.087a1.739,1.739,0,0,1-1.739-1.739h0A3.478,3.478,0,0,1,75.826,0h6.957a3.478,3.478,0,0,1,3.478,3.478h0A1.739,1.739,0,0,1,84.522,5.217Z" transform="translate(-37.565)"/><path class="f" d="M278.957,0a17.391,17.391,0,1,1-17.391,17.391A17.391,17.391,0,0,1,278.957,0Z" transform="translate(-197.218)"/><path class="a" d="M297.74,22.261a13.913,13.913,0,1,1-13.913,13.913A13.913,13.913,0,0,1,297.74,22.261Z" transform="translate(-216.001 -18.783)"/><path class="g" d="M320.128,61.189a3.84,3.84,0,0,0-3.7-2.754h-.511a3.84,3.84,0,0,0-3.7,2.754l-3.293,10.976a1.3,1.3,0,1,0,2.5.75l1.257-4.19h6.987l1.257,4.19a1.3,1.3,0,1,0,2.5-.75Zm-6.667,4.926,1.253-4.177a1.248,1.248,0,0,1,1.2-.895h.511a1.248,1.248,0,0,1,1.2.895l1.253,4.177H313.46Zm18.015.024a1.3,1.3,0,0,1-1.3,1.3h-1.1v1.1a1.3,1.3,0,1,1-2.609,0v-1.1h-1.1a1.3,1.3,0,1,1,0-2.609h1.1v-1.1a1.3,1.3,0,1,1,2.609,0v1.1h1.1A1.3,1.3,0,0,1,331.476,66.139Z" transform="translate(-237.128 -49.305)"/></g></svg>