<svg xmlns="http://www.w3.org/2000/svg" width="74.99" height="75" viewBox="0 0 74.99 75"><defs><style>.a{fill:#d1576b;}.b{fill:#f5f0f0;}.c{fill:#ff6680;}.d{fill:#5e5e5e;}.e{fill:#dce3e9;}</style></defs><g transform="translate(-0.035 0)"><path class="a" d="M172.647,143.4a65.377,65.377,0,0,1,8.439-.434c11.591-.087,29.989.849,36.067,1.746a4.685,4.685,0,0,1,3.977,4.1,192.362,192.362,0,0,1,.035,42.988,4.694,4.694,0,0,1-4.287,4.166q-15.241,1.227-30.483,1.026" transform="translate(-147.327 -122.018)"/><path class="b" d="M95.27,67.711A212.687,212.687,0,0,1,64.988,66.65a5.861,5.861,0,0,1-5.23-5.36,343.691,343.691,0,0,1,0-54.728,5.861,5.861,0,0,1,5.23-5.36,212.823,212.823,0,0,1,45.168,0,5.862,5.862,0,0,1,5.23,5.36,343.628,343.628,0,0,1,.825,40.874" transform="translate(-50.043 0)"/><path class="c" d="M68.586,160.43h0q-.284,3.825-.711,7.648a5.1,5.1,0,0,1-4.673,4.513,355.874,355.874,0,0,1-57.193,0,5.119,5.119,0,0,1-4.677-4.543,209.78,209.78,0,0,1,.039-46.9,5.109,5.109,0,0,1,4.337-4.472,77.613,77.613,0,0,1,24.155-.09,5.1,5.1,0,0,1,4.246,4.457q.05.44.1.881a5.108,5.108,0,0,0,5.1,4.554q12.351-.058,24.7.742a5.118,5.118,0,0,1,4.774,4.8,209.265,209.265,0,0,1-.2,28.406Z" transform="translate(-0.001 -98.743)"/><path class="a" d="M9.686,175.472q-1.839-.127-3.68-.277a5.119,5.119,0,0,1-4.677-4.542,209.783,209.783,0,0,1,.04-46.9,5.108,5.108,0,0,1,4.337-4.472q2.221-.327,4.367-.545a5.308,5.308,0,0,0-2.619,4,218.878,218.878,0,0,0-.041,48.921,5.349,5.349,0,0,0,2.273,3.812Z" transform="translate(0 -101.346)"/><path class="d" d="M123.39,61.072H104.726a1.132,1.132,0,0,1,0-2.263h18.665a1.132,1.132,0,1,1,0,2.263Z" transform="translate(-88.389 -50.194)"/><path class="e" d="M68.372,230.079a141.134,141.134,0,0,0-14.149,0,3.6,3.6,0,0,0-3.414,3.269,38.892,38.892,0,0,0,0,6.955,3.6,3.6,0,0,0,3.414,3.269,141.143,141.143,0,0,0,14.149,0,3.6,3.6,0,0,0,3.414-3.269,38.891,38.891,0,0,0,0-6.955A3.6,3.6,0,0,0,68.372,230.079Z" transform="translate(-43.203 -196.224)"/><g transform="translate(10.778 37.458)"><path class="d" d="M86.878,257.977H74.51a1.132,1.132,0,1,1,0-2.263H86.878a1.132,1.132,0,0,1,0,2.263Z" transform="translate(-73.378 -255.714)"/><path class="d" d="M82.188,285.434H74.51a1.132,1.132,0,1,1,0-2.263h7.679a1.132,1.132,0,0,1,0,2.263Z" transform="translate(-73.378 -279.149)"/></g><path class="c" d="M320.128,61.189a3.84,3.84,0,0,0-3.7-2.754h-.511a3.84,3.84,0,0,0-3.7,2.754l-3.293,10.976a1.3,1.3,0,1,0,2.5.75l1.257-4.19h6.987l1.257,4.19a1.3,1.3,0,1,0,2.5-.75Zm-6.667,4.926,1.253-4.177a1.248,1.248,0,0,1,1.2-.895h.511a1.248,1.248,0,0,1,1.2.895l1.253,4.177H313.46Zm18.015.024a1.3,1.3,0,0,1-1.3,1.3h-1.1v1.1a1.3,1.3,0,1,1-2.609,0v-1.1h-1.1a1.3,1.3,0,1,1,0-2.609h1.1v-1.1a1.3,1.3,0,1,1,2.609,0v1.1h1.1A1.3,1.3,0,0,1,331.476,66.139Z" transform="translate(-268.92 -53.304)"/></g></svg>