<svg xmlns="http://www.w3.org/2000/svg" width="58.065" height="75" viewBox="0 0 58.065 75"><defs><style>.a{fill:#c7e2fc;}.b{fill:#ebf7fe;}.c{fill:#8892a0;}.d{fill:#a1a1a1;}.e{fill:#5e5e5e;}.f{fill:#8ac0ff;}.g{fill:#50a5ff;}.h{fill:#308fff;}.i{fill:#2262c6;}</style></defs><g transform="translate(-8 -1)"><g transform="translate(9.21 2.21)"><path class="a" d="M64.645,62.484h-12.1v12.1H9V2H64.645Z" transform="translate(-9 -2)"/></g><g transform="translate(9.21 2.21)"><path class="b" d="M9,60.927a30.7,30.7,0,0,0,12.7,2.767c19.04,0,34.476-17.6,34.476-39.315A43.014,43.014,0,0,0,50.041,2H9Z" transform="translate(-9 -2)"/></g><g transform="translate(52.758 62.694)"><path class="c" d="M57.1,52H45V64.1" transform="translate(-45 -52)"/></g><g transform="translate(8 1)"><path class="d" d="M52.758,76H9.21A1.209,1.209,0,0,1,8,74.79V2.21A1.209,1.209,0,0,1,9.21,1H64.855a1.209,1.209,0,0,1,1.21,1.21V62.694a1.209,1.209,0,0,1-1.21,1.21H53.968V74.79A1.209,1.209,0,0,1,52.758,76ZM10.419,73.581H51.548V62.694a1.209,1.209,0,0,1,1.21-1.21H63.645V3.419H10.419Z" transform="translate(-8 -1)"/></g><g transform="translate(51.89 61.838)"><path class="d" d="M0,0H17.107V2.419H0Z" transform="translate(0 12.095) rotate(-45)"/></g><g transform="translate(14.048 37.29)"><path class="e" d="M48.081,62.452H14.21A1.209,1.209,0,0,1,13,61.242V32.21A1.209,1.209,0,0,1,14.21,31H57.758a1.209,1.209,0,0,1,1.21,1.21V52.774H56.548V33.419H15.419V60.032H48.081Z" transform="translate(-13 -31)"/></g><g transform="translate(15.258 44.548)"><path class="e" d="M14,37H57.548v2.419H14Z" transform="translate(-14 -37)"/></g><g transform="translate(15.258 51.806)"><path class="e" d="M14,43H57.548v2.419H14Z" transform="translate(-14 -43)"/></g><g transform="translate(15.258 59.065)"><path class="e" d="M14,49H47.871v2.419H14Z" transform="translate(-14 -49)"/></g><g transform="translate(28.565 45.758)"><path class="e" d="M25,38h2.419V59.774H25Z" transform="translate(-25 -38)"/></g><g transform="translate(35.823 45.758)"><path class="e" d="M31,38h2.419V59.774H31Z" transform="translate(-31 -38)"/></g><g transform="translate(43.081 45.758)"><path class="e" d="M37,38h2.419V59.774H37Z" transform="translate(-37 -38)"/></g><g transform="translate(50.339 45.758)"><path class="e" d="M43,38h2.419V51.306H43Z" transform="translate(-43 -38)"/></g><g transform="translate(2.629 0.483)"><g transform="translate(47.665 25.194)"><path class="f" d="M48.037,30.112A2.037,2.037,0,0,1,46,28.075V26.037a2.037,2.037,0,0,1,4.075,0v2.037A2.037,2.037,0,0,1,48.037,30.112Z" transform="translate(-46 -24)"/></g><g transform="translate(20.16 12.97)"><path class="g" d="M45.486,12V22.187L32.243,28.3,19,22.187V12" transform="translate(-19 -12)"/></g><g transform="translate(15.067 6.858)"><path class="h" d="M14,12.112l18.336,6.112,18.336-6.112L32.336,6Z" transform="translate(-14 -6)"/></g><g transform="translate(14.048 5.84)"><path class="i" d="M32.355,19.261a1.025,1.025,0,0,1-.322-.053L13.7,13.1a1.018,1.018,0,0,1,0-1.931L32.033,5.053a1.026,1.026,0,0,1,.645,0l18.336,6.112a1.018,1.018,0,0,1,0,1.931L32.677,19.208A1.025,1.025,0,0,1,32.355,19.261ZM17.24,12.131l15.115,5.038L47.47,12.131,32.355,7.092Z" transform="translate(-13 -5.001)"/></g><g transform="translate(19.142 15.007)"><path class="i" d="M32.261,29.28a1.009,1.009,0,0,1-.427-.094L18.592,23.074A1.02,1.02,0,0,1,18,22.149V14h2.037v7.5l12.224,5.641L44.486,21.5V14h2.037v8.149a1.02,1.02,0,0,1-.592.925L32.688,29.186a1.009,1.009,0,0,1-.427.094Z" transform="translate(-18 -14)"/></g><g transform="translate(46.646 24.175)"><path class="i" d="M48.056,31.149A3.06,3.06,0,0,1,45,28.093V26.056a3.056,3.056,0,0,1,6.112,0v2.037A3.06,3.06,0,0,1,48.056,31.149Zm0-6.112a1.019,1.019,0,0,0-1.019,1.019v2.037a1.019,1.019,0,0,0,2.037,0V26.056A1.019,1.019,0,0,0,48.056,25.037Z" transform="translate(-45 -23)"/></g><g transform="translate(48.683 12.97)"><path class="i" d="M47,12h2.037V24.224H47Z" transform="translate(-47 -12)"/></g></g></g></svg>