<svg xmlns="http://www.w3.org/2000/svg" width="12.732" height="16" viewBox="0 0 12.732 16">
  <g id="analytics" transform="translate(-136.571 -34)">
    <path id="Path_75" data-name="Path 75" d="M137.33,48.19h5.611a3.519,3.519,0,0,1-.137-2.121l-.4-.132a.216.216,0,0,1-.148-.205,2.719,2.719,0,0,1,2.718-2.719.216.216,0,0,1,.2.148l.118.355a3.517,3.517,0,0,1,2.18.112V37.412h-2.221a1.192,1.192,0,0,1-1.191-1.191V34H137.33a.759.759,0,0,0-.759.759V47.431a.759.759,0,0,0,.759.759Zm3.27-10.741h3.17a.216.216,0,1,1,0,.432H140.6a.216.216,0,1,1,0-.432Zm0,1.032h1.116a.216.216,0,1,1,0,.432H140.6a.216.216,0,1,1,0-.432Zm0,2.252h4.578a.216.216,0,1,1,0,.432H140.6a.216.216,0,1,1,0-.432Zm0,1.032h1.116a.216.216,0,1,1,0,.432H140.6a.216.216,0,1,1,0-.432Zm0,2.287h1.034a.216.216,0,1,1,0,.432H140.6a.216.216,0,1,1,0-.432Zm0,1.032h.647a.216.216,0,1,1,0,.432H140.6a.216.216,0,1,1,0-.432Zm-2.869-7.135a.216.216,0,0,1,.3-.016l.323.291.838-.838a.216.216,0,0,1,.306.306l-.984.984a.216.216,0,0,1-.3.008l-.476-.429a.216.216,0,0,1-.016-.306Zm0,3.41a.216.216,0,0,1,.3-.016l.323.291.838-.838a.216.216,0,0,1,.306.306l-.984.983a.216.216,0,0,1-.3.008l-.476-.429a.216.216,0,0,1-.016-.306Zm-.1,2.816a.216.216,0,0,1,.216-.216h1.126a.216.216,0,0,1,.216.216V45.3a.216.216,0,0,1-.216.216h-1.126a.216.216,0,0,1-.216-.216Z" fill="#5e5e5e"/>
    <path id="Path_76" data-name="Path 76" d="M357.43,45.157h1.915l-2.674-2.674V44.4a.759.759,0,0,0,.759.757Z" transform="translate(-212.168 -8.177)" fill="#5e5e5e"/>
    <path id="Path_77" data-name="Path 77" d="M307.259,296.911a2.268,2.268,0,0,0-.665,1.463l3.19,1.063-1.064-3.19a2.267,2.267,0,0,0-1.461.664Z" transform="translate(-163.896 -252.796)" fill="#5e5e5e"/>
    <rect id="Rectangle_1" data-name="Rectangle 1" width="0.694" height="0.694" transform="translate(138.06 44.391)" fill="#5e5e5e"/>
    <path id="Path_78" data-name="Path 78" d="M321.824,306.679a3.088,3.088,0,0,0-.85.1l.935,2.8a.313.313,0,0,1-.4.4l-2.763-.921a3.087,3.087,0,1,0,3.074-2.379Z" transform="translate(-175.535 -262.852)" fill="#5e5e5e"/>
  </g>
</svg>
