<svg xmlns="http://www.w3.org/2000/svg" width="14.786" height="18" viewBox="0 0 14.786 18"><defs><style>.a{fill:#5e5e5e;}</style></defs><g transform="translate(0 -16)"><g transform="translate(0 16)"><g transform="translate(0 0)"><path class="a" d="M14.464,16H1.607a.321.321,0,0,0-.321.321v.964H.321A.321.321,0,0,0,0,17.607V32.393A1.609,1.609,0,0,0,1.607,34H13.179a.321.321,0,0,0,.321-.321v-.964h.964a.321.321,0,0,0,.321-.321V16.321A.321.321,0,0,0,14.464,16ZM12.857,32.393v.964H1.607a.965.965,0,0,1-.964-.964V17.929h9.643v2.25a.321.321,0,0,0,.321.321h2.25ZM10.929,19.857V18.383L12.4,19.857Zm3.214,12.214H13.5V20.179c0-.007,0-.013,0-.019a.314.314,0,0,0-.017-.086.3.3,0,0,0-.011-.03.317.317,0,0,0-.061-.091v0L10.835,17.38h0a.322.322,0,0,0-.091-.061.272.272,0,0,0-.032-.011.312.312,0,0,0-.082-.017c-.007,0-.013,0-.021,0H1.929v-.643H14.143Z" transform="translate(0 -16)"/></g></g><g transform="translate(1.827 19.789)"><g transform="translate(0 0)"><rect class="a" width="7.105" height="0.711"/></g></g><g transform="translate(1.827 21.211)"><g transform="translate(0 0)"><rect class="a" width="7.105" height="0.474"/></g></g><g transform="translate(1.929 22.75)"><path class="a" d="M49.286,184a1.286,1.286,0,1,0,1.286,1.286A1.287,1.287,0,0,0,49.286,184Zm0,1.929a.643.643,0,1,1,.643-.643A.643.643,0,0,1,49.286,185.929Z" transform="translate(-48 -184)"/></g><g transform="translate(1.929 26.286)"><path class="a" d="M49.286,272a1.286,1.286,0,1,0,1.286,1.286A1.287,1.287,0,0,0,49.286,272Zm0,1.929a.643.643,0,1,1,.643-.643A.643.643,0,0,1,49.286,273.929Z" transform="translate(-48 -272)"/></g><g transform="translate(1.929 29.821)"><g transform="translate(0 0)"><path class="a" d="M49.286,360a1.286,1.286,0,1,0,1.286,1.286A1.287,1.287,0,0,0,49.286,360Zm0,1.929a.643.643,0,1,1,.643-.643A.644.644,0,0,1,49.286,361.929Z" transform="translate(-48 -360)"/></g></g><g transform="translate(5.38 23.816)"><g transform="translate(0 0)"><rect class="a" width="6.158" height="0.474" transform="translate(0 0)"/></g></g><g transform="translate(5.38 27.368)"><g transform="translate(0 0)"><rect class="a" width="6.158" height="0.474"/></g></g><g transform="translate(5.38 30.684)"><g transform="translate(0 0)"><rect class="a" width="6.158" height="0.711"/></g></g></g></svg>