<svg xmlns="http://www.w3.org/2000/svg" width="12.698" height="18" viewBox="0 0 12.698 18"><defs><style>.a{fill:#ff6680;}</style></defs><g transform="translate(-75.4)"><g transform="translate(77.471 2.341)"><g transform="translate(0)"><path class="a" d="M142.462,69.07a.3.3,0,1,0-.537.248,3.688,3.688,0,1,1-3.349-2.144,3.7,3.7,0,0,1,2.734,1.214.3.3,0,1,0,.439-.4,4.279,4.279,0,1,0,1.105,2.87A4.245,4.245,0,0,0,142.462,69.07Z" transform="translate(-134.297 -66.583)"/></g></g><g transform="translate(75.4)"><g transform="translate(0)"><path class="a" d="M87.659,6.619a2.381,2.381,0,0,1,.2-.766,1.942,1.942,0,0,0,.184-1.279,2,2,0,0,0-.925-.953,2.3,2.3,0,0,1-.591-.474,2.32,2.32,0,0,1-.274-.718,2,2,0,0,0-.615-1.164,1.958,1.958,0,0,0-1.289-.225A2.351,2.351,0,0,1,83.576,1,2.254,2.254,0,0,1,82.955.59a1.527,1.527,0,0,0-2.411,0A2.256,2.256,0,0,1,79.923,1a2.352,2.352,0,0,1-.776.041,1.958,1.958,0,0,0-1.289.225,2,2,0,0,0-.615,1.164,2.319,2.319,0,0,1-.274.718,2.3,2.3,0,0,1-.591.474,2,2,0,0,0-.925.953,1.942,1.942,0,0,0,.184,1.279,2.381,2.381,0,0,1,.2.766,2.381,2.381,0,0,1-.2.766,1.942,1.942,0,0,0-.184,1.279,2,2,0,0,0,.925.953,2.3,2.3,0,0,1,.591.474,2.321,2.321,0,0,1,.274.718,2,2,0,0,0,.615,1.164,1.958,1.958,0,0,0,1.289.225,2.35,2.35,0,0,1,.776.041,2.255,2.255,0,0,1,.621.408,4.34,4.34,0,0,0,.533.387L79.942,17.1,78.9,15.938a.3.3,0,0,0-.306-.085l-1.5.457.94-3.37a.3.3,0,0,0-.57-.159l-1.085,3.89a.3.3,0,0,0,.371.362l1.835-.559L79.862,17.9a.3.3,0,0,0,.505-.118l1.269-4.551a.975.975,0,0,0,.226,0l1.269,4.551a.3.3,0,0,0,.505.118l1.281-1.428,1.835.559a.3.3,0,0,0,.371-.362L85.78,11.852a2.35,2.35,0,0,0,.476-1.042,2.32,2.32,0,0,1,.274-.718,2.3,2.3,0,0,1,.591-.474,2,2,0,0,0,.925-.953,1.942,1.942,0,0,0-.184-1.279A2.382,2.382,0,0,1,87.659,6.619Zm-1.25,9.69-1.5-.457a.3.3,0,0,0-.306.085L83.557,17.1l-1.135-4.069a4.333,4.333,0,0,0,.533-.387,2.257,2.257,0,0,1,.621-.408,2.352,2.352,0,0,1,.776-.041,3.049,3.049,0,0,0,.9-.045Zm1.075-7.827c-.08.246-.374.437-.685.64a2.726,2.726,0,0,0-.746.622,2.753,2.753,0,0,0-.367.911,1.565,1.565,0,0,1-.393.841,1.559,1.559,0,0,1-.913.113,2.79,2.79,0,0,0-.987.069,2.681,2.681,0,0,0-.81.511.987.987,0,0,1-1.667,0,2.68,2.68,0,0,0-.81-.511,1.991,1.991,0,0,0-.616-.081c-.124,0-.248.006-.37.012a1.559,1.559,0,0,1-.912-.113,1.565,1.565,0,0,1-.393-.841,2.752,2.752,0,0,0-.367-.911,2.725,2.725,0,0,0-.746-.622c-.311-.2-.605-.394-.685-.64A1.549,1.549,0,0,1,76.19,7.6a2.823,2.823,0,0,0,.242-.976,2.823,2.823,0,0,0-.242-.976,1.549,1.549,0,0,1-.175-.887c.08-.246.374-.437.685-.64a2.727,2.727,0,0,0,.746-.622,2.753,2.753,0,0,0,.367-.911,1.565,1.565,0,0,1,.393-.841,1.559,1.559,0,0,1,.913-.113,2.789,2.789,0,0,0,.987-.069,2.682,2.682,0,0,0,.81-.511.987.987,0,0,1,1.667,0,2.68,2.68,0,0,0,.81.511,2.788,2.788,0,0,0,.987.069,1.559,1.559,0,0,1,.912.113,1.565,1.565,0,0,1,.393.841,2.752,2.752,0,0,0,.367.911,2.724,2.724,0,0,0,.746.622c.311.2.605.394.685.64a1.549,1.549,0,0,1-.175.887,2.823,2.823,0,0,0-.242.976,2.823,2.823,0,0,0,.242.976A1.549,1.549,0,0,1,87.484,8.483Z" transform="translate(-75.4)"/></g></g><g transform="translate(80.311 4.779)"><g transform="translate(0)"><path class="a" d="M217.661,135.945h-2.286a.3.3,0,1,0,0,.592h2.286a.3.3,0,1,0,0-.592Z" transform="translate(-215.08 -135.945)"/></g></g><g transform="translate(80.311 7.868)"><g transform="translate(0)"><path class="a" d="M217.661,223.795h-2.286a.3.3,0,1,0,0,.592h2.286a.3.3,0,1,0,0-.592Z" transform="translate(-215.08 -223.795)"/></g></g><g transform="translate(82.524 6.324)"><g transform="translate(0)"><path class="a" d="M279.231,179.87h-.891a.3.3,0,1,0,0,.592h.891a.3.3,0,0,0,0-.592Z" transform="translate(-278.044 -179.87)"/></g></g><g transform="translate(79.491 6.324)"><g transform="translate(0)"><path class="a" d="M194.176,179.87H192.07a.3.3,0,1,0,0,.592h2.106a.3.3,0,0,0,0-.592Z" transform="translate(-191.774 -179.87)"/></g></g></g></svg>