<svg xmlns="http://www.w3.org/2000/svg" width="18" height="18" viewBox="0 0 18 18"><defs><style>.a{fill:#0ab69f;}</style></defs><g transform="translate(0.013 0.014)"><path class="a" d="M38.276,39.321a.246.246,0,0,0-.174.072l-4.285,4.285-2.466-2.466a.253.253,0,0,0-.348,0l-.994.994a.246.246,0,0,0,0,.348l3.635,3.634a.246.246,0,0,0,.348,0l5.453-5.453a.246.246,0,0,0,0-.348l-.994-.994A.246.246,0,0,0,38.276,39.321Zm-4.459,6.345L30.531,42.38l.647-.647L33.643,44.2a.246.246,0,0,0,.348,0l4.285-4.285.647.647Z" transform="translate(-25.739 -33.805)"/><path class="a" d="M23.034,16.332a6.7,6.7,0,1,0,6.7,6.7A6.7,6.7,0,0,0,23.034,16.332Zm0,12.912a6.21,6.21,0,1,1,6.21-6.21A6.21,6.21,0,0,1,23.034,29.244Z" transform="translate(-14.047 -14.048)"/><path class="a" d="M17.708,9.775a1.255,1.255,0,0,0,0-1.578l-.4-.5a.771.771,0,0,1-.138-.7l.18-.617a1.27,1.27,0,0,0-.605-1.461l-.563-.309a.771.771,0,0,1-.4-.59l-.07-.64A1.255,1.255,0,0,0,14.6,2.262l-.64-.07a.77.77,0,0,1-.59-.4l-.309-.564A1.255,1.255,0,0,0,11.594.627l-.617.18a.772.772,0,0,1-.7-.138l-.5-.4A1.255,1.255,0,0,0,8.2.265l-.5.4A.773.773,0,0,1,7,.806L6.38.626a1.27,1.27,0,0,0-1.461.605L4.61,1.8a.771.771,0,0,1-.59.4l-.64.07A1.255,1.255,0,0,0,2.263,3.378l-.07.64a.77.77,0,0,1-.4.591l-.564.309A1.255,1.255,0,0,0,.628,6.379L.808,7a.772.772,0,0,1-.138.7l-.4.5a1.255,1.255,0,0,0,0,1.578l.4.5a.771.771,0,0,1,.138.7l-.18.617a1.27,1.27,0,0,0,.605,1.461l.563.309a.771.771,0,0,1,.4.59l.07.64A1.255,1.255,0,0,0,3.379,15.71l.64.07a.77.77,0,0,1,.59.4l.309.564a1.255,1.255,0,0,0,1.461.605L7,17.165a.773.773,0,0,1,.7.138l.5.4a1.255,1.255,0,0,0,1.578,0l.5-.4a.771.771,0,0,1,.7-.138l.617.18a1.255,1.255,0,0,0,1.461-.605l.309-.563a.771.771,0,0,1,.59-.4l.64-.07a1.255,1.255,0,0,0,1.116-1.116l.07-.64a.77.77,0,0,1,.4-.591l.564-.309a1.255,1.255,0,0,0,.605-1.461l-.18-.617a.772.772,0,0,1,.138-.7Zm-.787.2a1.264,1.264,0,0,0-.227,1.143l.18.617a.766.766,0,0,1-.369.891l-.564.309a1.263,1.263,0,0,0-.648.969l-.07.64a.766.766,0,0,1-.681.681l-.641.07a1.263,1.263,0,0,0-.969.648l-.309.564a.766.766,0,0,1-.891.369l-.617-.18a1.263,1.263,0,0,0-1.143.226l-.5.4a.766.766,0,0,1-.963,0l-.5-.4a1.264,1.264,0,0,0-1.143-.227l-.617.18a.767.767,0,0,1-.891-.369l-.309-.564a1.263,1.263,0,0,0-.969-.648l-.64-.07a.766.766,0,0,1-.681-.681l-.07-.641a1.263,1.263,0,0,0-.648-.969l-.564-.309a.775.775,0,0,1-.369-.891l.18-.617a1.264,1.264,0,0,0-.226-1.143l-.4-.5a.766.766,0,0,1,0-.963l.4-.5a1.264,1.264,0,0,0,.227-1.143L1.1,6.241a.766.766,0,0,1,.369-.891l.564-.309a1.263,1.263,0,0,0,.648-.969l.07-.64a.766.766,0,0,1,.682-.681l.641-.07a1.263,1.263,0,0,0,.969-.648l.309-.564a.776.776,0,0,1,.89-.37l.617.18A1.263,1.263,0,0,0,8,1.052l.5-.4a.766.766,0,0,1,.963,0l.5.4a1.265,1.265,0,0,0,1.143.227l.617-.18a.767.767,0,0,1,.891.369l.309.564a1.263,1.263,0,0,0,.969.648l.64.07a.766.766,0,0,1,.681.681l.07.641a1.263,1.263,0,0,0,.648.969l.564.309a.775.775,0,0,1,.369.891l-.18.617A1.264,1.264,0,0,0,16.921,8l.4.5a.766.766,0,0,1,0,.963Z" transform="translate(0 0)"/></g></svg>