<svg xmlns="http://www.w3.org/2000/svg" width="68.463" height="70" viewBox="0 0 68.463 70">
  <g id="Group_14988" data-name="Group 14988" transform="translate(1387 -10373)">
    <g id="medical-insurance" transform="translate(-1387 10373)">
      <path id="Path_19707" data-name="Path 19707" d="M11,45.232A34.232,34.232,0,1,1,70.187,68.662a.626.626,0,0,1-.849.052,34.234,34.234,0,0,0-46.008,2.827A34.16,34.16,0,0,1,11,45.232Z" transform="translate(-11 -9.463)" fill="#ff6680"/>
      <path id="Path_19708" data-name="Path 19708" d="M146.35,1.96s-4.056,2.292-4.056,6.423V59.171a34.232,34.232,0,0,1-47.5,2.376v-6.5c0-3.568,0-10.827,0-18.72h0V8.383A8.383,8.383,0,0,1,103.075,0h42a1.4,1.4,0,0,1,1.279,1.96Z" transform="translate(-83.081 0)" fill="#e9f3fe"/>
      <path id="Path_19709" data-name="Path 19709" d="M98.31,8.383V36.327H94.787V8.383A8.383,8.383,0,0,1,103.17,0h3.523A8.383,8.383,0,0,0,98.31,8.383Z" transform="translate(-83.08 0)" fill="#ff6680" opacity="0.43"/>
      <path id="Path_19710" data-name="Path 19710" d="M183.533,117.156a1.048,1.048,0,0,0-1.048-1.048H176.2a1.048,1.048,0,0,0,0,2.1h6.287A1.048,1.048,0,0,0,183.533,117.156Zm-1.048,3.144h-3.493a1.048,1.048,0,1,0,0,2.1h3.493a1.048,1.048,0,0,0,0-2.1ZM151.048,72.1H176.9a1.048,1.048,0,0,0,0-2.1H151.048a1.048,1.048,0,0,0,0,2.1Zm21.657,2.1H151.048a1.048,1.048,0,0,0,0,2.1H172.7a1.048,1.048,0,1,0,0-2.1Z" transform="translate(-130.579 -60.22)" fill="#ccc"/>
      <path id="Path_19711" data-name="Path 19711" d="M182.485,193.752H151.048A1.048,1.048,0,0,1,150,192.7V171.048A1.048,1.048,0,0,1,151.048,170h31.437a1.048,1.048,0,0,1,1.048,1.048V192.7A1.048,1.048,0,0,1,182.485,193.752Z" transform="translate(-130.579 -146.247)" fill="#c8e2fd"/>
      <path id="Path_19712" data-name="Path 19712" d="M183.533,141.287H150v-5.24A1.048,1.048,0,0,1,151.048,135h31.437a1.048,1.048,0,0,1,1.048,1.048Z" transform="translate(-130.579 -116.138)" fill="#ff6680" opacity="0.51"/>
      <path id="Path_19713" data-name="Path 19713" d="M183.533,212.5v4.192H150V212.5ZM150,224.726h33.533v-4.192H150Z" transform="translate(-130.579 -182.809)" fill="#abde97"/>
      <path id="Path_19714" data-name="Path 19714" d="M182.575,150H171.048a1.048,1.048,0,0,0,0,2.1h11.527a1.048,1.048,0,0,0,0-2.1Zm15.369,0H193.4a1.048,1.048,0,0,0,0,2.1h4.541a1.048,1.048,0,0,0,0-2.1Z" transform="translate(-147.784 -129.042)" fill="#ff6680"/>
      <path id="Path_19715" data-name="Path 19715" d="M182.485,78.9H176.2a1.048,1.048,0,0,1,0-2.1h6.287a1.048,1.048,0,0,1,0,2.1ZM150,31.048A1.048,1.048,0,0,1,151.048,30h10.479a1.048,1.048,0,1,1,0,2.1H151.048A1.048,1.048,0,0,1,150,31.048Zm30.739,38.377H176.2a1.048,1.048,0,0,0,0,2.1h4.541a1.048,1.048,0,0,0,0-2.1Z" transform="translate(-130.579 -25.808)" fill="#ff6680"/>
      <path id="Path_19716" data-name="Path 19716" d="M178.733,188h-7.685a1.048,1.048,0,1,0,0,2.1h7.685a1.048,1.048,0,0,0,0-2.1Zm19.212,0H196.2a1.048,1.048,0,1,0,0,2.1h1.747a1.048,1.048,0,1,0,0-2.1Zm0,8.733H196.2a1.048,1.048,0,1,0,0,2.1h1.747a1.048,1.048,0,0,0,0-2.1Z" transform="translate(-147.784 -161.733)" fill="#a7d0fc"/>
      <path id="Path_19717" data-name="Path 19717" d="M178.733,220h-7.685a1.048,1.048,0,0,0,0,2.1h7.685a1.048,1.048,0,0,0,0-2.1Zm19.212,0H194.1a1.048,1.048,0,0,0,0,2.1h3.842a1.048,1.048,0,0,0,0-2.1Zm0,8.034H194.1a1.048,1.048,0,0,0,0,2.1h3.842a1.048,1.048,0,1,0,0-2.1Z" transform="translate(-147.784 -189.261)" fill="#82cd64"/>
    </g>
  </g>
</svg>
