<svg xmlns="http://www.w3.org/2000/svg" width="82" height="18" viewBox="0 0 82 18">
  <g id="Group_15016" data-name="Group 15016" transform="translate(-1616 -509)">
    <text id="Download" transform="translate(1664 523)" fill="#fff" font-size="15" font-family="Roboto-Medium, Roboto" font-weight="500"><tspan x="-33.391" y="0">Download</tspan></text>
    <path id="arrow-down" d="M8.75,0H1.25A1.25,1.25,0,0,0,0,1.25v7.5A1.25,1.25,0,0,0,1.25,10h7.5A1.25,1.25,0,0,0,10,8.75V1.25A1.25,1.25,0,0,0,8.75,0ZM6.961,6.128,5.295,7.795a.416.416,0,0,1-.589,0L3.039,6.128a.417.417,0,0,1,.295-.711h1.25V2.5a.417.417,0,1,1,.833,0V5.417h1.25a.417.417,0,0,1,.295.711Zm0,0" transform="translate(1616 513)" fill="#fff"/>
  </g>
</svg>
