<svg xmlns="http://www.w3.org/2000/svg" width="96.407" height="70" viewBox="0 0 96.407 70">
  <g id="Group_14987" data-name="Group 14987" transform="translate(-878 -896)">
    <g id="blackboard" transform="translate(878 896)">
      <path id="Path_19680" data-name="Path 19680" d="M61,6.5h5.03V23.686H61Z" transform="translate(-15.311 -6.5)" fill="#0ab69f"/>
      <path id="Path_19681" data-name="Path 19681" d="M11.625,14H99.439V73.94H11.625Z" transform="translate(-7.329 -7.713)" fill="#eaeaf0"/>
      <path id="Path_19682" data-name="Path 19682" d="M110.092,56.677a1.467,1.467,0,0,1-1.467-1.467V44.8a1.467,1.467,0,1,1,2.934,0V55.21a1.467,1.467,0,0,1-1.467,1.468Z" transform="translate(-23.011 -12.455)" fill="#b4b4b8"/>
      <path id="Path_19683" data-name="Path 19683" d="M6.5,81h96.407v3.772H6.5Z" transform="translate(-6.5 -14.772)" fill="#0ab69f"/>
    </g>
    <path id="Path_19691" data-name="Path 19691" d="M105.143,186.014H48V152h68.027v23.129Zm0,0" transform="translate(841.737 765.896)" fill="#dbdab2"/>
    <path id="Path_19696" data-name="Path 19696" d="M384,298.884V288h10.884Zm0,0" transform="translate(562.879 653.025)" fill="#c1c0a3"/>
    <g id="Group_14986" data-name="Group 14986" transform="translate(896.443 927.42)">
      <path id="Path_19698" data-name="Path 19698" d="M232,240h38.9v2.721H232Zm0,0" transform="translate(-232 -234.558)" fill="#394d5c"/>
      <path id="Path_19699" data-name="Path 19699" d="M200,208h10.884v2.721H200Zm0,0" transform="translate(-200 -208)" fill="#394d5c"/>
      <path id="Path_19705" data-name="Path 19705" d="M200,208h25.3v2.721H200Zm0,0" transform="translate(-200 -196.263)" fill="#394d5c"/>
      <path id="Path_19700" data-name="Path 19700" d="M280,208h2.721v2.721H280Zm0,0" transform="translate(-266.532 -208)" fill="#394d5c"/>
      <path id="Path_19706" data-name="Path 19706" d="M280,208h2.721v2.721H280Zm0,0" transform="translate(-252.112 -196.263)" fill="#394d5c"/>
    </g>
    <rect id="Rectangle_4803" data-name="Rectangle 4803" width="9" height="12" transform="translate(945.603 910.554) rotate(30)" fill="#0ab69f" opacity="0.43"/>
  </g>
</svg>
