<svg id="smartphone" xmlns="http://www.w3.org/2000/svg" width="70" height="70" viewBox="0 0 70 70">
  <rect id="Rectangle_4801" data-name="Rectangle 4801" width="45.391" height="45.391" transform="translate(2.051 10.254)" fill="#fedb41"/>
  <rect id="Rectangle_4802" data-name="Rectangle 4802" width="22.695" height="45.391" transform="translate(24.746 10.254)" fill="#fcbf29"/>
  <path id="Path_19663" data-name="Path 19663" d="M44.283,60H4.1L0,64.1v41.289l4.1,4.1H44.324l5.168-4.1V64.1Zm1.108,45.391H4.1V64.1H45.391Z" transform="translate(0 -51.797)" fill="#1689fc"/>
  <path id="Path_19664" data-name="Path 19664" d="M205.746,64.1v41.289l-5.168,4.1H181v-4.1h20.645V64.1H181V60h19.537Z" transform="translate(-156.254 -51.797)" fill="#136ef1"/>
  <path id="Path_19665" data-name="Path 19665" d="M43.34,0H6.152A6.144,6.144,0,0,0,0,6.152V12.3H49.492V6.152A6.144,6.144,0,0,0,43.34,0Z" fill="#17ace8"/>
  <path id="Path_19666" data-name="Path 19666" d="M205.746,6.152V12.3H181V0h18.594A6.144,6.144,0,0,1,205.746,6.152Z" transform="translate(-156.254)" fill="#1689fc"/>
  <path id="Path_19667" data-name="Path 19667" d="M0,392v10.254a6.144,6.144,0,0,0,6.152,6.152H43.34a6.144,6.144,0,0,0,6.152-6.152V392Z" transform="translate(0 -338.406)" fill="#17ace8"/>
  <path id="Path_19668" data-name="Path 19668" d="M181,392h24.746v10.254a6.144,6.144,0,0,1-6.152,6.152H181Z" transform="translate(-156.254 -338.406)" fill="#1689fc"/>
  <g id="Group_14984" data-name="Group 14984" transform="translate(8.203 22.695)">
    <path id="Path_19669" data-name="Path 19669" d="M80.645,168.051a2.031,2.031,0,0,1-2.051,2.051H62.051a2.051,2.051,0,0,1,0-4.1H78.594A2.031,2.031,0,0,1,80.645,168.051Z" transform="translate(-60 -166)" fill="#fe9923"/>
    <path id="Path_19670" data-name="Path 19670" d="M70.391,230.1h-8.34a2.051,2.051,0,0,1,0-4.1h8.34a2.051,2.051,0,0,1,0,4.1Z" transform="translate(-60 -217.797)" fill="#fe9923"/>
    <path id="Path_19671" data-name="Path 19671" d="M66.289,290.1H62.051a2.051,2.051,0,0,1,0-4.1h4.238a2.051,2.051,0,0,1,0,4.1Z" transform="translate(-60 -269.594)" fill="#fe9923"/>
  </g>
  <path id="Path_19672" data-name="Path 19672" d="M183.051,170.1H181V166h2.051a2.051,2.051,0,0,1,0,4.1Z" transform="translate(-156.254 -143.305)"/>
  <path id="Path_19673" data-name="Path 19673" d="M235.845,244.206a6.175,6.175,0,0,1-4.348,1.8H198.548a6.175,6.175,0,0,1-4.348-1.8l.164-3.568L205,230.1l3.938-.492,1.8-1.8h9.146l1.354,1.8h3.773l10.254,10.254Z" transform="translate(-167.649 -196.655)" fill="#b7e0f6"/>
  <g id="Group_14985" data-name="Group 14985" transform="translate(24.746 18.347)">
    <path id="Path_19674" data-name="Path 19674" d="M367.754,244.206a6.175,6.175,0,0,1-4.348,1.8H347V227.8h4.8l1.354,1.8h3.773l10.254,10.254Z" transform="translate(-324.305 -215.002)" fill="#a4d9f5"/>
    <path id="Path_19675" data-name="Path 19675" d="M196.769,144.252,186.576,134.2H182.8a6.133,6.133,0,0,0-1.8,4.348v20.508a6.133,6.133,0,0,0,1.8,4.345l14.739-14.6Z" transform="translate(-181 -134.195)" fill="#a4d9f5"/>
  </g>
  <path id="Path_19676" data-name="Path 19676" d="M406.619,132.322l-3.994-.3L392.02,142.63v4.291l14.6,14.6a6.134,6.134,0,0,0,1.8-4.345V136.67A6.133,6.133,0,0,0,406.619,132.322Z" transform="translate(-338.423 -113.975)" fill="#81c8ee"/>
  <path id="Path_19677" data-name="Path 19677" d="M235.845,122.8,218,140.646a4.16,4.16,0,0,1-5.824,0L194.2,122.8a6.174,6.174,0,0,1,4.348-1.8H231.5A6.174,6.174,0,0,1,235.845,122.8Z" transform="translate(-167.649 -104.457)" fill="#cae8f9"/>
  <path id="Path_19678" data-name="Path 19678" d="M367.754,122.8l-17.842,17.842A4.129,4.129,0,0,1,347,141.836V121h16.406A6.174,6.174,0,0,1,367.754,122.8Z" transform="translate(-299.559 -104.457)" fill="#b7e0f6"/>
</svg>
