<svg xmlns="http://www.w3.org/2000/svg" width="50" height="18" viewBox="0 0 50 18">
  <g id="Group_15015" data-name="Group 15015" transform="translate(-3746 -10377)">
    <text id="View" transform="translate(3779 10391)" fill="#fff" font-size="15" font-family="Roboto-Medium, Roboto" font-weight="500"><tspan x="-16.366" y="0">View</tspan></text>
    <g id="project" transform="translate(3746 10381)">
      <path id="Path_19721" data-name="Path 19721" d="M2.949,198.516a4.365,4.365,0,0,0,2.858-1.566.292.292,0,0,0,0-.384A4.365,4.365,0,0,0,2.949,195a4.417,4.417,0,0,0-2.877,1.566.292.292,0,0,0,0,.384A4.417,4.417,0,0,0,2.949,198.516Zm0-2.637a.879.879,0,1,1-.879.879A.88.88,0,0,1,2.949,195.879Z" transform="translate(0 -191.191)" fill="#fff"/>
      <path id="Path_19722" data-name="Path 19722" d="M136.293,270.586a.293.293,0,1,0-.293-.293A.293.293,0,0,0,136.293,270.586Z" transform="translate(-133.344 -264.727)" fill="#fff"/>
      <path id="Path_19723" data-name="Path 19723" d="M422,10.375h1.586L422,8.789Z" transform="translate(-413.758 -8.617)" fill="#fff"/>
      <path id="Path_19724" data-name="Path 19724" d="M128.637,2.344h-2.051a.293.293,0,0,1-.293-.293V0h-5A.293.293,0,0,0,121,.293V3.284a2.818,2.818,0,0,1,1.172,0V3.223a.293.293,0,0,1,.293-.293h4.707a.293.293,0,0,1,.293.293V7.91a.293.293,0,0,1-.293.293h-4.707a.293.293,0,0,1-.293-.293V7.849a2.818,2.818,0,0,1-1.172,0V9.707a.293.293,0,0,0,.293.293h7.051a.293.293,0,0,0,.293-.293Zm-3.223,0h-2.949a.293.293,0,0,1,0-.586h2.949a.293.293,0,0,1,0,.586Z" transform="translate(-118.637)" fill="#fff"/>
      <path id="Path_19725" data-name="Path 19725" d="M218.234,184.1h3.98V180h-3.98a6.108,6.108,0,0,1,1.987,1.475.882.882,0,0,1,0,1.152A6.106,6.106,0,0,1,218.234,184.1Z" transform="translate(-213.972 -176.484)" fill="#fff"/>
    </g>
  </g>
</svg>
