<svg xmlns="http://www.w3.org/2000/svg" width="14" height="16" viewBox="0 0 14 16">
  <path id="paymenthistory" d="M77.883,3.431,74,.1a.421.421,0,0,0-.275-.1H65.555A1.459,1.459,0,0,0,64,1.333V14.667A1.459,1.459,0,0,0,65.555,16H76.444A1.459,1.459,0,0,0,78,14.667v-11a.311.311,0,0,0-.117-.236ZM67.5,4.667a1.128,1.128,0,0,1-1.137-.831.991.991,0,0,1,.749-1.108V2.667a.394.394,0,0,1,.778,0h.389A.365.365,0,0,1,68.667,3a.365.365,0,0,1-.389.333H67.5a.364.364,0,0,0-.389.333A.364.364,0,0,0,67.5,4a1.128,1.128,0,0,1,1.137.831.991.991,0,0,1-.749,1.108V6a.394.394,0,0,1-.778,0h-.389a.365.365,0,0,1-.389-.333.365.365,0,0,1,.389-.333H67.5A.365.365,0,0,0,67.889,5a.365.365,0,0,0-.389-.333ZM71.388,14H66.722a.337.337,0,1,1,0-.667h4.667a.337.337,0,1,1,0,.667Zm3.889-2H66.722a.337.337,0,1,1,0-.667h8.555a.337.337,0,1,1,0,.667Zm0-2H66.722a.337.337,0,1,1,0-.667h8.555a.337.337,0,1,1,0,.667Zm0-2H66.722a.337.337,0,1,1,0-.667h8.555a.337.337,0,1,1,0,.667Zm0-2H70.61a.365.365,0,0,1-.389-.333.365.365,0,0,1,.389-.333h4.667a.365.365,0,0,1,.389.333A.365.365,0,0,1,75.277,6Zm-.389-2.667a.729.729,0,0,1-.778-.667V1.138l2.567,2.2Z" transform="translate(-64)" fill="#5e5e5e"/>
</svg>
