<svg xmlns="http://www.w3.org/2000/svg" width="75" height="75" viewBox="0 0 75 75"><defs><style>.a{fill:#fff4f4;}.b,.d{fill:#f6efea;}.c{fill:#0ab69f;}.d{fill-rule:evenodd;}.e{fill:#fdbf00;}.f{fill:#bee75e;}.g{fill:#ff8856;}.h{fill:#4793ff;}.i{fill:#7dd5f4;}.j{fill:#00917d;}.k{fill:#5e5e5e;}</style></defs><g transform="translate(17.871 9.927)"><path class="a" d="M122,67.766v42.8a4.262,4.262,0,0,0,4.257,4.257h48.615a4.262,4.262,0,0,0,4.257-4.257v-42.8Z" transform="translate(-122 -67.766)"/></g><path class="b" d="M317,67.766v47.056h24.308a4.262,4.262,0,0,0,4.257-4.257v-42.8Z" transform="translate(-270.564 -57.839)"/><path class="c" d="M167.706,0H126.257A4.262,4.262,0,0,0,122,4.257v6.729h45.706Z" transform="translate(-104.129)"/><g transform="translate(2.197 37.646)"><circle class="a" cx="17.578" cy="17.578" r="17.578"/></g><path class="d" d="M136,257.012v35.153a17.577,17.577,0,0,0,0-35.153Z" transform="translate(-116.078 -219.364)"/><g transform="translate(2.866 34.483)"><path class="e" d="M24.023,242.964a2.195,2.195,0,0,1-1.789-.919l-2.261-3.163a2.2,2.2,0,0,1,3.575-2.556l2.261,3.163a2.2,2.2,0,0,1-1.786,3.475Z" transform="translate(-19.562 -235.406)"/></g><g transform="translate(0.849 32.977)"><path class="e" d="M7.993,232.113a2.2,2.2,0,0,1-1.254-4l3.745-2.6a2.2,2.2,0,0,1,2.5,3.611l-3.745,2.6a2.188,2.188,0,0,1-1.25.392Z" transform="translate(-5.793 -225.121)"/></g><path class="e" d="M103.4,194H95.2a2.2,2.2,0,0,0,0,4.395h1.912c0,.05-.008.1-.008.152v3.545a2.2,2.2,0,0,0,4.395,0v-3.545c0-.051,0-.1-.008-.152H103.4a2.2,2.2,0,1,0,0-4.395Z" transform="translate(-79.377 -165.583)"/><g transform="translate(31.348 17.615)"><path class="f" d="M217.535,127.834a2.19,2.19,0,0,1-1.554-.644l-1.337-1.337a2.2,2.2,0,0,1,2.876-3.309l1.647-1.647a2.2,2.2,0,0,1,3.107,3.107l-3.185,3.185A2.191,2.191,0,0,1,217.535,127.834Z" transform="translate(-214 -120.254)"/></g><path class="g" d="M140.1,194H136V204.29a2.2,2.2,0,0,0,2.2-2.2v-3.545c0-.051,0-.1-.008-.152H140.1a2.2,2.2,0,0,0,0-4.395Z" transform="translate(-116.078 -165.583)"/><g transform="translate(44.678 19.208)"><path class="h" d="M323.311,135.522H307.2a2.2,2.2,0,0,1,0-4.395h16.113a2.2,2.2,0,0,1,0,4.395Z" transform="translate(-305 -131.127)"/></g><g transform="translate(31.348 29.59)"><path class="f" d="M217.535,209.58a2.19,2.19,0,0,1-1.554-.644l-1.337-1.337a2.2,2.2,0,0,1,2.876-3.309l1.647-1.647a2.2,2.2,0,0,1,3.107,3.107l-3.185,3.185A2.19,2.19,0,0,1,217.535,209.58Z" transform="translate(-214 -202)"/></g><g transform="translate(44.678 29.59)"><path class="h" d="M323.311,206.4H307.2a2.2,2.2,0,0,1,0-4.395h16.113a2.2,2.2,0,0,1,0,4.395Z" transform="translate(-305 -202.001)"/></g><g transform="translate(44.678 38.379)"><path class="h" d="M315.254,266.395H307.2a2.2,2.2,0,0,1,0-4.395h8.057a2.2,2.2,0,0,1,0,4.395Z" transform="translate(-305 -262)"/></g><g transform="translate(17.578 35.449)"><path class="i" d="M122.2,249.285a2.2,2.2,0,0,1-2.2-2.2V244.2a2.2,2.2,0,0,1,4.395,0v2.89A2.2,2.2,0,0,1,122.2,249.285Z" transform="translate(-120 -242)"/></g><g transform="translate(32.266 53.027)"><path class="h" d="M225.358,366.395h-2.89a2.2,2.2,0,0,1,0-4.395h2.89a2.2,2.2,0,0,1,0,4.395Z" transform="translate(-220.271 -362)"/></g><path class="h" d="M136,242.051v7.27a2.2,2.2,0,0,0,2.051-2.19v-2.89A2.2,2.2,0,0,0,136,242.051Z" transform="translate(-116.078 -206.594)"/><g transform="translate(17.578 67.715)"><path class="i" d="M122.2,469.556a2.2,2.2,0,0,1-2.2-2.2v-2.89a2.2,2.2,0,0,1,4.395,0v2.89A2.2,2.2,0,0,1,122.2,469.556Z" transform="translate(-120 -462.271)"/></g><path class="h" d="M136,462.322v7.27a2.2,2.2,0,0,0,2.051-2.19v-2.89A2.2,2.2,0,0,0,136,462.322Z" transform="translate(-116.078 -394.599)"/><g transform="translate(0 53.027)"><path class="i" d="M5.087,366.395H2.2A2.2,2.2,0,0,1,2.2,362h2.89a2.2,2.2,0,0,1,0,4.395Z" transform="translate(0 -362)"/></g><g transform="translate(27.964 40.598)"><path class="h" d="M193.1,283.586a2.2,2.2,0,0,1-1.554-3.751l2.044-2.043A2.2,2.2,0,0,1,196.7,280.9l-2.044,2.043A2.19,2.19,0,0,1,193.1,283.586Z" transform="translate(-190.902 -277.147)"/></g><g transform="translate(27.964 63.414)"><path class="h" d="M195.143,439.341a2.19,2.19,0,0,1-1.554-.644l-2.044-2.043a2.2,2.2,0,1,1,3.107-3.107l2.044,2.043a2.2,2.2,0,0,1-1.554,3.751Z" transform="translate(-190.902 -432.903)"/></g><g transform="translate(5.149 63.414)"><path class="i" d="M37.345,439.341a2.2,2.2,0,0,1-1.554-3.751l2.043-2.043a2.2,2.2,0,1,1,3.107,3.107L38.9,438.7A2.191,2.191,0,0,1,37.345,439.341Z" transform="translate(-35.147 -432.903)"/></g><g transform="translate(5.149 40.598)"><path class="i" d="M39.389,283.586a2.19,2.19,0,0,1-1.554-.644L35.792,280.9a2.2,2.2,0,1,1,3.107-3.107l2.043,2.043a2.2,2.2,0,0,1-1.554,3.751Z" transform="translate(-35.148 -277.148)"/></g><g transform="translate(17.578 46.542)"><path class="c" d="M126.372,332.783a2.19,2.19,0,0,1-1.554-.644l-4.175-4.175a2.2,2.2,0,0,1-.644-1.554v-6.485a2.2,2.2,0,0,1,4.395,0V325.5l3.531,3.531a2.2,2.2,0,0,1-1.554,3.751Z" transform="translate(-120 -317.729)"/></g><path class="j" d="M439.261,0h-7.5V10.986h11.753V4.257A4.262,4.262,0,0,0,439.261,0Z" transform="translate(-368.518)"/><g transform="translate(0 35.449)"><path class="c" d="M19.775,281.551a19.775,19.775,0,1,1,19.775-19.775A19.8,19.8,0,0,1,19.775,281.551Zm0-35.156a15.381,15.381,0,1,0,15.381,15.381A15.4,15.4,0,0,0,19.775,246.395Z" transform="translate(0 -242)"/></g><path class="c" d="M136,242.013v4.395a15.38,15.38,0,0,1,0,30.758v4.395a19.774,19.774,0,0,0,0-39.547Z" transform="translate(-116.078 -206.562)"/><g transform="translate(46.436 19.208)"><path class="k" d="M333.553,131.127H317.439a2.2,2.2,0,0,0-.439.044v4.306a2.2,2.2,0,0,0,.439.044h16.113a2.2,2.2,0,1,0,0-4.394Z" transform="translate(-317 -131.127)"/><path class="k" d="M333.553,202H317.439a2.2,2.2,0,0,0-.439.044v4.306a2.2,2.2,0,0,0,.439.044h16.113a2.2,2.2,0,0,0,0-4.395Z" transform="translate(-317 -191.619)"/><path class="k" d="M325.5,262h-8.057a2.2,2.2,0,0,0-.439.044v4.306a2.2,2.2,0,0,0,.439.044H325.5a2.2,2.2,0,1,0,0-4.394Z" transform="translate(-317 -242.829)"/></g><path class="j" d="M317,0h17.142V10.986H317Z" transform="translate(-270.564)"/></svg>