<svg xmlns="http://www.w3.org/2000/svg" width="87.273" height="61.636" viewBox="0 0 87.273 61.636"><defs><style>.a{fill:#e1e6e9;}.b{fill:#2262c6;}.c{fill:#fff;}.d{fill:#2ea2db;}.e{fill:#fdbf5e;}.f{fill:#193651;}.g{fill:#f16051;}.h{fill:#cfd0d1;}</style></defs><g transform="translate(0 -34.909)"><path class="a" d="M88.212,42.667H11.848a4.018,4.018,0,0,0-4.091,4.091V97.485a4.018,4.018,0,0,0,4.091,4.091H88.211A4.018,4.018,0,0,0,92.3,97.485V46.758A4.1,4.1,0,0,0,88.212,42.667Z" transform="translate(-6.393 -6.394)"/><path class="b" d="M81.818,96.545H5.454A5.471,5.471,0,0,1,0,91.091V40.363a5.471,5.471,0,0,1,5.454-5.454H81.818a5.471,5.471,0,0,1,5.454,5.454V91.091A5.47,5.47,0,0,1,81.818,96.545ZM5.454,37.636a2.735,2.735,0,0,0-2.727,2.727V91.091a2.735,2.735,0,0,0,2.727,2.727H81.818a2.735,2.735,0,0,0,2.727-2.727V40.363a2.735,2.735,0,0,0-2.727-2.727H5.454Z"/><rect class="c" width="73.636" height="41.318" transform="translate(6.818 41.727)"/><path class="d" d="M301.6,228.848a8.5,8.5,0,0,1-6.545,3,8.976,8.976,0,0,1-6.545-3c-3.273,2.318-6.136,6-6.136,10.364h25.364C307.74,234.848,305.013,231.166,301.6,228.848Z" transform="translate(-232.74 -159.848)"/><ellipse class="e" cx="6.409" cy="7.091" rx="6.409" ry="7.091" transform="translate(55.909 55.091)"/><path class="f" d="M121.27,211.991,113.5,199.309l-7.909,12.682-1.636-.955,9.545-15.545,9.545,15.545Z" transform="translate(-85.679 -132.355)"/><path class="g" d="M90.5,93.091H60.909a2.735,2.735,0,0,0-2.727,2.727v19.091a2.735,2.735,0,0,0,2.727,2.727H90.5a2.735,2.735,0,0,0,2.727-2.727V95.818A2.735,2.735,0,0,0,90.5,93.091Z" transform="translate(-47.955 -47.955)"/><g transform="translate(15.409 53.182)"><path class="c" d="M89.842,147.324l-.818,1.773H87.66l3.546-7.909h1.364l3.546,7.909H94.751l-.818-1.773Zm3.409-1.227-1.5-3.273-1.5,3.273Z" transform="translate(-87.66 -140.779)"/><path class="c" d="M151.443,141.179a2.775,2.775,0,0,1,2.045.818,3.1,3.1,0,0,1,.818,2.182,3.441,3.441,0,0,1-.818,2.318,2.775,2.775,0,0,1-2.045.818,2.454,2.454,0,0,1-2.045-.954v.954H148.17v-8.455H149.4v3.409A2.262,2.262,0,0,1,151.443,141.179Zm-2.045,3.136a1.581,1.581,0,0,0,.545,1.364,1.666,1.666,0,0,0,1.227.545,1.864,1.864,0,0,0,1.909-1.909,2.051,2.051,0,0,0-.545-1.5,1.751,1.751,0,0,0-1.364-.545,1.329,1.329,0,0,0-1.227.545A1.862,1.862,0,0,0,149.4,144.315Z" transform="translate(-137.533 -138.861)"/><path class="c" d="M199.4,158.185a3.343,3.343,0,0,1-2.182-.818,3.218,3.218,0,0,1-.954-2.182,2.991,2.991,0,0,1,.954-2.318,3.441,3.441,0,0,1,2.318-.818,2.991,2.991,0,0,1,2.318.954l-.682.954a2.833,2.833,0,0,0-1.636-.682,1.864,1.864,0,0,0-1.909,1.909,1.581,1.581,0,0,0,.545,1.364,1.751,1.751,0,0,0,1.364.545,2.357,2.357,0,0,0,1.636-.818l.682.818A2.8,2.8,0,0,1,199.4,158.185Z" transform="translate(-177.176 -149.73)"/></g><g transform="translate(31.909 86.454)"><circle class="h" cx="1.636" cy="1.636" r="1.636" transform="translate(0 0.682)"/><circle class="h" cx="2.318" cy="2.318" r="2.318" transform="translate(9.409 0)"/><circle class="h" cx="1.636" cy="1.636" r="1.636" transform="translate(20.182 0.682)"/></g><rect class="f" width="2.727" height="2.727" transform="translate(53.591 48.136)"/><rect class="f" width="2.727" height="2.727" transform="translate(60.955 48.136)"/><rect class="f" width="2.727" height="2.727" transform="translate(68.318 48.136)"/></g></svg>