<svg xmlns="http://www.w3.org/2000/svg" width="77.586" height="75" viewBox="0 0 77.586 75"><defs><style>.a{fill:#c6c5ca;}.b{fill:#acabb1;}.c{fill:#ffd422;}.d{fill:#3d9ae2;}.e{fill:#ffdaaa;}.f{fill:#ff6680;}.g{fill:#57565c;}.h{fill:#f2ca96;}.i{fill:#1e81ce;}.j{fill:#787680;}.k{fill:#ddb200;}</style></defs><path class="a" d="M276.448,232H250.586A2.594,2.594,0,0,0,248,234.586V250.1a2.594,2.594,0,0,0,2.586,2.586h25.862a2.594,2.594,0,0,0,2.586-2.586V234.586A2.594,2.594,0,0,0,276.448,232Zm0,0" transform="translate(-207.914 -194.5)"/><path class="b" d="M328,312v15.517h5.172V312Zm0,0" transform="translate(-274.983 -261.569)"/><path class="c" d="M182.793,2.586v18.1a2.594,2.594,0,0,1-2.586,2.586H163.4l-7.759,7.759V23.276h-9.052A2.594,2.594,0,0,1,144,20.69V2.586A2.594,2.594,0,0,1,146.586,0h33.621A2.594,2.594,0,0,1,182.793,2.586Zm0,0" transform="translate(-120.724)"/><path class="d" d="M74.1,343.682H56v-6.44a5.172,5.172,0,0,1,3.75-4.979l3.427-.982,4.461,3.349,4.461-3.349,3.427.982a5.172,5.172,0,0,1,3.75,4.979v6.44Zm0,0" transform="translate(-46.948 -277.734)"/><path class="e" d="M109.322,311.494l-4.461,3.349-4.461-3.349,1.875-.53v-3.285a5.137,5.137,0,0,0,5.172,0v3.285Zm0,0" transform="translate(-84.171 -257.947)"/><path class="e" d="M106.345,250.586v2.586a5.206,5.206,0,0,1-1.513,3.66,5.46,5.46,0,0,1-1.073.815A5.173,5.173,0,0,1,96,253.172v-2.586h1.526a7.7,7.7,0,0,0,4.305-1.306l1.927-1.28.582,1.151a2.531,2.531,0,0,0,2,1.409Zm0,0" transform="translate(-80.483 -207.914)"/><path class="f" d="M24,432H93.828v5.172H24Zm0,0" transform="translate(-20.121 -362.172)"/><path class="g" d="M94.466,216a6.466,6.466,0,0,1,6.466,6.466v1.293h-.982a1.252,1.252,0,0,1-.311-.026,2.531,2.531,0,0,1-2-1.409l-.582-1.151-1.927,1.28a7.7,7.7,0,0,1-4.305,1.306H88v-1.293A6.466,6.466,0,0,1,94.466,216Zm0,0" transform="translate(-73.776 -181.086)"/><path class="h" d="M117.172,307.68v1.293a5.137,5.137,0,0,1-5.172,0V307.68A5.137,5.137,0,0,0,117.172,307.68Zm0,0" transform="translate(-93.897 -257.947)"/><path class="i" d="M80,368h2.586v6.466H80Zm0,0" transform="translate(-67.069 -308.517)"/><path class="i" d="M160,368h2.586v6.466H160Zm0,0" transform="translate(-134.138 -308.517)"/><path class="j" d="M304,400h12.931v2.586H304Zm0,0" transform="translate(-254.862 -335.345)"/><path class="j" d="M0,424H77.586v2.586H0Zm0,0" transform="translate(0 -355.466)"/><path class="k" d="M192,32h23.276v2.586H192Zm0,0" transform="translate(-160.966 -26.828)"/><path class="k" d="M192,64h23.276v2.586H192Zm0,0" transform="translate(-160.966 -53.655)"/><path class="k" d="M192,96h23.276v2.586H192Zm0,0" transform="translate(-160.966 -80.483)"/></svg>